M48
;DRILL file {KiCad 5.0.0-rc1-44a33f2~62~ubuntu16.04.1} date Sun Apr  1 18:28:58 2018
;FORMAT={3:3/ absolute / metric / suppress leading zeros}
FMAT,2
METRIC,TZ
T1C0.400
T2C0.600
T3C0.798
T4C0.990
T5C1.000
T6C1.200
T7C1.300
T8C0.900
T9C2.700
%
G90
G05
M71
T1
X51500Y-51500
X51500Y-52500
X51500Y-54000
X51500Y-55000
X51500Y-56000
X51500Y-57000
X51500Y-58000
X51500Y-59000
X51500Y-60000
X51500Y-61000
X51500Y-62000
X51500Y-63000
X51500Y-64000
X51500Y-101000
X51500Y-102000
X51500Y-103000
X51500Y-104000
X51500Y-113500
X51500Y-114500
X51500Y-115500
X51500Y-116500
X51500Y-117500
X51500Y-118500
X51500Y-119500
X51500Y-120500
X51500Y-121500
X51500Y-122500
X52000Y-70000
X52000Y-71000
X52000Y-72000
X52000Y-73000
X52000Y-74000
X52000Y-75000
X52000Y-76000
X52000Y-77000
X52000Y-78000
X52000Y-79000
X52000Y-80000
X52000Y-81000
X52000Y-82000
X52000Y-83000
X52000Y-84000
X52000Y-85000
X52000Y-86000
X52500Y-51500
X52500Y-122500
X53500Y-51500
X53500Y-122500
X54500Y-51500
X54500Y-122500
X55500Y-51500
X55500Y-122500
X56500Y-51500
X56500Y-122500
X57500Y-51500
X57500Y-122500
X58500Y-51500
X58500Y-122500
X59500Y-122500
X60000Y-77000
X60000Y-78000
X60000Y-79000
X60000Y-80000
X60000Y-81000
X60500Y-122500
X61000Y-77000
X61500Y-122500
X62000Y-77000
X63000Y-77000
X63000Y-104000
X63000Y-105000
X64000Y-77000
X64000Y-104000
X64000Y-105000
X65000Y-104000
X65000Y-105000
X66000Y-104000
X66000Y-105000
X66750Y-89000
X66793Y-88043
X67000Y-55000
X67000Y-56000
X67000Y-57000
X67000Y-58000
X67000Y-59000
X67000Y-60000
X67000Y-61000
X67000Y-62000
X67000Y-63000
X67000Y-64000
X67000Y-65000
X67000Y-66000
X67000Y-67000
X67000Y-68000
X67000Y-69000
X67000Y-70000
X67000Y-71000
X67000Y-72000
X67000Y-104000
X67000Y-105000
X67500Y-84000
X67500Y-99750
X67500Y-113500
X67500Y-122500
X68000Y-104000
X68500Y-84000
X68500Y-85000
X68500Y-113500
X68500Y-122500
X69500Y-84000
X69500Y-85000
X69500Y-86000
X69500Y-113500
X69500Y-122500
X70500Y-55000
X70500Y-56000
X70500Y-57000
X70500Y-58000
X70500Y-59000
X70500Y-60000
X70500Y-61000
X70500Y-62000
X70500Y-63000
X70500Y-64000
X70500Y-65000
X70500Y-66000
X70500Y-67000
X70500Y-68000
X70500Y-69000
X70500Y-70000
X70500Y-71000
X70500Y-72000
X70500Y-84000
X70500Y-85000
X70500Y-86000
X70500Y-106000
X70500Y-113500
X70500Y-122500
X71000Y-101500
X71000Y-102500
X71500Y-106000
X71500Y-113500
X71500Y-122500
X72000Y-73500
X72000Y-101500
X72000Y-102500
X72500Y-80000
X72500Y-106000
X72500Y-113500
X72500Y-122500
X73000Y-74500
X73000Y-101500
X73000Y-102500
X73500Y-52000
X73500Y-53000
X73500Y-80000
X73500Y-81000
X73500Y-106000
X73500Y-113500
X73500Y-122500
X74000Y-75500
X74000Y-101500
X74000Y-102500
X74500Y-52000
X74500Y-53000
X74500Y-81000
X74500Y-82000
X74500Y-106000
X74500Y-113500
X74500Y-122500
X75000Y-76500
X75000Y-101500
X75000Y-102500
X75500Y-52000
X75500Y-53000
X75500Y-82000
X75500Y-106000
X75500Y-113500
X75500Y-122500
X76000Y-101500
X76000Y-102500
X76500Y-85500
X76500Y-86250
X76500Y-106000
X76500Y-113500
X76500Y-122500
X77000Y-101500
X77000Y-102500
X77500Y-85500
X77500Y-86250
X78000Y-69500
X78000Y-70500
X78000Y-71500
X78000Y-72500
X78000Y-73500
X78000Y-74500
X78000Y-75500
X78000Y-80000
X78000Y-101500
X78000Y-102500
X78500Y-80500
X78500Y-85500
X78500Y-86250
X79000Y-60500
X79000Y-61500
X79000Y-62500
X79000Y-69500
X79000Y-76500
X79000Y-101500
X79000Y-102500
X79500Y-86250
X80000Y-60500
X80000Y-61500
X80000Y-62500
X80000Y-69500
X80000Y-77500
X80000Y-101500
X80000Y-102500
X81000Y-60500
X81000Y-61500
X81000Y-62500
X81000Y-69500
X81000Y-77500
X82000Y-59500
X82000Y-60500
X82000Y-61500
X82000Y-62500
X82000Y-69500
X82000Y-77500
X82000Y-85750
X83000Y-69500
X83000Y-77500
X83000Y-104250
X83500Y-111000
X83500Y-112000
X83500Y-113000
X84000Y-69500
X84000Y-70500
X84000Y-71500
X84000Y-72500
X84000Y-73500
X84000Y-74500
X84000Y-75500
X84000Y-76500
X84000Y-77500
X84400Y-60800
X84400Y-61800
X84500Y-84500
X84500Y-111000
X84500Y-112000
X84500Y-113000
X85200Y-60800
X85200Y-61800
X85500Y-83500
X85500Y-84500
X86000Y-60800
X86000Y-61800
X86000Y-113000
X86500Y-83500
X86500Y-84500
X87000Y-90750
X87000Y-113000
X87250Y-86750
X87500Y-83500
X87500Y-84500
X88000Y-60500
X88000Y-61500
X88000Y-113000
X88500Y-80000
X88500Y-81000
X88500Y-82000
X88500Y-83500
X88500Y-84500
X89000Y-59500
X89000Y-60500
X89000Y-61500
X89000Y-95000
X89000Y-113000
X89250Y-66250
X89250Y-67000
X89250Y-67750
X89250Y-87000
X89250Y-96000
X89500Y-80000
X89500Y-81000
X89500Y-82000
X89500Y-99500
X89500Y-100500
X90000Y-59500
X90000Y-60500
X90000Y-61500
X90000Y-113000
X90000Y-114000
X90000Y-115000
X90000Y-119500
X90000Y-120500
X90250Y-66250
X90250Y-67000
X90250Y-67750
X90500Y-80000
X90500Y-81000
X90500Y-82000
X90500Y-99500
X90500Y-100500
X90500Y-101500
X91000Y-59500
X91000Y-60500
X91000Y-61500
X91000Y-113000
X91000Y-114000
X91000Y-115000
X91000Y-119500
X91000Y-120500
X91500Y-80000
X91500Y-81000
X91500Y-82000
X91500Y-99500
X91500Y-100500
X91500Y-101500
X91500Y-102500
X92000Y-113000
X92000Y-114000
X92000Y-115000
X92000Y-119500
X92000Y-120500
X92500Y-54000
X92500Y-102500
X92500Y-103500
X93000Y-113000
X93000Y-114000
X93000Y-115000
X93000Y-119500
X93000Y-120500
X93500Y-54000
X93500Y-102500
X93500Y-103500
X93500Y-104500
X93750Y-84500
X94000Y-113000
X94000Y-114000
X94000Y-115000
X94125Y-91375
X94500Y-54000
X94500Y-55000
X94500Y-56000
X94500Y-57000
X94500Y-58000
X94500Y-59000
X94500Y-60000
X94500Y-61000
X94500Y-102500
X94500Y-103500
X94500Y-104500
X94500Y-105500
X94750Y-87000
X94750Y-93250
X95000Y-113000
X95000Y-114000
X95000Y-115000
X95500Y-54000
X95500Y-55000
X95500Y-56000
X95500Y-86250
X96000Y-113000
X96000Y-114000
X96000Y-115000
X96500Y-54000
X96500Y-55000
X97000Y-96750
X97500Y-54000
X97500Y-101500
X98000Y-83000
X98000Y-84000
X98000Y-86000
X98000Y-87000
X98000Y-88000
X98000Y-89000
X98000Y-90000
X98000Y-91000
X98500Y-54000
X98500Y-102250
X99000Y-83000
X99000Y-84000
X99000Y-86000
X99000Y-91000
X99000Y-94500
X99000Y-95500
X100000Y-86000
X100000Y-91000
X100000Y-94500
X100000Y-95500
X101000Y-86000
X101000Y-91000
X101000Y-94500
X101000Y-95500
X101500Y-59000
X101500Y-60000
X101500Y-109500
X101500Y-110500
X102000Y-54000
X102000Y-86000
X102000Y-91000
X102000Y-94500
X102000Y-95500
X102000Y-122500
X102500Y-59000
X102500Y-60000
X102500Y-84250
X102500Y-102500
X102500Y-109500
X102500Y-110500
X103000Y-86000
X103000Y-91000
X103000Y-94500
X103000Y-121500
X103000Y-122500
X103500Y-55500
X103500Y-59000
X103500Y-60000
X103500Y-109500
X103500Y-110500
X103750Y-96500
X104000Y-86000
X104000Y-90000
X104000Y-121500
X104000Y-122500
X104209Y-78750
X104500Y-55500
X104500Y-59000
X104500Y-60000
X104500Y-83250
X104500Y-106000
X104500Y-109500
X104500Y-110500
X104500Y-111500
X105000Y-86000
X105000Y-89000
X105000Y-121500
X105000Y-122500
X105500Y-55500
X105500Y-59000
X105500Y-60000
X105500Y-106000
X105500Y-109500
X105500Y-110500
X105500Y-111500
X106000Y-86000
X106000Y-87000
X106000Y-88000
X106000Y-122500
X106500Y-55500
X106500Y-59000
X106500Y-60000
X106500Y-106000
X107000Y-122500
X107500Y-55500
X107500Y-59000
X107500Y-60000
X107500Y-106000
X108000Y-97000
X108000Y-122500
X108500Y-55500
X108500Y-59000
X108500Y-60000
X108500Y-93000
X108500Y-106000
X109000Y-66500
X109000Y-67500
X109000Y-68500
X109000Y-69500
X109000Y-96000
X109000Y-97000
X109000Y-122500
X109500Y-106000
X109500Y-117500
X110000Y-96000
X110000Y-97000
X110000Y-122500
X110500Y-106000
X110500Y-107000
X111000Y-122500
X111345Y-117500
X111500Y-83250
X111500Y-106000
X111500Y-107000
X111750Y-57500
X112000Y-53250
X112000Y-122500
X112250Y-93000
X112500Y-106000
X112500Y-107000
X113000Y-92250
X113000Y-122500
X113500Y-65000
X113500Y-106000
X113500Y-107000
X113500Y-111500
X113750Y-93250
X113750Y-117250
X114000Y-64000
X114000Y-66500
X114000Y-67500
X114000Y-68500
X114000Y-69500
X114000Y-80500
X114000Y-81500
X114000Y-82500
X114000Y-83500
X114000Y-84500
X114000Y-85500
X114000Y-86500
X114000Y-87500
X114000Y-88500
X114000Y-89500
X114000Y-90500
X114000Y-122500
X114250Y-77750
X114500Y-63000
X114500Y-65000
X114500Y-106000
X114500Y-107000
X114500Y-111500
X114750Y-117250
X115000Y-64000
X115000Y-77250
X115000Y-80500
X115000Y-90500
X115000Y-95000
X115000Y-96000
X115000Y-97000
X115000Y-98000
X115000Y-122500
X115500Y-63000
X115500Y-65000
X115500Y-111500
X115750Y-77250
X115750Y-117250
X116000Y-64000
X116000Y-80500
X116000Y-81500
X116000Y-82500
X116000Y-83500
X116000Y-84500
X116000Y-85500
X116000Y-86500
X116000Y-87500
X116000Y-88500
X116000Y-89500
X116000Y-90500
X116000Y-95000
X116000Y-96000
X116000Y-97000
X116000Y-98000
X116000Y-120500
X116000Y-121500
X116000Y-122500
X116500Y-63000
X116500Y-77250
X116500Y-105250
X117000Y-80500
X117000Y-82500
X117000Y-95000
X117000Y-96000
X117000Y-120500
X117000Y-121500
X117000Y-122500
X118000Y-80500
X118000Y-82500
X118500Y-111500
X118500Y-112500
X118500Y-113500
X119000Y-80500
X119000Y-81500
X119000Y-82500
X119500Y-51500
X119500Y-108500
X119500Y-112500
X119500Y-113500
X120500Y-51500
X120500Y-108500
X121000Y-69500
X121000Y-70500
X121000Y-71500
X121000Y-72500
X121000Y-73500
X121000Y-94000
X121000Y-95000
X121000Y-96000
X121500Y-51500
X121500Y-108500
X122000Y-93000
X122000Y-94000
X122000Y-95000
X122000Y-96000
X122500Y-51500
X122500Y-108500
X123500Y-51500
X123500Y-52500
X123500Y-53500
X123500Y-54500
X123500Y-55500
X123500Y-56500
X123500Y-57500
X123500Y-58500
X123500Y-59500
X123500Y-60500
X123500Y-61500
X123500Y-69500
X123500Y-70500
X123500Y-71500
X123500Y-72500
X123500Y-73500
X123500Y-74500
X123500Y-75500
X123500Y-76500
X123500Y-77500
X123500Y-78500
X123500Y-82000
X123500Y-83000
X123500Y-84000
X123500Y-85000
X123500Y-102000
X123500Y-103000
X123500Y-104000
X123500Y-105000
X123500Y-106000
X123500Y-107000
X123500Y-108000
X123500Y-109000
X123500Y-114500
X123500Y-115500
X123500Y-118000
X123500Y-119000
X123500Y-120000
X123500Y-122500
T2
X89500Y-56250
X89500Y-57500
X93000Y-52250
X94000Y-52250
X95250Y-52250
X119250Y-59250
X119250Y-75250
X119250Y-76500
T3
X61340Y-52409
X63880Y-52409
X63880Y-82000
X66420Y-52409
X66420Y-82000
X68960Y-52409
X68960Y-82000
X71500Y-52409
X71500Y-82000
T4
X122000Y-117000
X122000Y-121500
T5
X80000Y-107150
X80000Y-109690
X80000Y-112230
X80000Y-114770
X80000Y-117310
X80000Y-119850
X100000Y-112500
X100000Y-115040
X100000Y-117580
X100000Y-120120
X60000Y-102110
X60000Y-104650
X60000Y-107190
X60000Y-109730
X60000Y-112270
X60000Y-114810
X60000Y-117350
X60000Y-119890
X86380Y-110750
X88920Y-110750
X91460Y-110750
X94000Y-110750
X80670Y-81000
X83210Y-81000
X85750Y-81000
X97500Y-106750
X100040Y-106750
X119250Y-106750
X121790Y-106750
X101000Y-72960
X101000Y-75500
X103540Y-72960
X103540Y-75500
X106080Y-72960
X106080Y-75500
X108620Y-72960
X108620Y-75500
X111160Y-72960
X111160Y-75500
X113700Y-72960
X113700Y-75500
X116240Y-72960
X116240Y-75500
T6
X101260Y-68000
X106340Y-68000
X111420Y-68000
X116500Y-68000
T7
X119510Y-115750
X119510Y-122760
T8
X56750Y-91300
X56750Y-95700
T9
X52500Y-67000
X87500Y-118000
X122500Y-67000
T0
M30
