G04 #@! TF.GenerationSoftware,KiCad,Pcbnew,5.0.0-rc1-44a33f2~62~ubuntu16.04.1*
G04 #@! TF.CreationDate,2018-04-01T18:26:25+03:00*
G04 #@! TF.ProjectId,ParaboxAirQuality,50617261626F784169725175616C6974,rev?*
G04 #@! TF.SameCoordinates,Original*
G04 #@! TF.FileFunction,Soldermask,Bot*
G04 #@! TF.FilePolarity,Negative*
%FSLAX46Y46*%
G04 Gerber Fmt 4.6, Leading zero omitted, Abs format (unit mm)*
G04 Created by KiCad (PCBNEW 5.0.0-rc1-44a33f2~62~ubuntu16.04.1) date Sun Apr  1 18:26:25 2018*
%MOMM*%
%LPD*%
G01*
G04 APERTURE LIST*
%ADD10R,1.705560X1.705560*%
%ADD11C,1.705560*%
%ADD12C,3.100000*%
%ADD13R,1.545000X1.900000*%
%ADD14R,1.900000X1.545000*%
%ADD15C,1.300000*%
%ADD16R,2.200000X4.000000*%
%ADD17O,2.200000X4.000000*%
%ADD18R,2.100000X2.100000*%
%ADD19O,2.100000X2.100000*%
%ADD20O,2.900000X2.200000*%
%ADD21C,2.500000*%
%ADD22C,2.150000*%
%ADD23R,1.050000X2.100000*%
%ADD24R,1.000000X1.950000*%
G04 APERTURE END LIST*
D10*
X71500000Y-52409000D03*
D11*
X68960000Y-52409000D03*
X66420000Y-52409000D03*
X63880000Y-52409000D03*
X61340000Y-52409000D03*
X71500000Y-82000000D03*
X68960000Y-82000000D03*
X66420000Y-82000000D03*
X63880000Y-82000000D03*
D12*
X52500000Y-67000000D03*
X122500000Y-67000000D03*
X87500000Y-118000000D03*
D13*
X122792500Y-87250000D03*
X120707500Y-87250000D03*
D14*
X117250000Y-58707500D03*
X117250000Y-60792500D03*
D15*
X56750000Y-91300000D03*
X56750000Y-95700000D03*
D16*
X116500000Y-68000000D03*
D17*
X111420000Y-68000000D03*
X106340000Y-68000000D03*
X101260000Y-68000000D03*
D18*
X94000000Y-110750000D03*
D19*
X91460000Y-110750000D03*
X88920000Y-110750000D03*
X86380000Y-110750000D03*
D18*
X85750000Y-81000000D03*
D19*
X83210000Y-81000000D03*
X80670000Y-81000000D03*
X100040000Y-106750000D03*
D18*
X97500000Y-106750000D03*
D19*
X100000000Y-120120000D03*
X100000000Y-117580000D03*
X100000000Y-115040000D03*
D18*
X100000000Y-112500000D03*
X119250000Y-106750000D03*
D19*
X121790000Y-106750000D03*
D18*
X101000000Y-75500000D03*
D19*
X101000000Y-72960000D03*
X103540000Y-75500000D03*
X103540000Y-72960000D03*
X106080000Y-75500000D03*
X106080000Y-72960000D03*
X108620000Y-75500000D03*
X108620000Y-72960000D03*
X111160000Y-75500000D03*
X111160000Y-72960000D03*
X113700000Y-75500000D03*
X113700000Y-72960000D03*
X116240000Y-75500000D03*
X116240000Y-72960000D03*
D14*
X118000000Y-87292500D03*
X118000000Y-85207500D03*
D13*
X104792500Y-64500000D03*
X102707500Y-64500000D03*
D20*
X60000000Y-102110000D03*
X60000000Y-104650000D03*
X60000000Y-107190000D03*
X60000000Y-109730000D03*
X60000000Y-112270000D03*
X60000000Y-114810000D03*
X60000000Y-117350000D03*
X60000000Y-119890000D03*
X80000000Y-119850000D03*
X80000000Y-117310000D03*
X80000000Y-114770000D03*
X80000000Y-112230000D03*
X80000000Y-109690000D03*
X80000000Y-107150000D03*
D21*
X119510000Y-122760000D03*
D22*
X122000000Y-121500000D03*
X122000000Y-117000000D03*
D21*
X119510000Y-115750000D03*
D23*
X118095000Y-90850000D03*
X119365000Y-90850000D03*
X120635000Y-90850000D03*
X121905000Y-90850000D03*
X121905000Y-98150000D03*
X120635000Y-98150000D03*
X119365000Y-98150000D03*
X118095000Y-98150000D03*
D24*
X110345000Y-55300000D03*
X111615000Y-55300000D03*
X112885000Y-55300000D03*
X114155000Y-55300000D03*
X114155000Y-60700000D03*
X112885000Y-60700000D03*
X111615000Y-60700000D03*
X110345000Y-60700000D03*
M02*
