G04 #@! TF.GenerationSoftware,KiCad,Pcbnew,5.0.0-rc1-44a33f2~62~ubuntu16.04.1*
G04 #@! TF.CreationDate,2018-04-01T18:26:25+03:00*
G04 #@! TF.ProjectId,ParaboxAirQuality,50617261626F784169725175616C6974,rev?*
G04 #@! TF.SameCoordinates,Original*
G04 #@! TF.FileFunction,Copper,L2,Bot,Signal*
G04 #@! TF.FilePolarity,Positive*
%FSLAX46Y46*%
G04 Gerber Fmt 4.6, Leading zero omitted, Abs format (unit mm)*
G04 Created by KiCad (PCBNEW 5.0.0-rc1-44a33f2~62~ubuntu16.04.1) date Sun Apr  1 18:26:25 2018*
%MOMM*%
%LPD*%
G01*
G04 APERTURE LIST*
%ADD10R,1.305560X1.305560*%
%ADD11C,1.305560*%
%ADD12R,1.145000X1.500000*%
%ADD13R,1.500000X1.145000*%
%ADD14R,1.800000X3.600000*%
%ADD15O,1.800000X3.600000*%
%ADD16R,1.700000X1.700000*%
%ADD17O,1.700000X1.700000*%
%ADD18O,2.500000X1.800000*%
%ADD19C,2.100000*%
%ADD20C,1.750000*%
%ADD21R,0.650000X1.700000*%
%ADD22R,0.600000X1.550000*%
%ADD23C,0.600000*%
%ADD24C,0.900000*%
%ADD25C,0.250000*%
%ADD26C,0.500000*%
%ADD27C,1.000000*%
%ADD28C,0.254000*%
G04 APERTURE END LIST*
D10*
X71500000Y-52409000D03*
D11*
X68960000Y-52409000D03*
X66420000Y-52409000D03*
X63880000Y-52409000D03*
X61340000Y-52409000D03*
X71500000Y-82000000D03*
X68960000Y-82000000D03*
X66420000Y-82000000D03*
X63880000Y-82000000D03*
D12*
X122792500Y-87250000D03*
X120707500Y-87250000D03*
D13*
X117250000Y-58707500D03*
X117250000Y-60792500D03*
D14*
X116500000Y-68000000D03*
D15*
X111420000Y-68000000D03*
X106340000Y-68000000D03*
X101260000Y-68000000D03*
D16*
X94000000Y-110750000D03*
D17*
X91460000Y-110750000D03*
X88920000Y-110750000D03*
X86380000Y-110750000D03*
D16*
X85750000Y-81000000D03*
D17*
X83210000Y-81000000D03*
X80670000Y-81000000D03*
X100040000Y-106750000D03*
D16*
X97500000Y-106750000D03*
D17*
X100000000Y-120120000D03*
X100000000Y-117580000D03*
X100000000Y-115040000D03*
D16*
X100000000Y-112500000D03*
X119250000Y-106750000D03*
D17*
X121790000Y-106750000D03*
D16*
X101000000Y-75500000D03*
D17*
X101000000Y-72960000D03*
X103540000Y-75500000D03*
X103540000Y-72960000D03*
X106080000Y-75500000D03*
X106080000Y-72960000D03*
X108620000Y-75500000D03*
X108620000Y-72960000D03*
X111160000Y-75500000D03*
X111160000Y-72960000D03*
X113700000Y-75500000D03*
X113700000Y-72960000D03*
X116240000Y-75500000D03*
X116240000Y-72960000D03*
D13*
X118000000Y-87292500D03*
X118000000Y-85207500D03*
D12*
X104792500Y-64500000D03*
X102707500Y-64500000D03*
D18*
X60000000Y-102110000D03*
X60000000Y-104650000D03*
X60000000Y-107190000D03*
X60000000Y-109730000D03*
X60000000Y-112270000D03*
X60000000Y-114810000D03*
X60000000Y-117350000D03*
X60000000Y-119890000D03*
X80000000Y-119850000D03*
X80000000Y-117310000D03*
X80000000Y-114770000D03*
X80000000Y-112230000D03*
X80000000Y-109690000D03*
X80000000Y-107150000D03*
D19*
X119510000Y-122760000D03*
D20*
X122000000Y-121500000D03*
X122000000Y-117000000D03*
D19*
X119510000Y-115750000D03*
D21*
X118095000Y-90850000D03*
X119365000Y-90850000D03*
X120635000Y-90850000D03*
X121905000Y-90850000D03*
X121905000Y-98150000D03*
X120635000Y-98150000D03*
X119365000Y-98150000D03*
X118095000Y-98150000D03*
D22*
X110345000Y-55300000D03*
X111615000Y-55300000D03*
X112885000Y-55300000D03*
X114155000Y-55300000D03*
X114155000Y-60700000D03*
X112885000Y-60700000D03*
X111615000Y-60700000D03*
X110345000Y-60700000D03*
D23*
X103500000Y-55500000D03*
X104500000Y-55500000D03*
X105500000Y-55500000D03*
X106500000Y-55500000D03*
X107500000Y-55500000D03*
X108500000Y-55500000D03*
X88500000Y-83500000D03*
X87500000Y-83500000D03*
X86500000Y-83500000D03*
X85500000Y-83500000D03*
X78500000Y-80500000D03*
X78000000Y-80000000D03*
X72000000Y-73500000D03*
X73000000Y-74500000D03*
X74000000Y-75500000D03*
X75000000Y-76500000D03*
X64000000Y-77000000D03*
X60000000Y-81000000D03*
X63000000Y-77000000D03*
X62000000Y-77000000D03*
X61000000Y-77000000D03*
X60000000Y-77000000D03*
X60000000Y-78000000D03*
X60000000Y-79000000D03*
X60000000Y-80000000D03*
X67500000Y-122500000D03*
X68500000Y-122500000D03*
X69500000Y-122500000D03*
X70500000Y-122500000D03*
X71500000Y-122500000D03*
X72500000Y-122500000D03*
X73500000Y-122500000D03*
X74500000Y-122500000D03*
X75500000Y-122500000D03*
X76500000Y-122500000D03*
X67500000Y-113500000D03*
X68500000Y-113500000D03*
X69500000Y-113500000D03*
X70500000Y-113500000D03*
X71500000Y-113500000D03*
X72500000Y-113500000D03*
X73500000Y-113500000D03*
X74500000Y-113500000D03*
X75500000Y-113500000D03*
X76500000Y-113500000D03*
X76500000Y-106000000D03*
X75500000Y-106000000D03*
X74500000Y-106000000D03*
X73500000Y-106000000D03*
X72500000Y-106000000D03*
X71500000Y-106000000D03*
X70500000Y-106000000D03*
X84500000Y-113000000D03*
X84500000Y-112000000D03*
X84500000Y-111000000D03*
X83500000Y-111000000D03*
X83500000Y-112000000D03*
X83500000Y-113000000D03*
X93000000Y-119500000D03*
X93000000Y-120500000D03*
X92000000Y-120500000D03*
X92000000Y-119500000D03*
X91000000Y-119500000D03*
X91000000Y-120500000D03*
X90000000Y-120500000D03*
X90000000Y-119500000D03*
X96000000Y-115000000D03*
X95000000Y-115000000D03*
X94000000Y-115000000D03*
X93000000Y-115000000D03*
X92000000Y-115000000D03*
X91000000Y-115000000D03*
X90000000Y-115000000D03*
X90000000Y-114000000D03*
X91000000Y-114000000D03*
X92000000Y-114000000D03*
X93000000Y-114000000D03*
X94000000Y-114000000D03*
X95000000Y-114000000D03*
X96000000Y-114000000D03*
X96000000Y-113000000D03*
X95000000Y-113000000D03*
X94000000Y-113000000D03*
X93000000Y-113000000D03*
X92000000Y-113000000D03*
X91000000Y-113000000D03*
X90000000Y-113000000D03*
X89000000Y-113000000D03*
X88000000Y-113000000D03*
X87000000Y-113000000D03*
X86000000Y-113000000D03*
X116000000Y-121500000D03*
X116000000Y-120500000D03*
X117000000Y-120500000D03*
X117000000Y-121500000D03*
X105000000Y-121500000D03*
X104000000Y-121500000D03*
X103000000Y-121500000D03*
X102000000Y-122500000D03*
X103000000Y-122500000D03*
X104000000Y-122500000D03*
X105000000Y-122500000D03*
X106000000Y-122500000D03*
X107000000Y-122500000D03*
X108000000Y-122500000D03*
X109000000Y-122500000D03*
X110000000Y-122500000D03*
X111000000Y-122500000D03*
X112000000Y-122500000D03*
X113000000Y-122500000D03*
X114000000Y-122500000D03*
X115000000Y-122500000D03*
X116000000Y-122500000D03*
X117000000Y-122500000D03*
X51500000Y-104000000D03*
X51500000Y-103000000D03*
X51500000Y-102000000D03*
X51500000Y-101000000D03*
X61500000Y-122500000D03*
X60500000Y-122500000D03*
X59500000Y-122500000D03*
X58500000Y-122500000D03*
X57500000Y-122500000D03*
X56500000Y-122500000D03*
X55500000Y-122500000D03*
X54500000Y-122500000D03*
X53500000Y-122500000D03*
X52500000Y-122500000D03*
X51500000Y-113500000D03*
X51500000Y-114500000D03*
X51500000Y-115500000D03*
X51500000Y-116500000D03*
X51500000Y-117500000D03*
X51500000Y-118500000D03*
X51500000Y-119500000D03*
X51500000Y-120500000D03*
X51500000Y-121500000D03*
X51500000Y-122500000D03*
X63000000Y-105000000D03*
X64000000Y-105000000D03*
X65000000Y-105000000D03*
X66000000Y-105000000D03*
X67000000Y-105000000D03*
X68000000Y-104000000D03*
X67000000Y-104000000D03*
X66000000Y-104000000D03*
X65000000Y-104000000D03*
X64000000Y-104000000D03*
X63000000Y-104000000D03*
X79000000Y-101500000D03*
X78000000Y-101500000D03*
X77000000Y-101500000D03*
X76000000Y-101500000D03*
X75000000Y-101500000D03*
X74000000Y-101500000D03*
X73000000Y-101500000D03*
X72000000Y-101500000D03*
X71000000Y-101500000D03*
X71000000Y-102500000D03*
X72000000Y-102500000D03*
X73000000Y-102500000D03*
X74000000Y-102500000D03*
X75000000Y-102500000D03*
X76000000Y-102500000D03*
X77000000Y-102500000D03*
X78000000Y-102500000D03*
X79000000Y-102500000D03*
X80000000Y-102500000D03*
X80000000Y-101500000D03*
X94500000Y-105500000D03*
X94500000Y-104500000D03*
X93500000Y-104500000D03*
X92500000Y-103500000D03*
X93500000Y-103500000D03*
X94500000Y-103500000D03*
X94500000Y-102500000D03*
X93500000Y-102500000D03*
X92500000Y-102500000D03*
X91500000Y-102500000D03*
X90500000Y-101500000D03*
X91500000Y-101500000D03*
X91500000Y-100500000D03*
X90500000Y-100500000D03*
X89500000Y-100500000D03*
X89500000Y-99500000D03*
X90500000Y-99500000D03*
X91500000Y-99500000D03*
X101500000Y-110500000D03*
X101500000Y-109500000D03*
X102500000Y-109500000D03*
X102500000Y-110500000D03*
X103500000Y-110500000D03*
X103500000Y-109500000D03*
X104500000Y-109500000D03*
X104500000Y-110500000D03*
X104500000Y-111500000D03*
X105500000Y-111500000D03*
X105500000Y-110500000D03*
X105500000Y-109500000D03*
X114500000Y-107000000D03*
X113500000Y-107000000D03*
X112500000Y-107000000D03*
X111500000Y-107000000D03*
X110500000Y-107000000D03*
X114500000Y-106000000D03*
X113500000Y-106000000D03*
X112500000Y-106000000D03*
X111500000Y-106000000D03*
X110500000Y-106000000D03*
X109500000Y-106000000D03*
X108500000Y-106000000D03*
X107500000Y-106000000D03*
X106500000Y-106000000D03*
X105500000Y-106000000D03*
X104500000Y-106000000D03*
X119500000Y-108500000D03*
X120500000Y-108500000D03*
X121500000Y-108500000D03*
X122500000Y-108500000D03*
X123500000Y-102000000D03*
X123500000Y-103000000D03*
X123500000Y-104000000D03*
X123500000Y-105000000D03*
X123500000Y-106000000D03*
X123500000Y-107000000D03*
X123500000Y-108000000D03*
X123500000Y-109000000D03*
X123500000Y-114500000D03*
X123500000Y-115500000D03*
X123500000Y-118000000D03*
X123500000Y-119000000D03*
X123500000Y-120000000D03*
X123500000Y-122500000D03*
X118500000Y-111500000D03*
X118500000Y-112500000D03*
X119500000Y-112500000D03*
X119500000Y-113500000D03*
X118500000Y-113500000D03*
X113750000Y-117250000D03*
X114750000Y-117250000D03*
X115750000Y-117250000D03*
X113500000Y-111500000D03*
X114500000Y-111500000D03*
X115500000Y-111500000D03*
X121000000Y-94000000D03*
X122000000Y-93000000D03*
X122000000Y-94000000D03*
X121000000Y-96000000D03*
X122000000Y-96000000D03*
X122000000Y-95000000D03*
X121000000Y-95000000D03*
X116000000Y-97000000D03*
X116000000Y-98000000D03*
X115000000Y-98000000D03*
X115000000Y-97000000D03*
X115000000Y-96000000D03*
X116000000Y-96000000D03*
X117000000Y-96000000D03*
X117000000Y-95000000D03*
X116000000Y-95000000D03*
X115000000Y-95000000D03*
X108000000Y-97000000D03*
X109000000Y-97000000D03*
X110000000Y-97000000D03*
X110000000Y-96000000D03*
X109000000Y-96000000D03*
X123500000Y-82000000D03*
X123500000Y-83000000D03*
X123500000Y-84000000D03*
X123500000Y-85000000D03*
X119000000Y-81500000D03*
X119000000Y-82500000D03*
X118000000Y-82500000D03*
X117000000Y-82500000D03*
X116000000Y-81500000D03*
X116000000Y-82500000D03*
X116000000Y-83500000D03*
X116000000Y-84500000D03*
X116000000Y-85500000D03*
X116000000Y-86500000D03*
X116000000Y-87500000D03*
X116000000Y-88500000D03*
X116000000Y-89500000D03*
X116000000Y-90500000D03*
X115000000Y-90500000D03*
X114000000Y-90500000D03*
X114000000Y-89500000D03*
X114000000Y-88500000D03*
X114000000Y-87500000D03*
X114000000Y-86500000D03*
X114000000Y-85500000D03*
X114000000Y-84500000D03*
X114000000Y-83500000D03*
X114000000Y-82500000D03*
X114000000Y-81500000D03*
X119000000Y-80500000D03*
X118000000Y-80500000D03*
X117000000Y-80500000D03*
X116000000Y-80500000D03*
X115000000Y-80500000D03*
X114000000Y-80500000D03*
X102000000Y-95500000D03*
X101000000Y-95500000D03*
X100000000Y-95500000D03*
X99000000Y-95500000D03*
X103000000Y-94500000D03*
X102000000Y-94500000D03*
X101000000Y-94500000D03*
X100000000Y-94500000D03*
X99000000Y-94500000D03*
X98000000Y-84000000D03*
X99000000Y-84000000D03*
X99000000Y-83000000D03*
X98000000Y-83000000D03*
X104000000Y-90000000D03*
X105000000Y-89000000D03*
X106000000Y-88000000D03*
X106000000Y-87000000D03*
X103000000Y-91000000D03*
X102000000Y-91000000D03*
X101000000Y-91000000D03*
X100000000Y-91000000D03*
X99000000Y-91000000D03*
X98000000Y-91000000D03*
X98000000Y-90000000D03*
X98000000Y-89000000D03*
X98000000Y-88000000D03*
X98000000Y-87000000D03*
X106000000Y-86000000D03*
X105000000Y-86000000D03*
X104000000Y-86000000D03*
X103000000Y-86000000D03*
X102000000Y-86000000D03*
X101000000Y-86000000D03*
X100000000Y-86000000D03*
X99000000Y-86000000D03*
X98000000Y-86000000D03*
X121000000Y-73500000D03*
X121000000Y-72500000D03*
X121000000Y-71500000D03*
X121000000Y-70500000D03*
X121000000Y-69500000D03*
X123500000Y-78500000D03*
X123500000Y-77500000D03*
X123500000Y-76500000D03*
X123500000Y-75500000D03*
X123500000Y-74500000D03*
X123500000Y-73500000D03*
X123500000Y-72500000D03*
X123500000Y-71500000D03*
X123500000Y-70500000D03*
X123500000Y-69500000D03*
X114250000Y-77750000D03*
X116500000Y-77250000D03*
X115750000Y-77250000D03*
X115000000Y-77250000D03*
X114000000Y-69500000D03*
X114000000Y-68500000D03*
X114000000Y-67500000D03*
X114000000Y-66500000D03*
X109000000Y-69500000D03*
X109000000Y-68500000D03*
X109000000Y-67500000D03*
X109000000Y-66500000D03*
X123500000Y-61500000D03*
X123500000Y-60500000D03*
X123500000Y-59500000D03*
X123500000Y-58500000D03*
X123500000Y-57500000D03*
X123500000Y-56500000D03*
X123500000Y-55500000D03*
X123500000Y-54500000D03*
X123500000Y-53500000D03*
X123500000Y-52500000D03*
X119500000Y-51500000D03*
X120500000Y-51500000D03*
X121500000Y-51500000D03*
X122500000Y-51500000D03*
X123500000Y-51500000D03*
X115500000Y-65000000D03*
X114500000Y-65000000D03*
X113500000Y-65000000D03*
X116000000Y-64000000D03*
X115000000Y-64000000D03*
X114000000Y-64000000D03*
X116500000Y-63000000D03*
X115500000Y-63000000D03*
X114500000Y-63000000D03*
X108500000Y-60000000D03*
X107500000Y-60000000D03*
X106500000Y-60000000D03*
X105500000Y-60000000D03*
X104500000Y-60000000D03*
X103500000Y-60000000D03*
X102500000Y-60000000D03*
X101500000Y-60000000D03*
X101500000Y-59000000D03*
X102500000Y-59000000D03*
X103500000Y-59000000D03*
X104500000Y-59000000D03*
X105500000Y-59000000D03*
X106500000Y-59000000D03*
X107500000Y-59000000D03*
X108500000Y-59000000D03*
X88500000Y-84500000D03*
X87500000Y-84500000D03*
X86500000Y-84500000D03*
X85500000Y-84500000D03*
X84500000Y-84500000D03*
X91500000Y-82000000D03*
X90500000Y-82000000D03*
X89500000Y-82000000D03*
X88500000Y-82000000D03*
X88500000Y-81000000D03*
X89500000Y-81000000D03*
X90500000Y-81000000D03*
X91500000Y-81000000D03*
X91500000Y-80000000D03*
X90500000Y-80000000D03*
X89500000Y-80000000D03*
X88500000Y-80000000D03*
X78000000Y-70500000D03*
X78000000Y-71500000D03*
X78000000Y-72500000D03*
X78000000Y-73500000D03*
X78000000Y-74500000D03*
X78000000Y-75500000D03*
X79000000Y-76500000D03*
X80000000Y-77500000D03*
X81000000Y-77500000D03*
X82000000Y-77500000D03*
X83000000Y-77500000D03*
X84000000Y-77500000D03*
X84000000Y-76500000D03*
X84000000Y-75500000D03*
X84000000Y-74500000D03*
X84000000Y-73500000D03*
X84000000Y-72500000D03*
X84000000Y-71500000D03*
X84000000Y-70500000D03*
X84000000Y-69500000D03*
X83000000Y-69500000D03*
X82000000Y-69500000D03*
X81000000Y-69500000D03*
X80000000Y-69500000D03*
X79000000Y-69500000D03*
X78000000Y-69500000D03*
X69500000Y-86000000D03*
X69500000Y-85000000D03*
X68500000Y-85000000D03*
X67500000Y-84000000D03*
X68500000Y-84000000D03*
X69500000Y-84000000D03*
X70500000Y-84000000D03*
X70500000Y-85000000D03*
X70500000Y-86000000D03*
X79500000Y-86250000D03*
X78500000Y-86250000D03*
X77500000Y-86250000D03*
X76500000Y-86250000D03*
X78500000Y-85500000D03*
X77500000Y-85500000D03*
X76500000Y-85500000D03*
X75500000Y-82000000D03*
X74500000Y-81000000D03*
X73500000Y-80000000D03*
X72500000Y-80000000D03*
X73500000Y-81000000D03*
X74500000Y-82000000D03*
X67000000Y-55000000D03*
X67000000Y-56000000D03*
X67000000Y-57000000D03*
X67000000Y-58000000D03*
X67000000Y-59000000D03*
X67000000Y-60000000D03*
X67000000Y-61000000D03*
X67000000Y-62000000D03*
X67000000Y-63000000D03*
X67000000Y-64000000D03*
X67000000Y-65000000D03*
X67000000Y-66000000D03*
X67000000Y-67000000D03*
X67000000Y-68000000D03*
X67000000Y-69000000D03*
X67000000Y-70000000D03*
X67000000Y-71000000D03*
X67000000Y-72000000D03*
X70500000Y-55000000D03*
X70500000Y-56000000D03*
X70500000Y-57000000D03*
X70500000Y-58000000D03*
X70500000Y-59000000D03*
X70500000Y-60000000D03*
X70500000Y-61000000D03*
X70500000Y-62000000D03*
X70500000Y-63000000D03*
X70500000Y-64000000D03*
X70500000Y-65000000D03*
X70500000Y-66000000D03*
X70500000Y-67000000D03*
X70500000Y-68000000D03*
X70500000Y-69000000D03*
X70500000Y-70000000D03*
X70500000Y-71000000D03*
X70500000Y-72000000D03*
X73500000Y-53000000D03*
X74500000Y-53000000D03*
X75500000Y-53000000D03*
X75500000Y-52000000D03*
X74500000Y-52000000D03*
X73500000Y-52000000D03*
X95500000Y-56000000D03*
X94500000Y-61000000D03*
X94500000Y-60000000D03*
X94500000Y-59000000D03*
X94500000Y-58000000D03*
X94500000Y-57000000D03*
X94500000Y-56000000D03*
X96500000Y-55000000D03*
X95500000Y-55000000D03*
X94500000Y-55000000D03*
X98500000Y-54000000D03*
X97500000Y-54000000D03*
X96500000Y-54000000D03*
X95500000Y-54000000D03*
X94500000Y-54000000D03*
X93500000Y-54000000D03*
X92500000Y-54000000D03*
X82000000Y-59500000D03*
X89250000Y-67000000D03*
X89250000Y-67750000D03*
X90250000Y-67750000D03*
X90250000Y-67000000D03*
X90250000Y-66250000D03*
X89250000Y-66250000D03*
X91000000Y-59500000D03*
X90000000Y-59500000D03*
X89000000Y-59500000D03*
X88000000Y-61500000D03*
X89000000Y-61500000D03*
X90000000Y-61500000D03*
X91000000Y-61500000D03*
X91000000Y-60500000D03*
X90000000Y-60500000D03*
X89000000Y-60500000D03*
X88000000Y-60500000D03*
X84400000Y-61800000D03*
X85200000Y-61800000D03*
X86000000Y-61800000D03*
X86000000Y-60800000D03*
X85200000Y-60800000D03*
X84400000Y-60800000D03*
X82000000Y-62500000D03*
X81000000Y-62500000D03*
X80000000Y-62500000D03*
X79000000Y-62500000D03*
X79000000Y-61500000D03*
X80000000Y-61500000D03*
X81000000Y-61500000D03*
X82000000Y-61500000D03*
X82000000Y-60500000D03*
X81000000Y-60500000D03*
X80000000Y-60500000D03*
X79000000Y-60500000D03*
X52000000Y-86000000D03*
X52000000Y-85000000D03*
X52000000Y-84000000D03*
X52000000Y-83000000D03*
X52000000Y-82000000D03*
X52000000Y-81000000D03*
X52000000Y-80000000D03*
X52000000Y-79000000D03*
X52000000Y-78000000D03*
X52000000Y-77000000D03*
X52000000Y-76000000D03*
X52000000Y-75000000D03*
X52000000Y-73000000D03*
X52000000Y-74000000D03*
X52000000Y-72000000D03*
X52000000Y-71000000D03*
X52000000Y-70000000D03*
X58500000Y-51500000D03*
X57500000Y-51500000D03*
X56500000Y-51500000D03*
X55500000Y-51500000D03*
X54500000Y-51500000D03*
X53500000Y-51500000D03*
X52500000Y-51500000D03*
X51500000Y-64000000D03*
X51500000Y-63000000D03*
X51500000Y-62000000D03*
X51500000Y-61000000D03*
X51500000Y-60000000D03*
X51500000Y-59000000D03*
X51500000Y-58000000D03*
X51500000Y-57000000D03*
X51500000Y-56000000D03*
X51500000Y-55000000D03*
X51500000Y-54000000D03*
X51500000Y-52500000D03*
X51500000Y-51500000D03*
D24*
X119250000Y-75250000D03*
X119250000Y-76500000D03*
X119250000Y-59250000D03*
D23*
X95500000Y-86250000D03*
X66750000Y-89000000D03*
X87250000Y-86750000D03*
X82000000Y-85750000D03*
X97000000Y-96750000D03*
X97500000Y-101500000D03*
X98500000Y-102250000D03*
X102500000Y-102500000D03*
X113750000Y-93250000D03*
X113000000Y-92250000D03*
X67500000Y-99750000D03*
X87000000Y-90750000D03*
X94750000Y-87000000D03*
X66792500Y-88042500D03*
X89000000Y-95000000D03*
X89250000Y-96000000D03*
X89250000Y-87000000D03*
X111345000Y-117500000D03*
X109500000Y-117500000D03*
D24*
X94000000Y-52250000D03*
X93000000Y-52250000D03*
X95250000Y-52250000D03*
X89500000Y-56250000D03*
X89500000Y-57500000D03*
D23*
X94750000Y-93250000D03*
X102500000Y-84250000D03*
X104500000Y-83250000D03*
X104209070Y-78750000D03*
X103750000Y-96500000D03*
X108500000Y-93000000D03*
X112250000Y-93000000D03*
X111500000Y-83250000D03*
X111750000Y-57500000D03*
X102000000Y-54000000D03*
X112000000Y-53250000D03*
X93750000Y-84500000D03*
X83000000Y-104250000D03*
X94124999Y-91375001D03*
X116500000Y-105250000D03*
D25*
X120635000Y-90850000D02*
X120635000Y-91950000D01*
X119365000Y-93220000D02*
X119365000Y-97050000D01*
X119365000Y-97050000D02*
X119365000Y-98150000D01*
X120635000Y-91950000D02*
X119365000Y-93220000D01*
X118095000Y-98150000D02*
X119365000Y-98150000D01*
D26*
X119250000Y-76500000D02*
X119250000Y-75250000D01*
X120707500Y-87250000D02*
X120707500Y-77957500D01*
X120707500Y-77957500D02*
X119250000Y-76500000D01*
X117250000Y-58707500D02*
X118707500Y-58707500D01*
X118707500Y-58707500D02*
X119250000Y-59250000D01*
D25*
X95500000Y-87175002D02*
X95500000Y-86250000D01*
X66750000Y-89000000D02*
X93675002Y-89000000D01*
X93675002Y-89000000D02*
X95500000Y-87175002D01*
X81750000Y-86750000D02*
X87250000Y-86750000D01*
X68509990Y-73509990D02*
X81750000Y-86750000D01*
X66420000Y-52409000D02*
X68509990Y-54498990D01*
X68509990Y-54498990D02*
X68509990Y-73509990D01*
X68960000Y-72710000D02*
X82000000Y-85750000D01*
X68960000Y-52409000D02*
X68960000Y-72710000D01*
X100250000Y-100000000D02*
X97000000Y-96750000D01*
X119885000Y-100000000D02*
X100250000Y-100000000D01*
X120635000Y-98150000D02*
X120635000Y-99250000D01*
X120635000Y-99250000D02*
X119885000Y-100000000D01*
X119655000Y-101500000D02*
X97500000Y-101500000D01*
X121905000Y-98150000D02*
X121905000Y-99250000D01*
X121905000Y-99250000D02*
X119655000Y-101500000D01*
X98750000Y-102500000D02*
X98500000Y-102250000D01*
X102500000Y-102500000D02*
X98750000Y-102500000D01*
X117490000Y-93250000D02*
X113750000Y-93250000D01*
X119365000Y-90850000D02*
X119365000Y-91375000D01*
X119365000Y-91375000D02*
X117490000Y-93250000D01*
X117220000Y-92250000D02*
X113000000Y-92250000D01*
X118095000Y-90850000D02*
X118095000Y-91375000D01*
X118095000Y-91375000D02*
X117220000Y-92250000D01*
X67500000Y-92250000D02*
X67500000Y-99750000D01*
X69000000Y-90750000D02*
X67500000Y-92250000D01*
X87000000Y-90750000D02*
X69000000Y-90750000D01*
X93707500Y-88042500D02*
X94750000Y-87000000D01*
X66792500Y-88042500D02*
X93707500Y-88042500D01*
X89000000Y-95000000D02*
X86380000Y-97620000D01*
X86380000Y-97620000D02*
X86380000Y-110750000D01*
X89250000Y-96000000D02*
X87250000Y-98000000D01*
X87250000Y-98000000D02*
X87250000Y-109080000D01*
X87250000Y-109080000D02*
X88920000Y-110750000D01*
X88874999Y-87375001D02*
X89250000Y-87000000D01*
X63880000Y-82000000D02*
X63880000Y-82923170D01*
X63880000Y-82923170D02*
X68331831Y-87375001D01*
X68331831Y-87375001D02*
X88874999Y-87375001D01*
X69980000Y-112230000D02*
X67480000Y-109730000D01*
X67480000Y-109730000D02*
X60000000Y-109730000D01*
X80000000Y-112230000D02*
X69980000Y-112230000D01*
X77750000Y-121500000D02*
X78450010Y-122200010D01*
X97919990Y-122200010D02*
X99150001Y-120969999D01*
X78450010Y-122200010D02*
X97919990Y-122200010D01*
X99150001Y-120969999D02*
X100000000Y-120120000D01*
X77750000Y-112980000D02*
X77750000Y-121500000D01*
X80000000Y-112230000D02*
X78500000Y-112230000D01*
X78500000Y-112230000D02*
X77750000Y-112980000D01*
X102072081Y-119250000D02*
X109595000Y-119250000D01*
X109595000Y-119250000D02*
X111345000Y-117500000D01*
X100000000Y-120120000D02*
X101202081Y-120120000D01*
X101202081Y-120120000D02*
X102072081Y-119250000D01*
X60000000Y-107190000D02*
X75327595Y-107190000D01*
X80857415Y-111004990D02*
X81575010Y-111722585D01*
X75327595Y-107190000D02*
X79142585Y-111004990D01*
X79142585Y-111004990D02*
X80857415Y-111004990D01*
X81575010Y-111722585D02*
X81575010Y-113544990D01*
X81575010Y-113544990D02*
X80350000Y-114770000D01*
X80350000Y-114770000D02*
X80000000Y-114770000D01*
X93500000Y-121750000D02*
X97670000Y-117580000D01*
X97670000Y-117580000D02*
X100000000Y-117580000D01*
X85250000Y-121750000D02*
X93500000Y-121750000D01*
X84000000Y-120500000D02*
X85250000Y-121750000D01*
X84000000Y-117270000D02*
X84000000Y-120500000D01*
X80000000Y-114770000D02*
X81500000Y-114770000D01*
X81500000Y-114770000D02*
X84000000Y-117270000D01*
X109500000Y-117500000D02*
X100080000Y-117500000D01*
X100080000Y-117500000D02*
X100000000Y-117580000D01*
D26*
X93000000Y-52250000D02*
X94000000Y-52250000D01*
X114155000Y-60700000D02*
X117157500Y-60700000D01*
X117157500Y-60700000D02*
X117250000Y-60792500D01*
X120635000Y-90850000D02*
X120635000Y-87322500D01*
X120635000Y-87322500D02*
X120707500Y-87250000D01*
X110345000Y-60700000D02*
X110345000Y-59425000D01*
X111062500Y-58707500D02*
X116000000Y-58707500D01*
X110345000Y-59425000D02*
X111062500Y-58707500D01*
X116000000Y-58707500D02*
X117250000Y-58707500D01*
X118095000Y-90850000D02*
X118095000Y-87387500D01*
X118095000Y-87387500D02*
X118000000Y-87292500D01*
X95250000Y-52250000D02*
X93250000Y-52250000D01*
X117500000Y-52250000D02*
X95250000Y-52250000D01*
X89500000Y-55000000D02*
X89500000Y-56250000D01*
X89500000Y-56250000D02*
X89500000Y-57500000D01*
X92250000Y-52250000D02*
X89500000Y-55000000D01*
X93250000Y-52250000D02*
X92250000Y-52250000D01*
X120250000Y-55000000D02*
X117500000Y-52250000D01*
X120250000Y-61950000D02*
X120250000Y-55000000D01*
X116500000Y-68000000D02*
X116500000Y-65700000D01*
X116500000Y-65700000D02*
X120250000Y-61950000D01*
X98500000Y-71250000D02*
X96750000Y-73000000D01*
X113700000Y-72960000D02*
X113700000Y-71757919D01*
X113192081Y-71250000D02*
X98500000Y-71250000D01*
X113700000Y-71757919D02*
X113192081Y-71250000D01*
X96750000Y-73000000D02*
X96750000Y-76250000D01*
X96750000Y-76250000D02*
X94750000Y-78250000D01*
X94750000Y-78250000D02*
X85960000Y-78250000D01*
X85960000Y-78250000D02*
X83210000Y-81000000D01*
X112885000Y-60700000D02*
X112885000Y-61975000D01*
X105865000Y-64500000D02*
X104792500Y-64500000D01*
X112885000Y-61975000D02*
X110360000Y-64500000D01*
X110360000Y-64500000D02*
X105865000Y-64500000D01*
D27*
X104792500Y-64500000D02*
X104792500Y-66452500D01*
X104792500Y-66452500D02*
X106340000Y-68000000D01*
D25*
X94750000Y-100250000D02*
X94750000Y-93250000D01*
X98000000Y-103500000D02*
X94750000Y-100250000D01*
X117100000Y-103500000D02*
X98000000Y-103500000D01*
X119250000Y-106750000D02*
X119250000Y-105650000D01*
X119250000Y-105650000D02*
X117100000Y-103500000D01*
X101000000Y-82750000D02*
X102500000Y-84250000D01*
X101000000Y-75500000D02*
X101000000Y-82750000D01*
X103540000Y-82290000D02*
X104500000Y-83250000D01*
X103540000Y-75500000D02*
X103540000Y-82290000D01*
X106080000Y-75500000D02*
X106080000Y-76879070D01*
X106080000Y-76879070D02*
X104209070Y-78750000D01*
X107444999Y-92805001D02*
X103750000Y-96500000D01*
X106080000Y-72960000D02*
X107444999Y-74324999D01*
X107444999Y-74324999D02*
X107444999Y-92805001D01*
X109795001Y-91704999D02*
X108500000Y-93000000D01*
X108620000Y-72960000D02*
X109795001Y-74135001D01*
X109795001Y-74135001D02*
X109795001Y-91704999D01*
X112250000Y-93000000D02*
X112250000Y-92250000D01*
X110245011Y-90245011D02*
X112250000Y-92250000D01*
X111160000Y-75500000D02*
X110245011Y-76414989D01*
X110245011Y-76414989D02*
X110245011Y-90245011D01*
X112524999Y-74324999D02*
X112524999Y-81500000D01*
X111500000Y-83250000D02*
X111799999Y-82950001D01*
X111799999Y-82950001D02*
X111799999Y-82225000D01*
X111799999Y-82225000D02*
X112524999Y-81500000D01*
X111160000Y-72960000D02*
X112524999Y-74324999D01*
X113500000Y-57500000D02*
X114155000Y-56845000D01*
X114155000Y-56845000D02*
X114155000Y-55300000D01*
X111750000Y-57500000D02*
X113500000Y-57500000D01*
X102000000Y-54000000D02*
X109520000Y-54000000D01*
X110345000Y-54825000D02*
X110345000Y-55300000D01*
X109520000Y-54000000D02*
X110345000Y-54825000D01*
X112000000Y-53250000D02*
X112885000Y-54135000D01*
X112885000Y-54135000D02*
X112885000Y-55300000D01*
D26*
X112885000Y-55300000D02*
X111615000Y-55300000D01*
D25*
X95500002Y-84500000D02*
X93750000Y-84500000D01*
X96125001Y-85124999D02*
X95500002Y-84500000D01*
X94049990Y-89450010D02*
X96125001Y-87374999D01*
X96125001Y-87374999D02*
X96125001Y-85124999D01*
X85929990Y-93820010D02*
X90299990Y-89450010D01*
X90299990Y-89450010D02*
X94049990Y-89450010D01*
X83000000Y-104250000D02*
X85929990Y-101320010D01*
X85929990Y-101320010D02*
X85929990Y-93820010D01*
X116500000Y-105250000D02*
X116200001Y-104950001D01*
X116200001Y-104950001D02*
X98813591Y-104950001D01*
X98813591Y-104950001D02*
X94124999Y-100261409D01*
X94124999Y-100261409D02*
X94124999Y-91375001D01*
D26*
X103000000Y-62500000D02*
X102707500Y-62792500D01*
X102707500Y-62792500D02*
X102707500Y-64500000D01*
X111090000Y-62500000D02*
X103000000Y-62500000D01*
X111615000Y-60700000D02*
X111615000Y-61975000D01*
X111615000Y-61975000D02*
X111090000Y-62500000D01*
D27*
X102707500Y-64500000D02*
X102707500Y-66552500D01*
X102707500Y-66552500D02*
X101260000Y-68000000D01*
D28*
G36*
X124290000Y-66134389D02*
X124182801Y-65875588D01*
X123624412Y-65317199D01*
X122894841Y-65015000D01*
X122105159Y-65015000D01*
X121375588Y-65317199D01*
X120817199Y-65875588D01*
X120515000Y-66605159D01*
X120515000Y-67394841D01*
X120817199Y-68124412D01*
X121375588Y-68682801D01*
X122105159Y-68985000D01*
X122894841Y-68985000D01*
X123624412Y-68682801D01*
X124182801Y-68124412D01*
X124290000Y-67865611D01*
X124290001Y-123290000D01*
X121114298Y-123290000D01*
X121195000Y-123095167D01*
X121195000Y-122800970D01*
X121699642Y-123010000D01*
X122300358Y-123010000D01*
X122855346Y-122780116D01*
X123280116Y-122355346D01*
X123510000Y-121800358D01*
X123510000Y-121199642D01*
X123280116Y-120644654D01*
X122855346Y-120219884D01*
X122300358Y-119990000D01*
X121699642Y-119990000D01*
X121144654Y-120219884D01*
X120719884Y-120644654D01*
X120490000Y-121199642D01*
X120490000Y-121357050D01*
X120464476Y-121331526D01*
X119845167Y-121075000D01*
X119174833Y-121075000D01*
X118555524Y-121331526D01*
X118081526Y-121805524D01*
X117825000Y-122424833D01*
X117825000Y-123095167D01*
X117905702Y-123290000D01*
X50710000Y-123290000D01*
X50710000Y-107190000D01*
X58084928Y-107190000D01*
X58204062Y-107788927D01*
X58543327Y-108296673D01*
X58787763Y-108460000D01*
X58543327Y-108623327D01*
X58204062Y-109131073D01*
X58084928Y-109730000D01*
X58204062Y-110328927D01*
X58543327Y-110836673D01*
X58787763Y-111000000D01*
X58543327Y-111163327D01*
X58204062Y-111671073D01*
X58084928Y-112270000D01*
X58204062Y-112868927D01*
X58543327Y-113376673D01*
X58787763Y-113540000D01*
X58543327Y-113703327D01*
X58204062Y-114211073D01*
X58084928Y-114810000D01*
X58204062Y-115408927D01*
X58543327Y-115916673D01*
X58787763Y-116080000D01*
X58543327Y-116243327D01*
X58204062Y-116751073D01*
X58084928Y-117350000D01*
X58204062Y-117948927D01*
X58543327Y-118456673D01*
X58787763Y-118620000D01*
X58543327Y-118783327D01*
X58204062Y-119291073D01*
X58084928Y-119890000D01*
X58204062Y-120488927D01*
X58543327Y-120996673D01*
X59051073Y-121335938D01*
X59498818Y-121425000D01*
X60501182Y-121425000D01*
X60948927Y-121335938D01*
X61456673Y-120996673D01*
X61795938Y-120488927D01*
X61915072Y-119890000D01*
X61795938Y-119291073D01*
X61456673Y-118783327D01*
X61212237Y-118620000D01*
X61456673Y-118456673D01*
X61795938Y-117948927D01*
X61915072Y-117350000D01*
X61795938Y-116751073D01*
X61456673Y-116243327D01*
X61212237Y-116080000D01*
X61456673Y-115916673D01*
X61795938Y-115408927D01*
X61915072Y-114810000D01*
X61795938Y-114211073D01*
X61456673Y-113703327D01*
X61212237Y-113540000D01*
X61456673Y-113376673D01*
X61795938Y-112868927D01*
X61915072Y-112270000D01*
X61795938Y-111671073D01*
X61456673Y-111163327D01*
X61212237Y-111000000D01*
X61456673Y-110836673D01*
X61688312Y-110490000D01*
X67165199Y-110490000D01*
X69389671Y-112714473D01*
X69432071Y-112777929D01*
X69683463Y-112945904D01*
X69905148Y-112990000D01*
X69905153Y-112990000D01*
X69980000Y-113004888D01*
X70054847Y-112990000D01*
X76977101Y-112990000D01*
X76990000Y-113054847D01*
X76990001Y-121425148D01*
X76975112Y-121500000D01*
X76990001Y-121574852D01*
X77034097Y-121796537D01*
X77202072Y-122047929D01*
X77265528Y-122090329D01*
X77859681Y-122684483D01*
X77902081Y-122747939D01*
X78153473Y-122915914D01*
X78375158Y-122960010D01*
X78375162Y-122960010D01*
X78450010Y-122974898D01*
X78524858Y-122960010D01*
X97845143Y-122960010D01*
X97919990Y-122974898D01*
X97994837Y-122960010D01*
X97994842Y-122960010D01*
X98216527Y-122915914D01*
X98467919Y-122747939D01*
X98510321Y-122684480D01*
X99633593Y-121561209D01*
X99853744Y-121605000D01*
X100146256Y-121605000D01*
X100579418Y-121518839D01*
X101070625Y-121190625D01*
X101278369Y-120879714D01*
X101498618Y-120835904D01*
X101750010Y-120667929D01*
X101792412Y-120604470D01*
X102386883Y-120010000D01*
X109520153Y-120010000D01*
X109595000Y-120024888D01*
X109669847Y-120010000D01*
X109669852Y-120010000D01*
X109891537Y-119965904D01*
X110142929Y-119797929D01*
X110185331Y-119734470D01*
X111484802Y-118435000D01*
X111530983Y-118435000D01*
X111874635Y-118292655D01*
X112137655Y-118029635D01*
X112280000Y-117685983D01*
X112280000Y-117314017D01*
X112137655Y-116970365D01*
X111874635Y-116707345D01*
X111530983Y-116565000D01*
X111159017Y-116565000D01*
X110815365Y-116707345D01*
X110552345Y-116970365D01*
X110422500Y-117283839D01*
X110292655Y-116970365D01*
X110029635Y-116707345D01*
X109685983Y-116565000D01*
X109314017Y-116565000D01*
X108970365Y-116707345D01*
X108937710Y-116740000D01*
X101224724Y-116740000D01*
X101070625Y-116509375D01*
X100751522Y-116296157D01*
X100881358Y-116235183D01*
X101271645Y-115806924D01*
X101434044Y-115414833D01*
X117825000Y-115414833D01*
X117825000Y-116085167D01*
X118081526Y-116704476D01*
X118555524Y-117178474D01*
X119174833Y-117435000D01*
X119845167Y-117435000D01*
X120464476Y-117178474D01*
X120490000Y-117152950D01*
X120490000Y-117300358D01*
X120719884Y-117855346D01*
X121144654Y-118280116D01*
X121699642Y-118510000D01*
X122300358Y-118510000D01*
X122855346Y-118280116D01*
X123280116Y-117855346D01*
X123510000Y-117300358D01*
X123510000Y-116699642D01*
X123280116Y-116144654D01*
X122855346Y-115719884D01*
X122300358Y-115490000D01*
X121699642Y-115490000D01*
X121195000Y-115699030D01*
X121195000Y-115414833D01*
X120938474Y-114795524D01*
X120464476Y-114321526D01*
X119845167Y-114065000D01*
X119174833Y-114065000D01*
X118555524Y-114321526D01*
X118081526Y-114795524D01*
X117825000Y-115414833D01*
X101434044Y-115414833D01*
X101441476Y-115396890D01*
X101320155Y-115167000D01*
X100127000Y-115167000D01*
X100127000Y-115187000D01*
X99873000Y-115187000D01*
X99873000Y-115167000D01*
X98679845Y-115167000D01*
X98558524Y-115396890D01*
X98728355Y-115806924D01*
X99118642Y-116235183D01*
X99248478Y-116296157D01*
X98929375Y-116509375D01*
X98721822Y-116820000D01*
X97744848Y-116820000D01*
X97670000Y-116805112D01*
X97595152Y-116820000D01*
X97595148Y-116820000D01*
X97373463Y-116864096D01*
X97122071Y-117032071D01*
X97079671Y-117095527D01*
X93185199Y-120990000D01*
X85564802Y-120990000D01*
X84760000Y-120185199D01*
X84760000Y-117605159D01*
X85515000Y-117605159D01*
X85515000Y-118394841D01*
X85817199Y-119124412D01*
X86375588Y-119682801D01*
X87105159Y-119985000D01*
X87894841Y-119985000D01*
X88624412Y-119682801D01*
X89182801Y-119124412D01*
X89485000Y-118394841D01*
X89485000Y-117605159D01*
X89182801Y-116875588D01*
X88624412Y-116317199D01*
X87894841Y-116015000D01*
X87105159Y-116015000D01*
X86375588Y-116317199D01*
X85817199Y-116875588D01*
X85515000Y-117605159D01*
X84760000Y-117605159D01*
X84760000Y-117344847D01*
X84774888Y-117270000D01*
X84760000Y-117195153D01*
X84760000Y-117195148D01*
X84715904Y-116973463D01*
X84547929Y-116722071D01*
X84484473Y-116679671D01*
X82090331Y-114285530D01*
X82047929Y-114222071D01*
X82002851Y-114191951D01*
X82059483Y-114135319D01*
X82122939Y-114092919D01*
X82288716Y-113844817D01*
X82290914Y-113841528D01*
X82306136Y-113765000D01*
X82335010Y-113619842D01*
X82335010Y-113619838D01*
X82349898Y-113544990D01*
X82335010Y-113470142D01*
X82335010Y-111797433D01*
X82349898Y-111722585D01*
X82335010Y-111647737D01*
X82335010Y-111647733D01*
X82290914Y-111426048D01*
X82122939Y-111174656D01*
X82059483Y-111132256D01*
X81563709Y-110636483D01*
X81795938Y-110288927D01*
X81915072Y-109690000D01*
X81795938Y-109091073D01*
X81456673Y-108583327D01*
X81194723Y-108408297D01*
X81525212Y-108145606D01*
X81816756Y-107620086D01*
X81841036Y-107514740D01*
X81720378Y-107277000D01*
X80127000Y-107277000D01*
X80127000Y-107297000D01*
X79873000Y-107297000D01*
X79873000Y-107277000D01*
X78279622Y-107277000D01*
X78158964Y-107514740D01*
X78183244Y-107620086D01*
X78474788Y-108145606D01*
X78805277Y-108408297D01*
X78543327Y-108583327D01*
X78243879Y-109031482D01*
X75997657Y-106785260D01*
X78158964Y-106785260D01*
X78279622Y-107023000D01*
X79873000Y-107023000D01*
X79873000Y-105615000D01*
X80127000Y-105615000D01*
X80127000Y-107023000D01*
X81720378Y-107023000D01*
X81841036Y-106785260D01*
X81816756Y-106679914D01*
X81525212Y-106154394D01*
X81054752Y-105780446D01*
X80477000Y-105615000D01*
X80127000Y-105615000D01*
X79873000Y-105615000D01*
X79523000Y-105615000D01*
X78945248Y-105780446D01*
X78474788Y-106154394D01*
X78183244Y-106679914D01*
X78158964Y-106785260D01*
X75997657Y-106785260D01*
X75917926Y-106705530D01*
X75875524Y-106642071D01*
X75624132Y-106474096D01*
X75402447Y-106430000D01*
X75402442Y-106430000D01*
X75327595Y-106415112D01*
X75252748Y-106430000D01*
X61688312Y-106430000D01*
X61456673Y-106083327D01*
X61194723Y-105908297D01*
X61525212Y-105645606D01*
X61816756Y-105120086D01*
X61841036Y-105014740D01*
X61720378Y-104777000D01*
X60127000Y-104777000D01*
X60127000Y-104797000D01*
X59873000Y-104797000D01*
X59873000Y-104777000D01*
X58279622Y-104777000D01*
X58158964Y-105014740D01*
X58183244Y-105120086D01*
X58474788Y-105645606D01*
X58805277Y-105908297D01*
X58543327Y-106083327D01*
X58204062Y-106591073D01*
X58084928Y-107190000D01*
X50710000Y-107190000D01*
X50710000Y-102110000D01*
X58084928Y-102110000D01*
X58204062Y-102708927D01*
X58543327Y-103216673D01*
X58805277Y-103391703D01*
X58474788Y-103654394D01*
X58183244Y-104179914D01*
X58158964Y-104285260D01*
X58279622Y-104523000D01*
X59873000Y-104523000D01*
X59873000Y-104503000D01*
X60127000Y-104503000D01*
X60127000Y-104523000D01*
X61720378Y-104523000D01*
X61841036Y-104285260D01*
X61816756Y-104179914D01*
X61525212Y-103654394D01*
X61194723Y-103391703D01*
X61456673Y-103216673D01*
X61795938Y-102708927D01*
X61915072Y-102110000D01*
X61795938Y-101511073D01*
X61456673Y-101003327D01*
X60948927Y-100664062D01*
X60501182Y-100575000D01*
X59498818Y-100575000D01*
X59051073Y-100664062D01*
X58543327Y-101003327D01*
X58204062Y-101511073D01*
X58084928Y-102110000D01*
X50710000Y-102110000D01*
X50710000Y-95484180D01*
X55665000Y-95484180D01*
X55665000Y-95915820D01*
X55830182Y-96314603D01*
X56135397Y-96619818D01*
X56534180Y-96785000D01*
X56965820Y-96785000D01*
X57364603Y-96619818D01*
X57669818Y-96314603D01*
X57835000Y-95915820D01*
X57835000Y-95484180D01*
X57669818Y-95085397D01*
X57364603Y-94780182D01*
X56965820Y-94615000D01*
X56534180Y-94615000D01*
X56135397Y-94780182D01*
X55830182Y-95085397D01*
X55665000Y-95484180D01*
X50710000Y-95484180D01*
X50710000Y-91084180D01*
X55665000Y-91084180D01*
X55665000Y-91515820D01*
X55830182Y-91914603D01*
X56135397Y-92219818D01*
X56534180Y-92385000D01*
X56965820Y-92385000D01*
X57364603Y-92219818D01*
X57669818Y-91914603D01*
X57835000Y-91515820D01*
X57835000Y-91084180D01*
X57669818Y-90685397D01*
X57364603Y-90380182D01*
X56965820Y-90215000D01*
X56534180Y-90215000D01*
X56135397Y-90380182D01*
X55830182Y-90685397D01*
X55665000Y-91084180D01*
X50710000Y-91084180D01*
X50710000Y-67865611D01*
X50817199Y-68124412D01*
X51375588Y-68682801D01*
X52105159Y-68985000D01*
X52894841Y-68985000D01*
X53624412Y-68682801D01*
X54182801Y-68124412D01*
X54485000Y-67394841D01*
X54485000Y-66605159D01*
X54182801Y-65875588D01*
X53624412Y-65317199D01*
X52894841Y-65015000D01*
X52105159Y-65015000D01*
X51375588Y-65317199D01*
X50817199Y-65875588D01*
X50710000Y-66134389D01*
X50710000Y-52152845D01*
X60052220Y-52152845D01*
X60052220Y-52665155D01*
X60248273Y-53138469D01*
X60610531Y-53500727D01*
X61083845Y-53696780D01*
X61596155Y-53696780D01*
X62069469Y-53500727D01*
X62431727Y-53138469D01*
X62610000Y-52708080D01*
X62788273Y-53138469D01*
X63150531Y-53500727D01*
X63623845Y-53696780D01*
X64136155Y-53696780D01*
X64609469Y-53500727D01*
X64971727Y-53138469D01*
X65150000Y-52708080D01*
X65328273Y-53138469D01*
X65690531Y-53500727D01*
X66163845Y-53696780D01*
X66632979Y-53696780D01*
X67749990Y-54813792D01*
X67749991Y-73435138D01*
X67735102Y-73509990D01*
X67749991Y-73584842D01*
X67794087Y-73806527D01*
X67962062Y-74057919D01*
X68025518Y-74100319D01*
X80540199Y-86615001D01*
X68646633Y-86615001D01*
X64866414Y-82834782D01*
X64971727Y-82729469D01*
X65150000Y-82299080D01*
X65328273Y-82729469D01*
X65690531Y-83091727D01*
X66163845Y-83287780D01*
X66676155Y-83287780D01*
X67149469Y-83091727D01*
X67340164Y-82901032D01*
X68238574Y-82901032D01*
X68294596Y-83131915D01*
X68778412Y-83300392D01*
X69289873Y-83270896D01*
X69625404Y-83131915D01*
X69681426Y-82901032D01*
X68960000Y-82179605D01*
X68238574Y-82901032D01*
X67340164Y-82901032D01*
X67511727Y-82729469D01*
X67687655Y-82304742D01*
X67689104Y-82329873D01*
X67828085Y-82665404D01*
X68058968Y-82721426D01*
X68780395Y-82000000D01*
X69139605Y-82000000D01*
X69861032Y-82721426D01*
X70091915Y-82665404D01*
X70224284Y-82285280D01*
X70408273Y-82729469D01*
X70770531Y-83091727D01*
X71243845Y-83287780D01*
X71756155Y-83287780D01*
X72229469Y-83091727D01*
X72591727Y-82729469D01*
X72787780Y-82256155D01*
X72787780Y-81743845D01*
X72591727Y-81270531D01*
X72229469Y-80908273D01*
X71756155Y-80712220D01*
X71243845Y-80712220D01*
X70770531Y-80908273D01*
X70408273Y-81270531D01*
X70232345Y-81695258D01*
X70230896Y-81670127D01*
X70091915Y-81334596D01*
X69861032Y-81278574D01*
X69139605Y-82000000D01*
X68780395Y-82000000D01*
X68058968Y-81278574D01*
X67828085Y-81334596D01*
X67695716Y-81714720D01*
X67511727Y-81270531D01*
X67340164Y-81098968D01*
X68238574Y-81098968D01*
X68960000Y-81820395D01*
X69681426Y-81098968D01*
X69625404Y-80868085D01*
X69141588Y-80699608D01*
X68630127Y-80729104D01*
X68294596Y-80868085D01*
X68238574Y-81098968D01*
X67340164Y-81098968D01*
X67149469Y-80908273D01*
X66676155Y-80712220D01*
X66163845Y-80712220D01*
X65690531Y-80908273D01*
X65328273Y-81270531D01*
X65150000Y-81700920D01*
X64971727Y-81270531D01*
X64609469Y-80908273D01*
X64136155Y-80712220D01*
X63623845Y-80712220D01*
X63150531Y-80908273D01*
X62788273Y-81270531D01*
X62592220Y-81743845D01*
X62592220Y-82256155D01*
X62788273Y-82729469D01*
X63135688Y-83076884D01*
X63164097Y-83219707D01*
X63332072Y-83471099D01*
X63395528Y-83513499D01*
X66997338Y-87115310D01*
X66978483Y-87107500D01*
X66606517Y-87107500D01*
X66262865Y-87249845D01*
X65999845Y-87512865D01*
X65857500Y-87856517D01*
X65857500Y-88228483D01*
X65957589Y-88470121D01*
X65957345Y-88470365D01*
X65815000Y-88814017D01*
X65815000Y-89185983D01*
X65957345Y-89529635D01*
X66220365Y-89792655D01*
X66564017Y-89935000D01*
X66935983Y-89935000D01*
X67279635Y-89792655D01*
X67312290Y-89760000D01*
X88915198Y-89760000D01*
X87935000Y-90740198D01*
X87935000Y-90564017D01*
X87792655Y-90220365D01*
X87529635Y-89957345D01*
X87185983Y-89815000D01*
X86814017Y-89815000D01*
X86470365Y-89957345D01*
X86437710Y-89990000D01*
X69074846Y-89990000D01*
X68999999Y-89975112D01*
X68925152Y-89990000D01*
X68925148Y-89990000D01*
X68703463Y-90034096D01*
X68703461Y-90034097D01*
X68703462Y-90034097D01*
X68515526Y-90159671D01*
X68515524Y-90159673D01*
X68452071Y-90202071D01*
X68409673Y-90265524D01*
X67015530Y-91659669D01*
X66952071Y-91702071D01*
X66784096Y-91953464D01*
X66740000Y-92175149D01*
X66740000Y-92175153D01*
X66725112Y-92250000D01*
X66740000Y-92324847D01*
X66740001Y-99187709D01*
X66707345Y-99220365D01*
X66565000Y-99564017D01*
X66565000Y-99935983D01*
X66707345Y-100279635D01*
X66970365Y-100542655D01*
X67314017Y-100685000D01*
X67685983Y-100685000D01*
X68029635Y-100542655D01*
X68292655Y-100279635D01*
X68435000Y-99935983D01*
X68435000Y-99564017D01*
X68292655Y-99220365D01*
X68260000Y-99187710D01*
X68260000Y-92564801D01*
X69314803Y-91510000D01*
X86437710Y-91510000D01*
X86470365Y-91542655D01*
X86814017Y-91685000D01*
X86990199Y-91685000D01*
X85445518Y-93229681D01*
X85382062Y-93272081D01*
X85339662Y-93335537D01*
X85339661Y-93335538D01*
X85214087Y-93523473D01*
X85155102Y-93820010D01*
X85169991Y-93894862D01*
X85169990Y-101005208D01*
X82860199Y-103315000D01*
X82814017Y-103315000D01*
X82470365Y-103457345D01*
X82207345Y-103720365D01*
X82065000Y-104064017D01*
X82065000Y-104435983D01*
X82207345Y-104779635D01*
X82470365Y-105042655D01*
X82814017Y-105185000D01*
X83185983Y-105185000D01*
X83529635Y-105042655D01*
X83792655Y-104779635D01*
X83935000Y-104435983D01*
X83935000Y-104389801D01*
X85620000Y-102704801D01*
X85620001Y-109471821D01*
X85309375Y-109679375D01*
X84981161Y-110170582D01*
X84865908Y-110750000D01*
X84981161Y-111329418D01*
X85309375Y-111820625D01*
X85800582Y-112148839D01*
X86233744Y-112235000D01*
X86526256Y-112235000D01*
X86959418Y-112148839D01*
X87450625Y-111820625D01*
X87650000Y-111522239D01*
X87849375Y-111820625D01*
X88340582Y-112148839D01*
X88773744Y-112235000D01*
X89066256Y-112235000D01*
X89499418Y-112148839D01*
X89990625Y-111820625D01*
X90203843Y-111501522D01*
X90264817Y-111631358D01*
X90693076Y-112021645D01*
X91103110Y-112191476D01*
X91333000Y-112070155D01*
X91333000Y-110877000D01*
X91313000Y-110877000D01*
X91313000Y-110623000D01*
X91333000Y-110623000D01*
X91333000Y-109429845D01*
X91587000Y-109429845D01*
X91587000Y-110623000D01*
X91607000Y-110623000D01*
X91607000Y-110877000D01*
X91587000Y-110877000D01*
X91587000Y-112070155D01*
X91816890Y-112191476D01*
X92226924Y-112021645D01*
X92531261Y-111744292D01*
X92551843Y-111847765D01*
X92692191Y-112057809D01*
X92902235Y-112198157D01*
X93150000Y-112247440D01*
X94850000Y-112247440D01*
X95097765Y-112198157D01*
X95307809Y-112057809D01*
X95448157Y-111847765D01*
X95487494Y-111650000D01*
X98502560Y-111650000D01*
X98502560Y-113350000D01*
X98551843Y-113597765D01*
X98692191Y-113807809D01*
X98902235Y-113948157D01*
X99005708Y-113968739D01*
X98728355Y-114273076D01*
X98558524Y-114683110D01*
X98679845Y-114913000D01*
X99873000Y-114913000D01*
X99873000Y-114893000D01*
X100127000Y-114893000D01*
X100127000Y-114913000D01*
X101320155Y-114913000D01*
X101441476Y-114683110D01*
X101271645Y-114273076D01*
X100994292Y-113968739D01*
X101097765Y-113948157D01*
X101307809Y-113807809D01*
X101448157Y-113597765D01*
X101497440Y-113350000D01*
X101497440Y-111650000D01*
X101448157Y-111402235D01*
X101307809Y-111192191D01*
X101097765Y-111051843D01*
X100850000Y-111002560D01*
X99150000Y-111002560D01*
X98902235Y-111051843D01*
X98692191Y-111192191D01*
X98551843Y-111402235D01*
X98502560Y-111650000D01*
X95487494Y-111650000D01*
X95497440Y-111600000D01*
X95497440Y-109900000D01*
X95448157Y-109652235D01*
X95307809Y-109442191D01*
X95097765Y-109301843D01*
X94850000Y-109252560D01*
X93150000Y-109252560D01*
X92902235Y-109301843D01*
X92692191Y-109442191D01*
X92551843Y-109652235D01*
X92531261Y-109755708D01*
X92226924Y-109478355D01*
X91816890Y-109308524D01*
X91587000Y-109429845D01*
X91333000Y-109429845D01*
X91103110Y-109308524D01*
X90693076Y-109478355D01*
X90264817Y-109868642D01*
X90203843Y-109998478D01*
X89990625Y-109679375D01*
X89499418Y-109351161D01*
X89066256Y-109265000D01*
X88773744Y-109265000D01*
X88553592Y-109308791D01*
X88010000Y-108765199D01*
X88010000Y-107035750D01*
X96015000Y-107035750D01*
X96015000Y-107726309D01*
X96111673Y-107959698D01*
X96290301Y-108138327D01*
X96523690Y-108235000D01*
X97214250Y-108235000D01*
X97373000Y-108076250D01*
X97373000Y-106877000D01*
X96173750Y-106877000D01*
X96015000Y-107035750D01*
X88010000Y-107035750D01*
X88010000Y-105773691D01*
X96015000Y-105773691D01*
X96015000Y-106464250D01*
X96173750Y-106623000D01*
X97373000Y-106623000D01*
X97373000Y-105423750D01*
X97214250Y-105265000D01*
X96523690Y-105265000D01*
X96290301Y-105361673D01*
X96111673Y-105540302D01*
X96015000Y-105773691D01*
X88010000Y-105773691D01*
X88010000Y-98314801D01*
X89389802Y-96935000D01*
X89435983Y-96935000D01*
X89779635Y-96792655D01*
X90042655Y-96529635D01*
X90185000Y-96185983D01*
X90185000Y-95814017D01*
X90042655Y-95470365D01*
X89883238Y-95310948D01*
X89935000Y-95185983D01*
X89935000Y-94814017D01*
X89792655Y-94470365D01*
X89529635Y-94207345D01*
X89185983Y-94065000D01*
X88814017Y-94065000D01*
X88470365Y-94207345D01*
X88207345Y-94470365D01*
X88065000Y-94814017D01*
X88065000Y-94860198D01*
X86689990Y-96235209D01*
X86689990Y-94134811D01*
X90614792Y-90210010D01*
X93975143Y-90210010D01*
X94049990Y-90224898D01*
X94124837Y-90210010D01*
X94124842Y-90210010D01*
X94346527Y-90165914D01*
X94597919Y-89997939D01*
X94640321Y-89934480D01*
X96609474Y-87965328D01*
X96672930Y-87922928D01*
X96759976Y-87792655D01*
X96840905Y-87671537D01*
X96856067Y-87595310D01*
X96885001Y-87449851D01*
X96885001Y-87449847D01*
X96899889Y-87374999D01*
X96885001Y-87300151D01*
X96885001Y-85199845D01*
X96899889Y-85124998D01*
X96885001Y-85050151D01*
X96885001Y-85050147D01*
X96840905Y-84828462D01*
X96672930Y-84577070D01*
X96609474Y-84534670D01*
X96090333Y-84015530D01*
X96047931Y-83952071D01*
X95796539Y-83784096D01*
X95574854Y-83740000D01*
X95574849Y-83740000D01*
X95500002Y-83725112D01*
X95425155Y-83740000D01*
X94312290Y-83740000D01*
X94279635Y-83707345D01*
X93935983Y-83565000D01*
X93564017Y-83565000D01*
X93220365Y-83707345D01*
X92957345Y-83970365D01*
X92815000Y-84314017D01*
X92815000Y-84685983D01*
X92957345Y-85029635D01*
X93220365Y-85292655D01*
X93564017Y-85435000D01*
X93935983Y-85435000D01*
X94279635Y-85292655D01*
X94312290Y-85260000D01*
X95185201Y-85260000D01*
X95261821Y-85336620D01*
X94970365Y-85457345D01*
X94707345Y-85720365D01*
X94565000Y-86064017D01*
X94565000Y-86065000D01*
X94564017Y-86065000D01*
X94220365Y-86207345D01*
X93957345Y-86470365D01*
X93815000Y-86814017D01*
X93815000Y-86860198D01*
X93392699Y-87282500D01*
X90145021Y-87282500D01*
X90185000Y-87185983D01*
X90185000Y-86814017D01*
X90042655Y-86470365D01*
X89779635Y-86207345D01*
X89435983Y-86065000D01*
X89064017Y-86065000D01*
X88720365Y-86207345D01*
X88457345Y-86470365D01*
X88397435Y-86615001D01*
X88185000Y-86615001D01*
X88185000Y-86564017D01*
X88042655Y-86220365D01*
X87779635Y-85957345D01*
X87435983Y-85815000D01*
X87064017Y-85815000D01*
X86720365Y-85957345D01*
X86687710Y-85990000D01*
X82912625Y-85990000D01*
X82935000Y-85935983D01*
X82935000Y-85564017D01*
X82792655Y-85220365D01*
X82529635Y-84957345D01*
X82185983Y-84815000D01*
X82139802Y-84815000D01*
X78324802Y-81000000D01*
X79155908Y-81000000D01*
X79271161Y-81579418D01*
X79599375Y-82070625D01*
X80090582Y-82398839D01*
X80523744Y-82485000D01*
X80816256Y-82485000D01*
X81249418Y-82398839D01*
X81740625Y-82070625D01*
X81940000Y-81772239D01*
X82139375Y-82070625D01*
X82630582Y-82398839D01*
X83063744Y-82485000D01*
X83356256Y-82485000D01*
X83789418Y-82398839D01*
X84280625Y-82070625D01*
X84292816Y-82052381D01*
X84301843Y-82097765D01*
X84442191Y-82307809D01*
X84652235Y-82448157D01*
X84900000Y-82497440D01*
X86600000Y-82497440D01*
X86847765Y-82448157D01*
X87057809Y-82307809D01*
X87198157Y-82097765D01*
X87247440Y-81850000D01*
X87247440Y-80150000D01*
X87198157Y-79902235D01*
X87057809Y-79692191D01*
X86847765Y-79551843D01*
X86600000Y-79502560D01*
X85959019Y-79502560D01*
X86326579Y-79135000D01*
X94662839Y-79135000D01*
X94750000Y-79152337D01*
X94837161Y-79135000D01*
X94837165Y-79135000D01*
X95095310Y-79083652D01*
X95388049Y-78888049D01*
X95437425Y-78814153D01*
X97314156Y-76937423D01*
X97388049Y-76888049D01*
X97583652Y-76595310D01*
X97635000Y-76337165D01*
X97635000Y-76337161D01*
X97652337Y-76250001D01*
X97635000Y-76162841D01*
X97635000Y-73366578D01*
X98866579Y-72135000D01*
X99765254Y-72135000D01*
X99601161Y-72380582D01*
X99485908Y-72960000D01*
X99601161Y-73539418D01*
X99929375Y-74030625D01*
X99947619Y-74042816D01*
X99902235Y-74051843D01*
X99692191Y-74192191D01*
X99551843Y-74402235D01*
X99502560Y-74650000D01*
X99502560Y-76350000D01*
X99551843Y-76597765D01*
X99692191Y-76807809D01*
X99902235Y-76948157D01*
X100150000Y-76997440D01*
X100240000Y-76997440D01*
X100240001Y-82675148D01*
X100225112Y-82750000D01*
X100284097Y-83046537D01*
X100399806Y-83219707D01*
X100452072Y-83297929D01*
X100515528Y-83340329D01*
X101565000Y-84389802D01*
X101565000Y-84435983D01*
X101707345Y-84779635D01*
X101970365Y-85042655D01*
X102314017Y-85185000D01*
X102685983Y-85185000D01*
X103029635Y-85042655D01*
X103292655Y-84779635D01*
X103435000Y-84435983D01*
X103435000Y-84064017D01*
X103292655Y-83720365D01*
X103029635Y-83457345D01*
X102685983Y-83315000D01*
X102639802Y-83315000D01*
X101760000Y-82435199D01*
X101760000Y-76997440D01*
X101850000Y-76997440D01*
X102097765Y-76948157D01*
X102307809Y-76807809D01*
X102448157Y-76597765D01*
X102457184Y-76552381D01*
X102469375Y-76570625D01*
X102780000Y-76778178D01*
X102780001Y-82215148D01*
X102765112Y-82290000D01*
X102824097Y-82586537D01*
X102933320Y-82750000D01*
X102992072Y-82837929D01*
X103055528Y-82880329D01*
X103565000Y-83389802D01*
X103565000Y-83435983D01*
X103707345Y-83779635D01*
X103970365Y-84042655D01*
X104314017Y-84185000D01*
X104685983Y-84185000D01*
X105029635Y-84042655D01*
X105292655Y-83779635D01*
X105435000Y-83435983D01*
X105435000Y-83064017D01*
X105292655Y-82720365D01*
X105029635Y-82457345D01*
X104685983Y-82315000D01*
X104639802Y-82315000D01*
X104300000Y-81975199D01*
X104300000Y-79685000D01*
X104395053Y-79685000D01*
X104738705Y-79542655D01*
X105001725Y-79279635D01*
X105144070Y-78935983D01*
X105144070Y-78889801D01*
X106564473Y-77469399D01*
X106627929Y-77426999D01*
X106684999Y-77341588D01*
X106685000Y-92490198D01*
X103610199Y-95565000D01*
X103564017Y-95565000D01*
X103220365Y-95707345D01*
X102957345Y-95970365D01*
X102815000Y-96314017D01*
X102815000Y-96685983D01*
X102957345Y-97029635D01*
X103220365Y-97292655D01*
X103564017Y-97435000D01*
X103935983Y-97435000D01*
X104279635Y-97292655D01*
X104542655Y-97029635D01*
X104685000Y-96685983D01*
X104685000Y-96639801D01*
X107751256Y-93573546D01*
X107970365Y-93792655D01*
X108314017Y-93935000D01*
X108685983Y-93935000D01*
X109029635Y-93792655D01*
X109292655Y-93529635D01*
X109435000Y-93185983D01*
X109435000Y-93139801D01*
X110279474Y-92295328D01*
X110342930Y-92252928D01*
X110510905Y-92001536D01*
X110555001Y-91779851D01*
X110555001Y-91779846D01*
X110569889Y-91704999D01*
X110555001Y-91630152D01*
X110555001Y-91629802D01*
X111439250Y-92514051D01*
X111315000Y-92814017D01*
X111315000Y-93185983D01*
X111457345Y-93529635D01*
X111720365Y-93792655D01*
X112064017Y-93935000D01*
X112435983Y-93935000D01*
X112779635Y-93792655D01*
X112909108Y-93663182D01*
X112957345Y-93779635D01*
X113220365Y-94042655D01*
X113564017Y-94185000D01*
X113935983Y-94185000D01*
X114279635Y-94042655D01*
X114312290Y-94010000D01*
X117415153Y-94010000D01*
X117490000Y-94024888D01*
X117564847Y-94010000D01*
X117564852Y-94010000D01*
X117786537Y-93965904D01*
X118037929Y-93797929D01*
X118080331Y-93734470D01*
X118590890Y-93223912D01*
X118605000Y-93294847D01*
X118605001Y-96689359D01*
X118420000Y-96652560D01*
X117770000Y-96652560D01*
X117522235Y-96701843D01*
X117312191Y-96842191D01*
X117171843Y-97052235D01*
X117122560Y-97300000D01*
X117122560Y-99000000D01*
X117170298Y-99240000D01*
X100564802Y-99240000D01*
X97935000Y-96610199D01*
X97935000Y-96564017D01*
X97792655Y-96220365D01*
X97529635Y-95957345D01*
X97185983Y-95815000D01*
X96814017Y-95815000D01*
X96470365Y-95957345D01*
X96207345Y-96220365D01*
X96065000Y-96564017D01*
X96065000Y-96935983D01*
X96207345Y-97279635D01*
X96470365Y-97542655D01*
X96814017Y-97685000D01*
X96860199Y-97685000D01*
X99659671Y-100484473D01*
X99702071Y-100547929D01*
X99953463Y-100715904D01*
X100074601Y-100740000D01*
X98062290Y-100740000D01*
X98029635Y-100707345D01*
X97685983Y-100565000D01*
X97314017Y-100565000D01*
X96970365Y-100707345D01*
X96707345Y-100970365D01*
X96659844Y-101085043D01*
X95510000Y-99935199D01*
X95510000Y-93812290D01*
X95542655Y-93779635D01*
X95685000Y-93435983D01*
X95685000Y-93064017D01*
X95542655Y-92720365D01*
X95279635Y-92457345D01*
X94935983Y-92315000D01*
X94884999Y-92315000D01*
X94884999Y-91937291D01*
X94917654Y-91904636D01*
X95059999Y-91560984D01*
X95059999Y-91189018D01*
X94917654Y-90845366D01*
X94654634Y-90582346D01*
X94310982Y-90440001D01*
X93939016Y-90440001D01*
X93595364Y-90582346D01*
X93332344Y-90845366D01*
X93189999Y-91189018D01*
X93189999Y-91560984D01*
X93332344Y-91904636D01*
X93365000Y-91937292D01*
X93364999Y-100186562D01*
X93350111Y-100261409D01*
X93364999Y-100336256D01*
X93364999Y-100336260D01*
X93409095Y-100557945D01*
X93577070Y-100809338D01*
X93640529Y-100851740D01*
X98053787Y-105265000D01*
X97785750Y-105265000D01*
X97627000Y-105423750D01*
X97627000Y-106623000D01*
X97647000Y-106623000D01*
X97647000Y-106877000D01*
X97627000Y-106877000D01*
X97627000Y-108076250D01*
X97785750Y-108235000D01*
X98476310Y-108235000D01*
X98709699Y-108138327D01*
X98888327Y-107959698D01*
X98954904Y-107798967D01*
X98969375Y-107820625D01*
X99460582Y-108148839D01*
X99893744Y-108235000D01*
X100186256Y-108235000D01*
X100619418Y-108148839D01*
X101110625Y-107820625D01*
X101438839Y-107329418D01*
X101554092Y-106750000D01*
X101438839Y-106170582D01*
X101131089Y-105710001D01*
X115678502Y-105710001D01*
X115707345Y-105779635D01*
X115970365Y-106042655D01*
X116314017Y-106185000D01*
X116685983Y-106185000D01*
X117029635Y-106042655D01*
X117292655Y-105779635D01*
X117435000Y-105435983D01*
X117435000Y-105064017D01*
X117325953Y-104800755D01*
X117957296Y-105432098D01*
X117942191Y-105442191D01*
X117801843Y-105652235D01*
X117752560Y-105900000D01*
X117752560Y-107600000D01*
X117801843Y-107847765D01*
X117942191Y-108057809D01*
X118152235Y-108198157D01*
X118400000Y-108247440D01*
X120100000Y-108247440D01*
X120347765Y-108198157D01*
X120557809Y-108057809D01*
X120698157Y-107847765D01*
X120718739Y-107744292D01*
X121023076Y-108021645D01*
X121433110Y-108191476D01*
X121663000Y-108070155D01*
X121663000Y-106877000D01*
X121917000Y-106877000D01*
X121917000Y-108070155D01*
X122146890Y-108191476D01*
X122556924Y-108021645D01*
X122985183Y-107631358D01*
X123231486Y-107106892D01*
X123110819Y-106877000D01*
X121917000Y-106877000D01*
X121663000Y-106877000D01*
X121643000Y-106877000D01*
X121643000Y-106623000D01*
X121663000Y-106623000D01*
X121663000Y-105429845D01*
X121917000Y-105429845D01*
X121917000Y-106623000D01*
X123110819Y-106623000D01*
X123231486Y-106393108D01*
X122985183Y-105868642D01*
X122556924Y-105478355D01*
X122146890Y-105308524D01*
X121917000Y-105429845D01*
X121663000Y-105429845D01*
X121433110Y-105308524D01*
X121023076Y-105478355D01*
X120718739Y-105755708D01*
X120698157Y-105652235D01*
X120557809Y-105442191D01*
X120347765Y-105301843D01*
X120100000Y-105252560D01*
X119898483Y-105252560D01*
X119797929Y-105102071D01*
X119734473Y-105059671D01*
X117690331Y-103015530D01*
X117647929Y-102952071D01*
X117396537Y-102784096D01*
X117174852Y-102740000D01*
X117174847Y-102740000D01*
X117100000Y-102725112D01*
X117025153Y-102740000D01*
X103412625Y-102740000D01*
X103435000Y-102685983D01*
X103435000Y-102314017D01*
X103412625Y-102260000D01*
X119580153Y-102260000D01*
X119655000Y-102274888D01*
X119729847Y-102260000D01*
X119729852Y-102260000D01*
X119951537Y-102215904D01*
X120202929Y-102047929D01*
X120245331Y-101984470D01*
X122389473Y-99840329D01*
X122452929Y-99797929D01*
X122620904Y-99546537D01*
X122631003Y-99495766D01*
X122687809Y-99457809D01*
X122828157Y-99247765D01*
X122877440Y-99000000D01*
X122877440Y-97300000D01*
X122828157Y-97052235D01*
X122687809Y-96842191D01*
X122477765Y-96701843D01*
X122230000Y-96652560D01*
X121580000Y-96652560D01*
X121332235Y-96701843D01*
X121270000Y-96743427D01*
X121207765Y-96701843D01*
X120960000Y-96652560D01*
X120310000Y-96652560D01*
X120125000Y-96689358D01*
X120125000Y-93534801D01*
X121119473Y-92540329D01*
X121182929Y-92497929D01*
X121326889Y-92282477D01*
X121453690Y-92335000D01*
X121619250Y-92335000D01*
X121778000Y-92176250D01*
X121778000Y-90977000D01*
X122032000Y-90977000D01*
X122032000Y-92176250D01*
X122190750Y-92335000D01*
X122356310Y-92335000D01*
X122589699Y-92238327D01*
X122768327Y-92059698D01*
X122865000Y-91826309D01*
X122865000Y-91135750D01*
X122706250Y-90977000D01*
X122032000Y-90977000D01*
X121778000Y-90977000D01*
X121758000Y-90977000D01*
X121758000Y-90723000D01*
X121778000Y-90723000D01*
X121778000Y-89523750D01*
X122032000Y-89523750D01*
X122032000Y-90723000D01*
X122706250Y-90723000D01*
X122865000Y-90564250D01*
X122865000Y-89873691D01*
X122768327Y-89640302D01*
X122589699Y-89461673D01*
X122356310Y-89365000D01*
X122190750Y-89365000D01*
X122032000Y-89523750D01*
X121778000Y-89523750D01*
X121619250Y-89365000D01*
X121520000Y-89365000D01*
X121520000Y-88599702D01*
X121527765Y-88598157D01*
X121737809Y-88457809D01*
X121754622Y-88432647D01*
X121860302Y-88538327D01*
X122093691Y-88635000D01*
X122506750Y-88635000D01*
X122665500Y-88476250D01*
X122665500Y-87377000D01*
X122919500Y-87377000D01*
X122919500Y-88476250D01*
X123078250Y-88635000D01*
X123491309Y-88635000D01*
X123724698Y-88538327D01*
X123903327Y-88359699D01*
X124000000Y-88126310D01*
X124000000Y-87535750D01*
X123841250Y-87377000D01*
X122919500Y-87377000D01*
X122665500Y-87377000D01*
X122645500Y-87377000D01*
X122645500Y-87123000D01*
X122665500Y-87123000D01*
X122665500Y-86023750D01*
X122919500Y-86023750D01*
X122919500Y-87123000D01*
X123841250Y-87123000D01*
X124000000Y-86964250D01*
X124000000Y-86373690D01*
X123903327Y-86140301D01*
X123724698Y-85961673D01*
X123491309Y-85865000D01*
X123078250Y-85865000D01*
X122919500Y-86023750D01*
X122665500Y-86023750D01*
X122506750Y-85865000D01*
X122093691Y-85865000D01*
X121860302Y-85961673D01*
X121754622Y-86067353D01*
X121737809Y-86042191D01*
X121592500Y-85945098D01*
X121592500Y-78044659D01*
X121609837Y-77957499D01*
X121592500Y-77870339D01*
X121592500Y-77870335D01*
X121541152Y-77612190D01*
X121417411Y-77426999D01*
X121394924Y-77393345D01*
X121394923Y-77393344D01*
X121345549Y-77319451D01*
X121271656Y-77270077D01*
X120335000Y-76333422D01*
X120335000Y-76284180D01*
X120169818Y-75885397D01*
X120159421Y-75875000D01*
X120169818Y-75864603D01*
X120335000Y-75465820D01*
X120335000Y-75034180D01*
X120169818Y-74635397D01*
X119864603Y-74330182D01*
X119465820Y-74165000D01*
X119034180Y-74165000D01*
X118635397Y-74330182D01*
X118330182Y-74635397D01*
X118165000Y-75034180D01*
X118165000Y-75465820D01*
X118330182Y-75864603D01*
X118340579Y-75875000D01*
X118330182Y-75885397D01*
X118165000Y-76284180D01*
X118165000Y-76715820D01*
X118330182Y-77114603D01*
X118635397Y-77419818D01*
X119034180Y-77585000D01*
X119083422Y-77585000D01*
X119822501Y-78324080D01*
X119822500Y-85945098D01*
X119677191Y-86042191D01*
X119536843Y-86252235D01*
X119487560Y-86500000D01*
X119487560Y-88000000D01*
X119536843Y-88247765D01*
X119677191Y-88457809D01*
X119750001Y-88506459D01*
X119750000Y-89364495D01*
X119690000Y-89352560D01*
X119040000Y-89352560D01*
X118980000Y-89364495D01*
X118980000Y-88466691D01*
X118997765Y-88463157D01*
X119207809Y-88322809D01*
X119348157Y-88112765D01*
X119397440Y-87865000D01*
X119397440Y-86720000D01*
X119348157Y-86472235D01*
X119207809Y-86262191D01*
X119182647Y-86245378D01*
X119288327Y-86139698D01*
X119385000Y-85906309D01*
X119385000Y-85493250D01*
X119226250Y-85334500D01*
X118127000Y-85334500D01*
X118127000Y-85354500D01*
X117873000Y-85354500D01*
X117873000Y-85334500D01*
X116773750Y-85334500D01*
X116615000Y-85493250D01*
X116615000Y-85906309D01*
X116711673Y-86139698D01*
X116817353Y-86245378D01*
X116792191Y-86262191D01*
X116651843Y-86472235D01*
X116602560Y-86720000D01*
X116602560Y-87865000D01*
X116651843Y-88112765D01*
X116792191Y-88322809D01*
X117002235Y-88463157D01*
X117210001Y-88504484D01*
X117210000Y-89695129D01*
X117171843Y-89752235D01*
X117122560Y-90000000D01*
X117122560Y-91272638D01*
X116905199Y-91490000D01*
X113562290Y-91490000D01*
X113529635Y-91457345D01*
X113185983Y-91315000D01*
X112814017Y-91315000D01*
X112514051Y-91439250D01*
X111005011Y-89930210D01*
X111005011Y-84508691D01*
X116615000Y-84508691D01*
X116615000Y-84921750D01*
X116773750Y-85080500D01*
X117873000Y-85080500D01*
X117873000Y-84158750D01*
X118127000Y-84158750D01*
X118127000Y-85080500D01*
X119226250Y-85080500D01*
X119385000Y-84921750D01*
X119385000Y-84508691D01*
X119288327Y-84275302D01*
X119109699Y-84096673D01*
X118876310Y-84000000D01*
X118285750Y-84000000D01*
X118127000Y-84158750D01*
X117873000Y-84158750D01*
X117714250Y-84000000D01*
X117123690Y-84000000D01*
X116890301Y-84096673D01*
X116711673Y-84275302D01*
X116615000Y-84508691D01*
X111005011Y-84508691D01*
X111005011Y-84057006D01*
X111314017Y-84185000D01*
X111685983Y-84185000D01*
X112029635Y-84042655D01*
X112292655Y-83779635D01*
X112435000Y-83435983D01*
X112435000Y-83367618D01*
X112488346Y-83287780D01*
X112515903Y-83246539D01*
X112538703Y-83131915D01*
X112559999Y-83024853D01*
X112559999Y-83024849D01*
X112574887Y-82950001D01*
X112559999Y-82875153D01*
X112559999Y-82539801D01*
X113009472Y-82090329D01*
X113072928Y-82047929D01*
X113170210Y-81902337D01*
X113240903Y-81796538D01*
X113259416Y-81703464D01*
X113284999Y-81574852D01*
X113284999Y-81574848D01*
X113299887Y-81500000D01*
X113284999Y-81425152D01*
X113284999Y-76931543D01*
X113553744Y-76985000D01*
X113846256Y-76985000D01*
X114279418Y-76898839D01*
X114770625Y-76570625D01*
X114983843Y-76251522D01*
X115044817Y-76381358D01*
X115473076Y-76771645D01*
X115883110Y-76941476D01*
X116113000Y-76820155D01*
X116113000Y-75627000D01*
X116367000Y-75627000D01*
X116367000Y-76820155D01*
X116596890Y-76941476D01*
X117006924Y-76771645D01*
X117435183Y-76381358D01*
X117681486Y-75856892D01*
X117560819Y-75627000D01*
X116367000Y-75627000D01*
X116113000Y-75627000D01*
X116093000Y-75627000D01*
X116093000Y-75373000D01*
X116113000Y-75373000D01*
X116113000Y-73087000D01*
X116367000Y-73087000D01*
X116367000Y-75373000D01*
X117560819Y-75373000D01*
X117681486Y-75143108D01*
X117435183Y-74618642D01*
X117008729Y-74230000D01*
X117435183Y-73841358D01*
X117681486Y-73316892D01*
X117560819Y-73087000D01*
X116367000Y-73087000D01*
X116113000Y-73087000D01*
X116093000Y-73087000D01*
X116093000Y-72833000D01*
X116113000Y-72833000D01*
X116113000Y-71639845D01*
X116367000Y-71639845D01*
X116367000Y-72833000D01*
X117560819Y-72833000D01*
X117681486Y-72603108D01*
X117435183Y-72078642D01*
X117006924Y-71688355D01*
X116596890Y-71518524D01*
X116367000Y-71639845D01*
X116113000Y-71639845D01*
X115883110Y-71518524D01*
X115473076Y-71688355D01*
X115044817Y-72078642D01*
X114983843Y-72208478D01*
X114770625Y-71889375D01*
X114598999Y-71774698D01*
X114602337Y-71757919D01*
X114585000Y-71670758D01*
X114585000Y-71670754D01*
X114533652Y-71412609D01*
X114338049Y-71119870D01*
X114264153Y-71070494D01*
X113879506Y-70685847D01*
X113830130Y-70611951D01*
X113537391Y-70416348D01*
X113279246Y-70365000D01*
X113279242Y-70365000D01*
X113192081Y-70347663D01*
X113104920Y-70365000D01*
X111893251Y-70365000D01*
X112415606Y-70075212D01*
X112789554Y-69604752D01*
X112955000Y-69027000D01*
X112955000Y-68127000D01*
X111547000Y-68127000D01*
X111547000Y-68147000D01*
X111293000Y-68147000D01*
X111293000Y-68127000D01*
X109885000Y-68127000D01*
X109885000Y-69027000D01*
X110050446Y-69604752D01*
X110424394Y-70075212D01*
X110946749Y-70365000D01*
X106843095Y-70365000D01*
X106938926Y-70345938D01*
X107446673Y-70006673D01*
X107785938Y-69498927D01*
X107875000Y-69051182D01*
X107875000Y-66973000D01*
X109885000Y-66973000D01*
X109885000Y-67873000D01*
X111293000Y-67873000D01*
X111293000Y-65729622D01*
X111547000Y-65729622D01*
X111547000Y-67873000D01*
X112955000Y-67873000D01*
X112955000Y-66973000D01*
X112789554Y-66395248D01*
X112415606Y-65924788D01*
X111890086Y-65633244D01*
X111784740Y-65608964D01*
X111547000Y-65729622D01*
X111293000Y-65729622D01*
X111055260Y-65608964D01*
X110949914Y-65633244D01*
X110424394Y-65924788D01*
X110050446Y-66395248D01*
X109885000Y-66973000D01*
X107875000Y-66973000D01*
X107875000Y-66948818D01*
X107785938Y-66501073D01*
X107446673Y-65993327D01*
X106938927Y-65654062D01*
X106340000Y-65534928D01*
X105927500Y-65616979D01*
X105927500Y-65551129D01*
X105963157Y-65497765D01*
X105985587Y-65385000D01*
X110272839Y-65385000D01*
X110360000Y-65402337D01*
X110447161Y-65385000D01*
X110447165Y-65385000D01*
X110705310Y-65333652D01*
X110998049Y-65138049D01*
X111047425Y-65064153D01*
X113449156Y-62662423D01*
X113523049Y-62613049D01*
X113572425Y-62539154D01*
X113718651Y-62320311D01*
X113718652Y-62320310D01*
X113760485Y-62110000D01*
X113869250Y-62110000D01*
X114028000Y-61951250D01*
X114028000Y-60827000D01*
X114282000Y-60827000D01*
X114282000Y-61951250D01*
X114440750Y-62110000D01*
X114581310Y-62110000D01*
X114814699Y-62013327D01*
X114993327Y-61834698D01*
X115090000Y-61601309D01*
X115090000Y-61078250D01*
X115865000Y-61078250D01*
X115865000Y-61491309D01*
X115961673Y-61724698D01*
X116140301Y-61903327D01*
X116373690Y-62000000D01*
X116964250Y-62000000D01*
X117123000Y-61841250D01*
X117123000Y-60919500D01*
X117377000Y-60919500D01*
X117377000Y-61841250D01*
X117535750Y-62000000D01*
X118126310Y-62000000D01*
X118359699Y-61903327D01*
X118538327Y-61724698D01*
X118635000Y-61491309D01*
X118635000Y-61078250D01*
X118476250Y-60919500D01*
X117377000Y-60919500D01*
X117123000Y-60919500D01*
X116023750Y-60919500D01*
X115865000Y-61078250D01*
X115090000Y-61078250D01*
X115090000Y-60985750D01*
X114931250Y-60827000D01*
X114282000Y-60827000D01*
X114028000Y-60827000D01*
X114008000Y-60827000D01*
X114008000Y-60573000D01*
X114028000Y-60573000D01*
X114028000Y-60553000D01*
X114282000Y-60553000D01*
X114282000Y-60573000D01*
X114931250Y-60573000D01*
X115090000Y-60414250D01*
X115090000Y-59798691D01*
X115004593Y-59592500D01*
X115945098Y-59592500D01*
X116042191Y-59737809D01*
X116067353Y-59754622D01*
X115961673Y-59860302D01*
X115865000Y-60093691D01*
X115865000Y-60506750D01*
X116023750Y-60665500D01*
X117123000Y-60665500D01*
X117123000Y-60645500D01*
X117377000Y-60645500D01*
X117377000Y-60665500D01*
X118476250Y-60665500D01*
X118635000Y-60506750D01*
X118635000Y-60169421D01*
X118635397Y-60169818D01*
X119034180Y-60335000D01*
X119365000Y-60335000D01*
X119365000Y-61583421D01*
X115935845Y-65012577D01*
X115861952Y-65061951D01*
X115812578Y-65135844D01*
X115812576Y-65135846D01*
X115666348Y-65354691D01*
X115626990Y-65552560D01*
X115600000Y-65552560D01*
X115352235Y-65601843D01*
X115142191Y-65742191D01*
X115001843Y-65952235D01*
X114952560Y-66200000D01*
X114952560Y-69800000D01*
X115001843Y-70047765D01*
X115142191Y-70257809D01*
X115352235Y-70398157D01*
X115600000Y-70447440D01*
X117400000Y-70447440D01*
X117647765Y-70398157D01*
X117857809Y-70257809D01*
X117998157Y-70047765D01*
X118047440Y-69800000D01*
X118047440Y-66200000D01*
X117998157Y-65952235D01*
X117857809Y-65742191D01*
X117768837Y-65682741D01*
X120814156Y-62637423D01*
X120888049Y-62588049D01*
X120982169Y-62447190D01*
X121083652Y-62295310D01*
X121096972Y-62228346D01*
X121135000Y-62037165D01*
X121135000Y-62037161D01*
X121152337Y-61950000D01*
X121135000Y-61862839D01*
X121135000Y-55087159D01*
X121152337Y-54999999D01*
X121135000Y-54912839D01*
X121135000Y-54912835D01*
X121083652Y-54654690D01*
X121011615Y-54546880D01*
X120937424Y-54435845D01*
X120937423Y-54435844D01*
X120888049Y-54361951D01*
X120814156Y-54312577D01*
X118187425Y-51685847D01*
X118138049Y-51611951D01*
X117845310Y-51416348D01*
X117587165Y-51365000D01*
X117587161Y-51365000D01*
X117500000Y-51347663D01*
X117412839Y-51365000D01*
X95899421Y-51365000D01*
X95864603Y-51330182D01*
X95465820Y-51165000D01*
X95034180Y-51165000D01*
X94635397Y-51330182D01*
X94625000Y-51340579D01*
X94614603Y-51330182D01*
X94215820Y-51165000D01*
X93784180Y-51165000D01*
X93500000Y-51282712D01*
X93215820Y-51165000D01*
X92784180Y-51165000D01*
X92385397Y-51330182D01*
X92350579Y-51365000D01*
X92337159Y-51365000D01*
X92249999Y-51347663D01*
X92162839Y-51365000D01*
X92162835Y-51365000D01*
X91904690Y-51416348D01*
X91904688Y-51416349D01*
X91904689Y-51416349D01*
X91685845Y-51562576D01*
X91685844Y-51562577D01*
X91611951Y-51611951D01*
X91562577Y-51685844D01*
X88935847Y-54312575D01*
X88861951Y-54361951D01*
X88666348Y-54654691D01*
X88615000Y-54912836D01*
X88615000Y-54912839D01*
X88597663Y-55000000D01*
X88615000Y-55087161D01*
X88615000Y-55600579D01*
X88580182Y-55635397D01*
X88415000Y-56034180D01*
X88415000Y-56465820D01*
X88580182Y-56864603D01*
X88590579Y-56875000D01*
X88580182Y-56885397D01*
X88415000Y-57284180D01*
X88415000Y-57715820D01*
X88580182Y-58114603D01*
X88885397Y-58419818D01*
X89284180Y-58585000D01*
X89715820Y-58585000D01*
X90114603Y-58419818D01*
X90419818Y-58114603D01*
X90585000Y-57715820D01*
X90585000Y-57284180D01*
X90419818Y-56885397D01*
X90409421Y-56875000D01*
X90419818Y-56864603D01*
X90585000Y-56465820D01*
X90585000Y-56034180D01*
X90419818Y-55635397D01*
X90385000Y-55600579D01*
X90385000Y-55366578D01*
X92524247Y-53227332D01*
X92784180Y-53335000D01*
X93215820Y-53335000D01*
X93500000Y-53217288D01*
X93784180Y-53335000D01*
X94215820Y-53335000D01*
X94614603Y-53169818D01*
X94625000Y-53159421D01*
X94635397Y-53169818D01*
X95034180Y-53335000D01*
X95465820Y-53335000D01*
X95864603Y-53169818D01*
X95899421Y-53135000D01*
X101645022Y-53135000D01*
X101470365Y-53207345D01*
X101207345Y-53470365D01*
X101065000Y-53814017D01*
X101065000Y-54185983D01*
X101207345Y-54529635D01*
X101470365Y-54792655D01*
X101814017Y-54935000D01*
X102185983Y-54935000D01*
X102529635Y-54792655D01*
X102562290Y-54760000D01*
X109205199Y-54760000D01*
X109397560Y-54952362D01*
X109397560Y-56075000D01*
X109446843Y-56322765D01*
X109587191Y-56532809D01*
X109797235Y-56673157D01*
X110045000Y-56722440D01*
X110645000Y-56722440D01*
X110892765Y-56673157D01*
X110980000Y-56614868D01*
X111067235Y-56673157D01*
X111226447Y-56704826D01*
X111220365Y-56707345D01*
X110957345Y-56970365D01*
X110815000Y-57314017D01*
X110815000Y-57685983D01*
X110879447Y-57841573D01*
X110717190Y-57873848D01*
X110717188Y-57873849D01*
X110717189Y-57873849D01*
X110498345Y-58020076D01*
X110498344Y-58020077D01*
X110424451Y-58069451D01*
X110375077Y-58143344D01*
X109780845Y-58737577D01*
X109706952Y-58786951D01*
X109657578Y-58860844D01*
X109657576Y-58860846D01*
X109511348Y-59079691D01*
X109442663Y-59425000D01*
X109460001Y-59512165D01*
X109460001Y-59657543D01*
X109446843Y-59677235D01*
X109397560Y-59925000D01*
X109397560Y-61475000D01*
X109425407Y-61615000D01*
X103087159Y-61615000D01*
X102999999Y-61597663D01*
X102912840Y-61615000D01*
X102912835Y-61615000D01*
X102654690Y-61666348D01*
X102361951Y-61861951D01*
X102312576Y-61935846D01*
X102143347Y-62105075D01*
X102069451Y-62154451D01*
X101873848Y-62447191D01*
X101822500Y-62705336D01*
X101822500Y-62705339D01*
X101805163Y-62792500D01*
X101822500Y-62879661D01*
X101822500Y-63195098D01*
X101677191Y-63292191D01*
X101536843Y-63502235D01*
X101487560Y-63750000D01*
X101487560Y-65250000D01*
X101536843Y-65497765D01*
X101572501Y-65551130D01*
X101572501Y-65597088D01*
X101260000Y-65534928D01*
X100661074Y-65654062D01*
X100153328Y-65993327D01*
X99814063Y-66501073D01*
X99725001Y-66948818D01*
X99725000Y-69051181D01*
X99814062Y-69498926D01*
X100153327Y-70006673D01*
X100661073Y-70345938D01*
X100756904Y-70365000D01*
X98587161Y-70365000D01*
X98500000Y-70347663D01*
X98412839Y-70365000D01*
X98412835Y-70365000D01*
X98154690Y-70416348D01*
X97935845Y-70562576D01*
X97935844Y-70562577D01*
X97861951Y-70611951D01*
X97812577Y-70685844D01*
X96185847Y-72312575D01*
X96111951Y-72361951D01*
X95916348Y-72654691D01*
X95865000Y-72912836D01*
X95865000Y-72912839D01*
X95847663Y-73000000D01*
X95865000Y-73087161D01*
X95865001Y-75883420D01*
X94383422Y-77365000D01*
X86047159Y-77365000D01*
X85959999Y-77347663D01*
X85872839Y-77365000D01*
X85872835Y-77365000D01*
X85614690Y-77416348D01*
X85614688Y-77416349D01*
X85614689Y-77416349D01*
X85395845Y-77562576D01*
X85395844Y-77562577D01*
X85321951Y-77611951D01*
X85272577Y-77685844D01*
X83428960Y-79529462D01*
X83356256Y-79515000D01*
X83063744Y-79515000D01*
X82630582Y-79601161D01*
X82139375Y-79929375D01*
X81940000Y-80227761D01*
X81740625Y-79929375D01*
X81249418Y-79601161D01*
X80816256Y-79515000D01*
X80523744Y-79515000D01*
X80090582Y-79601161D01*
X79599375Y-79929375D01*
X79271161Y-80420582D01*
X79155908Y-81000000D01*
X78324802Y-81000000D01*
X69720000Y-72395199D01*
X69720000Y-53470196D01*
X70051727Y-53138469D01*
X70199780Y-52781037D01*
X70199780Y-53061780D01*
X70249063Y-53309545D01*
X70389411Y-53519589D01*
X70599455Y-53659937D01*
X70847220Y-53709220D01*
X72152780Y-53709220D01*
X72400545Y-53659937D01*
X72610589Y-53519589D01*
X72750937Y-53309545D01*
X72800220Y-53061780D01*
X72800220Y-51756220D01*
X72750937Y-51508455D01*
X72610589Y-51298411D01*
X72400545Y-51158063D01*
X72152780Y-51108780D01*
X70847220Y-51108780D01*
X70599455Y-51158063D01*
X70389411Y-51298411D01*
X70249063Y-51508455D01*
X70199780Y-51756220D01*
X70199780Y-52036963D01*
X70051727Y-51679531D01*
X69689469Y-51317273D01*
X69216155Y-51121220D01*
X68703845Y-51121220D01*
X68230531Y-51317273D01*
X67868273Y-51679531D01*
X67690000Y-52109920D01*
X67511727Y-51679531D01*
X67149469Y-51317273D01*
X66676155Y-51121220D01*
X66163845Y-51121220D01*
X65690531Y-51317273D01*
X65328273Y-51679531D01*
X65150000Y-52109920D01*
X64971727Y-51679531D01*
X64609469Y-51317273D01*
X64136155Y-51121220D01*
X63623845Y-51121220D01*
X63150531Y-51317273D01*
X62788273Y-51679531D01*
X62610000Y-52109920D01*
X62431727Y-51679531D01*
X62069469Y-51317273D01*
X61596155Y-51121220D01*
X61083845Y-51121220D01*
X60610531Y-51317273D01*
X60248273Y-51679531D01*
X60052220Y-52152845D01*
X50710000Y-52152845D01*
X50710000Y-50710000D01*
X124290000Y-50710000D01*
X124290000Y-66134389D01*
X124290000Y-66134389D01*
G37*
X124290000Y-66134389D02*
X124182801Y-65875588D01*
X123624412Y-65317199D01*
X122894841Y-65015000D01*
X122105159Y-65015000D01*
X121375588Y-65317199D01*
X120817199Y-65875588D01*
X120515000Y-66605159D01*
X120515000Y-67394841D01*
X120817199Y-68124412D01*
X121375588Y-68682801D01*
X122105159Y-68985000D01*
X122894841Y-68985000D01*
X123624412Y-68682801D01*
X124182801Y-68124412D01*
X124290000Y-67865611D01*
X124290001Y-123290000D01*
X121114298Y-123290000D01*
X121195000Y-123095167D01*
X121195000Y-122800970D01*
X121699642Y-123010000D01*
X122300358Y-123010000D01*
X122855346Y-122780116D01*
X123280116Y-122355346D01*
X123510000Y-121800358D01*
X123510000Y-121199642D01*
X123280116Y-120644654D01*
X122855346Y-120219884D01*
X122300358Y-119990000D01*
X121699642Y-119990000D01*
X121144654Y-120219884D01*
X120719884Y-120644654D01*
X120490000Y-121199642D01*
X120490000Y-121357050D01*
X120464476Y-121331526D01*
X119845167Y-121075000D01*
X119174833Y-121075000D01*
X118555524Y-121331526D01*
X118081526Y-121805524D01*
X117825000Y-122424833D01*
X117825000Y-123095167D01*
X117905702Y-123290000D01*
X50710000Y-123290000D01*
X50710000Y-107190000D01*
X58084928Y-107190000D01*
X58204062Y-107788927D01*
X58543327Y-108296673D01*
X58787763Y-108460000D01*
X58543327Y-108623327D01*
X58204062Y-109131073D01*
X58084928Y-109730000D01*
X58204062Y-110328927D01*
X58543327Y-110836673D01*
X58787763Y-111000000D01*
X58543327Y-111163327D01*
X58204062Y-111671073D01*
X58084928Y-112270000D01*
X58204062Y-112868927D01*
X58543327Y-113376673D01*
X58787763Y-113540000D01*
X58543327Y-113703327D01*
X58204062Y-114211073D01*
X58084928Y-114810000D01*
X58204062Y-115408927D01*
X58543327Y-115916673D01*
X58787763Y-116080000D01*
X58543327Y-116243327D01*
X58204062Y-116751073D01*
X58084928Y-117350000D01*
X58204062Y-117948927D01*
X58543327Y-118456673D01*
X58787763Y-118620000D01*
X58543327Y-118783327D01*
X58204062Y-119291073D01*
X58084928Y-119890000D01*
X58204062Y-120488927D01*
X58543327Y-120996673D01*
X59051073Y-121335938D01*
X59498818Y-121425000D01*
X60501182Y-121425000D01*
X60948927Y-121335938D01*
X61456673Y-120996673D01*
X61795938Y-120488927D01*
X61915072Y-119890000D01*
X61795938Y-119291073D01*
X61456673Y-118783327D01*
X61212237Y-118620000D01*
X61456673Y-118456673D01*
X61795938Y-117948927D01*
X61915072Y-117350000D01*
X61795938Y-116751073D01*
X61456673Y-116243327D01*
X61212237Y-116080000D01*
X61456673Y-115916673D01*
X61795938Y-115408927D01*
X61915072Y-114810000D01*
X61795938Y-114211073D01*
X61456673Y-113703327D01*
X61212237Y-113540000D01*
X61456673Y-113376673D01*
X61795938Y-112868927D01*
X61915072Y-112270000D01*
X61795938Y-111671073D01*
X61456673Y-111163327D01*
X61212237Y-111000000D01*
X61456673Y-110836673D01*
X61688312Y-110490000D01*
X67165199Y-110490000D01*
X69389671Y-112714473D01*
X69432071Y-112777929D01*
X69683463Y-112945904D01*
X69905148Y-112990000D01*
X69905153Y-112990000D01*
X69980000Y-113004888D01*
X70054847Y-112990000D01*
X76977101Y-112990000D01*
X76990000Y-113054847D01*
X76990001Y-121425148D01*
X76975112Y-121500000D01*
X76990001Y-121574852D01*
X77034097Y-121796537D01*
X77202072Y-122047929D01*
X77265528Y-122090329D01*
X77859681Y-122684483D01*
X77902081Y-122747939D01*
X78153473Y-122915914D01*
X78375158Y-122960010D01*
X78375162Y-122960010D01*
X78450010Y-122974898D01*
X78524858Y-122960010D01*
X97845143Y-122960010D01*
X97919990Y-122974898D01*
X97994837Y-122960010D01*
X97994842Y-122960010D01*
X98216527Y-122915914D01*
X98467919Y-122747939D01*
X98510321Y-122684480D01*
X99633593Y-121561209D01*
X99853744Y-121605000D01*
X100146256Y-121605000D01*
X100579418Y-121518839D01*
X101070625Y-121190625D01*
X101278369Y-120879714D01*
X101498618Y-120835904D01*
X101750010Y-120667929D01*
X101792412Y-120604470D01*
X102386883Y-120010000D01*
X109520153Y-120010000D01*
X109595000Y-120024888D01*
X109669847Y-120010000D01*
X109669852Y-120010000D01*
X109891537Y-119965904D01*
X110142929Y-119797929D01*
X110185331Y-119734470D01*
X111484802Y-118435000D01*
X111530983Y-118435000D01*
X111874635Y-118292655D01*
X112137655Y-118029635D01*
X112280000Y-117685983D01*
X112280000Y-117314017D01*
X112137655Y-116970365D01*
X111874635Y-116707345D01*
X111530983Y-116565000D01*
X111159017Y-116565000D01*
X110815365Y-116707345D01*
X110552345Y-116970365D01*
X110422500Y-117283839D01*
X110292655Y-116970365D01*
X110029635Y-116707345D01*
X109685983Y-116565000D01*
X109314017Y-116565000D01*
X108970365Y-116707345D01*
X108937710Y-116740000D01*
X101224724Y-116740000D01*
X101070625Y-116509375D01*
X100751522Y-116296157D01*
X100881358Y-116235183D01*
X101271645Y-115806924D01*
X101434044Y-115414833D01*
X117825000Y-115414833D01*
X117825000Y-116085167D01*
X118081526Y-116704476D01*
X118555524Y-117178474D01*
X119174833Y-117435000D01*
X119845167Y-117435000D01*
X120464476Y-117178474D01*
X120490000Y-117152950D01*
X120490000Y-117300358D01*
X120719884Y-117855346D01*
X121144654Y-118280116D01*
X121699642Y-118510000D01*
X122300358Y-118510000D01*
X122855346Y-118280116D01*
X123280116Y-117855346D01*
X123510000Y-117300358D01*
X123510000Y-116699642D01*
X123280116Y-116144654D01*
X122855346Y-115719884D01*
X122300358Y-115490000D01*
X121699642Y-115490000D01*
X121195000Y-115699030D01*
X121195000Y-115414833D01*
X120938474Y-114795524D01*
X120464476Y-114321526D01*
X119845167Y-114065000D01*
X119174833Y-114065000D01*
X118555524Y-114321526D01*
X118081526Y-114795524D01*
X117825000Y-115414833D01*
X101434044Y-115414833D01*
X101441476Y-115396890D01*
X101320155Y-115167000D01*
X100127000Y-115167000D01*
X100127000Y-115187000D01*
X99873000Y-115187000D01*
X99873000Y-115167000D01*
X98679845Y-115167000D01*
X98558524Y-115396890D01*
X98728355Y-115806924D01*
X99118642Y-116235183D01*
X99248478Y-116296157D01*
X98929375Y-116509375D01*
X98721822Y-116820000D01*
X97744848Y-116820000D01*
X97670000Y-116805112D01*
X97595152Y-116820000D01*
X97595148Y-116820000D01*
X97373463Y-116864096D01*
X97122071Y-117032071D01*
X97079671Y-117095527D01*
X93185199Y-120990000D01*
X85564802Y-120990000D01*
X84760000Y-120185199D01*
X84760000Y-117605159D01*
X85515000Y-117605159D01*
X85515000Y-118394841D01*
X85817199Y-119124412D01*
X86375588Y-119682801D01*
X87105159Y-119985000D01*
X87894841Y-119985000D01*
X88624412Y-119682801D01*
X89182801Y-119124412D01*
X89485000Y-118394841D01*
X89485000Y-117605159D01*
X89182801Y-116875588D01*
X88624412Y-116317199D01*
X87894841Y-116015000D01*
X87105159Y-116015000D01*
X86375588Y-116317199D01*
X85817199Y-116875588D01*
X85515000Y-117605159D01*
X84760000Y-117605159D01*
X84760000Y-117344847D01*
X84774888Y-117270000D01*
X84760000Y-117195153D01*
X84760000Y-117195148D01*
X84715904Y-116973463D01*
X84547929Y-116722071D01*
X84484473Y-116679671D01*
X82090331Y-114285530D01*
X82047929Y-114222071D01*
X82002851Y-114191951D01*
X82059483Y-114135319D01*
X82122939Y-114092919D01*
X82288716Y-113844817D01*
X82290914Y-113841528D01*
X82306136Y-113765000D01*
X82335010Y-113619842D01*
X82335010Y-113619838D01*
X82349898Y-113544990D01*
X82335010Y-113470142D01*
X82335010Y-111797433D01*
X82349898Y-111722585D01*
X82335010Y-111647737D01*
X82335010Y-111647733D01*
X82290914Y-111426048D01*
X82122939Y-111174656D01*
X82059483Y-111132256D01*
X81563709Y-110636483D01*
X81795938Y-110288927D01*
X81915072Y-109690000D01*
X81795938Y-109091073D01*
X81456673Y-108583327D01*
X81194723Y-108408297D01*
X81525212Y-108145606D01*
X81816756Y-107620086D01*
X81841036Y-107514740D01*
X81720378Y-107277000D01*
X80127000Y-107277000D01*
X80127000Y-107297000D01*
X79873000Y-107297000D01*
X79873000Y-107277000D01*
X78279622Y-107277000D01*
X78158964Y-107514740D01*
X78183244Y-107620086D01*
X78474788Y-108145606D01*
X78805277Y-108408297D01*
X78543327Y-108583327D01*
X78243879Y-109031482D01*
X75997657Y-106785260D01*
X78158964Y-106785260D01*
X78279622Y-107023000D01*
X79873000Y-107023000D01*
X79873000Y-105615000D01*
X80127000Y-105615000D01*
X80127000Y-107023000D01*
X81720378Y-107023000D01*
X81841036Y-106785260D01*
X81816756Y-106679914D01*
X81525212Y-106154394D01*
X81054752Y-105780446D01*
X80477000Y-105615000D01*
X80127000Y-105615000D01*
X79873000Y-105615000D01*
X79523000Y-105615000D01*
X78945248Y-105780446D01*
X78474788Y-106154394D01*
X78183244Y-106679914D01*
X78158964Y-106785260D01*
X75997657Y-106785260D01*
X75917926Y-106705530D01*
X75875524Y-106642071D01*
X75624132Y-106474096D01*
X75402447Y-106430000D01*
X75402442Y-106430000D01*
X75327595Y-106415112D01*
X75252748Y-106430000D01*
X61688312Y-106430000D01*
X61456673Y-106083327D01*
X61194723Y-105908297D01*
X61525212Y-105645606D01*
X61816756Y-105120086D01*
X61841036Y-105014740D01*
X61720378Y-104777000D01*
X60127000Y-104777000D01*
X60127000Y-104797000D01*
X59873000Y-104797000D01*
X59873000Y-104777000D01*
X58279622Y-104777000D01*
X58158964Y-105014740D01*
X58183244Y-105120086D01*
X58474788Y-105645606D01*
X58805277Y-105908297D01*
X58543327Y-106083327D01*
X58204062Y-106591073D01*
X58084928Y-107190000D01*
X50710000Y-107190000D01*
X50710000Y-102110000D01*
X58084928Y-102110000D01*
X58204062Y-102708927D01*
X58543327Y-103216673D01*
X58805277Y-103391703D01*
X58474788Y-103654394D01*
X58183244Y-104179914D01*
X58158964Y-104285260D01*
X58279622Y-104523000D01*
X59873000Y-104523000D01*
X59873000Y-104503000D01*
X60127000Y-104503000D01*
X60127000Y-104523000D01*
X61720378Y-104523000D01*
X61841036Y-104285260D01*
X61816756Y-104179914D01*
X61525212Y-103654394D01*
X61194723Y-103391703D01*
X61456673Y-103216673D01*
X61795938Y-102708927D01*
X61915072Y-102110000D01*
X61795938Y-101511073D01*
X61456673Y-101003327D01*
X60948927Y-100664062D01*
X60501182Y-100575000D01*
X59498818Y-100575000D01*
X59051073Y-100664062D01*
X58543327Y-101003327D01*
X58204062Y-101511073D01*
X58084928Y-102110000D01*
X50710000Y-102110000D01*
X50710000Y-95484180D01*
X55665000Y-95484180D01*
X55665000Y-95915820D01*
X55830182Y-96314603D01*
X56135397Y-96619818D01*
X56534180Y-96785000D01*
X56965820Y-96785000D01*
X57364603Y-96619818D01*
X57669818Y-96314603D01*
X57835000Y-95915820D01*
X57835000Y-95484180D01*
X57669818Y-95085397D01*
X57364603Y-94780182D01*
X56965820Y-94615000D01*
X56534180Y-94615000D01*
X56135397Y-94780182D01*
X55830182Y-95085397D01*
X55665000Y-95484180D01*
X50710000Y-95484180D01*
X50710000Y-91084180D01*
X55665000Y-91084180D01*
X55665000Y-91515820D01*
X55830182Y-91914603D01*
X56135397Y-92219818D01*
X56534180Y-92385000D01*
X56965820Y-92385000D01*
X57364603Y-92219818D01*
X57669818Y-91914603D01*
X57835000Y-91515820D01*
X57835000Y-91084180D01*
X57669818Y-90685397D01*
X57364603Y-90380182D01*
X56965820Y-90215000D01*
X56534180Y-90215000D01*
X56135397Y-90380182D01*
X55830182Y-90685397D01*
X55665000Y-91084180D01*
X50710000Y-91084180D01*
X50710000Y-67865611D01*
X50817199Y-68124412D01*
X51375588Y-68682801D01*
X52105159Y-68985000D01*
X52894841Y-68985000D01*
X53624412Y-68682801D01*
X54182801Y-68124412D01*
X54485000Y-67394841D01*
X54485000Y-66605159D01*
X54182801Y-65875588D01*
X53624412Y-65317199D01*
X52894841Y-65015000D01*
X52105159Y-65015000D01*
X51375588Y-65317199D01*
X50817199Y-65875588D01*
X50710000Y-66134389D01*
X50710000Y-52152845D01*
X60052220Y-52152845D01*
X60052220Y-52665155D01*
X60248273Y-53138469D01*
X60610531Y-53500727D01*
X61083845Y-53696780D01*
X61596155Y-53696780D01*
X62069469Y-53500727D01*
X62431727Y-53138469D01*
X62610000Y-52708080D01*
X62788273Y-53138469D01*
X63150531Y-53500727D01*
X63623845Y-53696780D01*
X64136155Y-53696780D01*
X64609469Y-53500727D01*
X64971727Y-53138469D01*
X65150000Y-52708080D01*
X65328273Y-53138469D01*
X65690531Y-53500727D01*
X66163845Y-53696780D01*
X66632979Y-53696780D01*
X67749990Y-54813792D01*
X67749991Y-73435138D01*
X67735102Y-73509990D01*
X67749991Y-73584842D01*
X67794087Y-73806527D01*
X67962062Y-74057919D01*
X68025518Y-74100319D01*
X80540199Y-86615001D01*
X68646633Y-86615001D01*
X64866414Y-82834782D01*
X64971727Y-82729469D01*
X65150000Y-82299080D01*
X65328273Y-82729469D01*
X65690531Y-83091727D01*
X66163845Y-83287780D01*
X66676155Y-83287780D01*
X67149469Y-83091727D01*
X67340164Y-82901032D01*
X68238574Y-82901032D01*
X68294596Y-83131915D01*
X68778412Y-83300392D01*
X69289873Y-83270896D01*
X69625404Y-83131915D01*
X69681426Y-82901032D01*
X68960000Y-82179605D01*
X68238574Y-82901032D01*
X67340164Y-82901032D01*
X67511727Y-82729469D01*
X67687655Y-82304742D01*
X67689104Y-82329873D01*
X67828085Y-82665404D01*
X68058968Y-82721426D01*
X68780395Y-82000000D01*
X69139605Y-82000000D01*
X69861032Y-82721426D01*
X70091915Y-82665404D01*
X70224284Y-82285280D01*
X70408273Y-82729469D01*
X70770531Y-83091727D01*
X71243845Y-83287780D01*
X71756155Y-83287780D01*
X72229469Y-83091727D01*
X72591727Y-82729469D01*
X72787780Y-82256155D01*
X72787780Y-81743845D01*
X72591727Y-81270531D01*
X72229469Y-80908273D01*
X71756155Y-80712220D01*
X71243845Y-80712220D01*
X70770531Y-80908273D01*
X70408273Y-81270531D01*
X70232345Y-81695258D01*
X70230896Y-81670127D01*
X70091915Y-81334596D01*
X69861032Y-81278574D01*
X69139605Y-82000000D01*
X68780395Y-82000000D01*
X68058968Y-81278574D01*
X67828085Y-81334596D01*
X67695716Y-81714720D01*
X67511727Y-81270531D01*
X67340164Y-81098968D01*
X68238574Y-81098968D01*
X68960000Y-81820395D01*
X69681426Y-81098968D01*
X69625404Y-80868085D01*
X69141588Y-80699608D01*
X68630127Y-80729104D01*
X68294596Y-80868085D01*
X68238574Y-81098968D01*
X67340164Y-81098968D01*
X67149469Y-80908273D01*
X66676155Y-80712220D01*
X66163845Y-80712220D01*
X65690531Y-80908273D01*
X65328273Y-81270531D01*
X65150000Y-81700920D01*
X64971727Y-81270531D01*
X64609469Y-80908273D01*
X64136155Y-80712220D01*
X63623845Y-80712220D01*
X63150531Y-80908273D01*
X62788273Y-81270531D01*
X62592220Y-81743845D01*
X62592220Y-82256155D01*
X62788273Y-82729469D01*
X63135688Y-83076884D01*
X63164097Y-83219707D01*
X63332072Y-83471099D01*
X63395528Y-83513499D01*
X66997338Y-87115310D01*
X66978483Y-87107500D01*
X66606517Y-87107500D01*
X66262865Y-87249845D01*
X65999845Y-87512865D01*
X65857500Y-87856517D01*
X65857500Y-88228483D01*
X65957589Y-88470121D01*
X65957345Y-88470365D01*
X65815000Y-88814017D01*
X65815000Y-89185983D01*
X65957345Y-89529635D01*
X66220365Y-89792655D01*
X66564017Y-89935000D01*
X66935983Y-89935000D01*
X67279635Y-89792655D01*
X67312290Y-89760000D01*
X88915198Y-89760000D01*
X87935000Y-90740198D01*
X87935000Y-90564017D01*
X87792655Y-90220365D01*
X87529635Y-89957345D01*
X87185983Y-89815000D01*
X86814017Y-89815000D01*
X86470365Y-89957345D01*
X86437710Y-89990000D01*
X69074846Y-89990000D01*
X68999999Y-89975112D01*
X68925152Y-89990000D01*
X68925148Y-89990000D01*
X68703463Y-90034096D01*
X68703461Y-90034097D01*
X68703462Y-90034097D01*
X68515526Y-90159671D01*
X68515524Y-90159673D01*
X68452071Y-90202071D01*
X68409673Y-90265524D01*
X67015530Y-91659669D01*
X66952071Y-91702071D01*
X66784096Y-91953464D01*
X66740000Y-92175149D01*
X66740000Y-92175153D01*
X66725112Y-92250000D01*
X66740000Y-92324847D01*
X66740001Y-99187709D01*
X66707345Y-99220365D01*
X66565000Y-99564017D01*
X66565000Y-99935983D01*
X66707345Y-100279635D01*
X66970365Y-100542655D01*
X67314017Y-100685000D01*
X67685983Y-100685000D01*
X68029635Y-100542655D01*
X68292655Y-100279635D01*
X68435000Y-99935983D01*
X68435000Y-99564017D01*
X68292655Y-99220365D01*
X68260000Y-99187710D01*
X68260000Y-92564801D01*
X69314803Y-91510000D01*
X86437710Y-91510000D01*
X86470365Y-91542655D01*
X86814017Y-91685000D01*
X86990199Y-91685000D01*
X85445518Y-93229681D01*
X85382062Y-93272081D01*
X85339662Y-93335537D01*
X85339661Y-93335538D01*
X85214087Y-93523473D01*
X85155102Y-93820010D01*
X85169991Y-93894862D01*
X85169990Y-101005208D01*
X82860199Y-103315000D01*
X82814017Y-103315000D01*
X82470365Y-103457345D01*
X82207345Y-103720365D01*
X82065000Y-104064017D01*
X82065000Y-104435983D01*
X82207345Y-104779635D01*
X82470365Y-105042655D01*
X82814017Y-105185000D01*
X83185983Y-105185000D01*
X83529635Y-105042655D01*
X83792655Y-104779635D01*
X83935000Y-104435983D01*
X83935000Y-104389801D01*
X85620000Y-102704801D01*
X85620001Y-109471821D01*
X85309375Y-109679375D01*
X84981161Y-110170582D01*
X84865908Y-110750000D01*
X84981161Y-111329418D01*
X85309375Y-111820625D01*
X85800582Y-112148839D01*
X86233744Y-112235000D01*
X86526256Y-112235000D01*
X86959418Y-112148839D01*
X87450625Y-111820625D01*
X87650000Y-111522239D01*
X87849375Y-111820625D01*
X88340582Y-112148839D01*
X88773744Y-112235000D01*
X89066256Y-112235000D01*
X89499418Y-112148839D01*
X89990625Y-111820625D01*
X90203843Y-111501522D01*
X90264817Y-111631358D01*
X90693076Y-112021645D01*
X91103110Y-112191476D01*
X91333000Y-112070155D01*
X91333000Y-110877000D01*
X91313000Y-110877000D01*
X91313000Y-110623000D01*
X91333000Y-110623000D01*
X91333000Y-109429845D01*
X91587000Y-109429845D01*
X91587000Y-110623000D01*
X91607000Y-110623000D01*
X91607000Y-110877000D01*
X91587000Y-110877000D01*
X91587000Y-112070155D01*
X91816890Y-112191476D01*
X92226924Y-112021645D01*
X92531261Y-111744292D01*
X92551843Y-111847765D01*
X92692191Y-112057809D01*
X92902235Y-112198157D01*
X93150000Y-112247440D01*
X94850000Y-112247440D01*
X95097765Y-112198157D01*
X95307809Y-112057809D01*
X95448157Y-111847765D01*
X95487494Y-111650000D01*
X98502560Y-111650000D01*
X98502560Y-113350000D01*
X98551843Y-113597765D01*
X98692191Y-113807809D01*
X98902235Y-113948157D01*
X99005708Y-113968739D01*
X98728355Y-114273076D01*
X98558524Y-114683110D01*
X98679845Y-114913000D01*
X99873000Y-114913000D01*
X99873000Y-114893000D01*
X100127000Y-114893000D01*
X100127000Y-114913000D01*
X101320155Y-114913000D01*
X101441476Y-114683110D01*
X101271645Y-114273076D01*
X100994292Y-113968739D01*
X101097765Y-113948157D01*
X101307809Y-113807809D01*
X101448157Y-113597765D01*
X101497440Y-113350000D01*
X101497440Y-111650000D01*
X101448157Y-111402235D01*
X101307809Y-111192191D01*
X101097765Y-111051843D01*
X100850000Y-111002560D01*
X99150000Y-111002560D01*
X98902235Y-111051843D01*
X98692191Y-111192191D01*
X98551843Y-111402235D01*
X98502560Y-111650000D01*
X95487494Y-111650000D01*
X95497440Y-111600000D01*
X95497440Y-109900000D01*
X95448157Y-109652235D01*
X95307809Y-109442191D01*
X95097765Y-109301843D01*
X94850000Y-109252560D01*
X93150000Y-109252560D01*
X92902235Y-109301843D01*
X92692191Y-109442191D01*
X92551843Y-109652235D01*
X92531261Y-109755708D01*
X92226924Y-109478355D01*
X91816890Y-109308524D01*
X91587000Y-109429845D01*
X91333000Y-109429845D01*
X91103110Y-109308524D01*
X90693076Y-109478355D01*
X90264817Y-109868642D01*
X90203843Y-109998478D01*
X89990625Y-109679375D01*
X89499418Y-109351161D01*
X89066256Y-109265000D01*
X88773744Y-109265000D01*
X88553592Y-109308791D01*
X88010000Y-108765199D01*
X88010000Y-107035750D01*
X96015000Y-107035750D01*
X96015000Y-107726309D01*
X96111673Y-107959698D01*
X96290301Y-108138327D01*
X96523690Y-108235000D01*
X97214250Y-108235000D01*
X97373000Y-108076250D01*
X97373000Y-106877000D01*
X96173750Y-106877000D01*
X96015000Y-107035750D01*
X88010000Y-107035750D01*
X88010000Y-105773691D01*
X96015000Y-105773691D01*
X96015000Y-106464250D01*
X96173750Y-106623000D01*
X97373000Y-106623000D01*
X97373000Y-105423750D01*
X97214250Y-105265000D01*
X96523690Y-105265000D01*
X96290301Y-105361673D01*
X96111673Y-105540302D01*
X96015000Y-105773691D01*
X88010000Y-105773691D01*
X88010000Y-98314801D01*
X89389802Y-96935000D01*
X89435983Y-96935000D01*
X89779635Y-96792655D01*
X90042655Y-96529635D01*
X90185000Y-96185983D01*
X90185000Y-95814017D01*
X90042655Y-95470365D01*
X89883238Y-95310948D01*
X89935000Y-95185983D01*
X89935000Y-94814017D01*
X89792655Y-94470365D01*
X89529635Y-94207345D01*
X89185983Y-94065000D01*
X88814017Y-94065000D01*
X88470365Y-94207345D01*
X88207345Y-94470365D01*
X88065000Y-94814017D01*
X88065000Y-94860198D01*
X86689990Y-96235209D01*
X86689990Y-94134811D01*
X90614792Y-90210010D01*
X93975143Y-90210010D01*
X94049990Y-90224898D01*
X94124837Y-90210010D01*
X94124842Y-90210010D01*
X94346527Y-90165914D01*
X94597919Y-89997939D01*
X94640321Y-89934480D01*
X96609474Y-87965328D01*
X96672930Y-87922928D01*
X96759976Y-87792655D01*
X96840905Y-87671537D01*
X96856067Y-87595310D01*
X96885001Y-87449851D01*
X96885001Y-87449847D01*
X96899889Y-87374999D01*
X96885001Y-87300151D01*
X96885001Y-85199845D01*
X96899889Y-85124998D01*
X96885001Y-85050151D01*
X96885001Y-85050147D01*
X96840905Y-84828462D01*
X96672930Y-84577070D01*
X96609474Y-84534670D01*
X96090333Y-84015530D01*
X96047931Y-83952071D01*
X95796539Y-83784096D01*
X95574854Y-83740000D01*
X95574849Y-83740000D01*
X95500002Y-83725112D01*
X95425155Y-83740000D01*
X94312290Y-83740000D01*
X94279635Y-83707345D01*
X93935983Y-83565000D01*
X93564017Y-83565000D01*
X93220365Y-83707345D01*
X92957345Y-83970365D01*
X92815000Y-84314017D01*
X92815000Y-84685983D01*
X92957345Y-85029635D01*
X93220365Y-85292655D01*
X93564017Y-85435000D01*
X93935983Y-85435000D01*
X94279635Y-85292655D01*
X94312290Y-85260000D01*
X95185201Y-85260000D01*
X95261821Y-85336620D01*
X94970365Y-85457345D01*
X94707345Y-85720365D01*
X94565000Y-86064017D01*
X94565000Y-86065000D01*
X94564017Y-86065000D01*
X94220365Y-86207345D01*
X93957345Y-86470365D01*
X93815000Y-86814017D01*
X93815000Y-86860198D01*
X93392699Y-87282500D01*
X90145021Y-87282500D01*
X90185000Y-87185983D01*
X90185000Y-86814017D01*
X90042655Y-86470365D01*
X89779635Y-86207345D01*
X89435983Y-86065000D01*
X89064017Y-86065000D01*
X88720365Y-86207345D01*
X88457345Y-86470365D01*
X88397435Y-86615001D01*
X88185000Y-86615001D01*
X88185000Y-86564017D01*
X88042655Y-86220365D01*
X87779635Y-85957345D01*
X87435983Y-85815000D01*
X87064017Y-85815000D01*
X86720365Y-85957345D01*
X86687710Y-85990000D01*
X82912625Y-85990000D01*
X82935000Y-85935983D01*
X82935000Y-85564017D01*
X82792655Y-85220365D01*
X82529635Y-84957345D01*
X82185983Y-84815000D01*
X82139802Y-84815000D01*
X78324802Y-81000000D01*
X79155908Y-81000000D01*
X79271161Y-81579418D01*
X79599375Y-82070625D01*
X80090582Y-82398839D01*
X80523744Y-82485000D01*
X80816256Y-82485000D01*
X81249418Y-82398839D01*
X81740625Y-82070625D01*
X81940000Y-81772239D01*
X82139375Y-82070625D01*
X82630582Y-82398839D01*
X83063744Y-82485000D01*
X83356256Y-82485000D01*
X83789418Y-82398839D01*
X84280625Y-82070625D01*
X84292816Y-82052381D01*
X84301843Y-82097765D01*
X84442191Y-82307809D01*
X84652235Y-82448157D01*
X84900000Y-82497440D01*
X86600000Y-82497440D01*
X86847765Y-82448157D01*
X87057809Y-82307809D01*
X87198157Y-82097765D01*
X87247440Y-81850000D01*
X87247440Y-80150000D01*
X87198157Y-79902235D01*
X87057809Y-79692191D01*
X86847765Y-79551843D01*
X86600000Y-79502560D01*
X85959019Y-79502560D01*
X86326579Y-79135000D01*
X94662839Y-79135000D01*
X94750000Y-79152337D01*
X94837161Y-79135000D01*
X94837165Y-79135000D01*
X95095310Y-79083652D01*
X95388049Y-78888049D01*
X95437425Y-78814153D01*
X97314156Y-76937423D01*
X97388049Y-76888049D01*
X97583652Y-76595310D01*
X97635000Y-76337165D01*
X97635000Y-76337161D01*
X97652337Y-76250001D01*
X97635000Y-76162841D01*
X97635000Y-73366578D01*
X98866579Y-72135000D01*
X99765254Y-72135000D01*
X99601161Y-72380582D01*
X99485908Y-72960000D01*
X99601161Y-73539418D01*
X99929375Y-74030625D01*
X99947619Y-74042816D01*
X99902235Y-74051843D01*
X99692191Y-74192191D01*
X99551843Y-74402235D01*
X99502560Y-74650000D01*
X99502560Y-76350000D01*
X99551843Y-76597765D01*
X99692191Y-76807809D01*
X99902235Y-76948157D01*
X100150000Y-76997440D01*
X100240000Y-76997440D01*
X100240001Y-82675148D01*
X100225112Y-82750000D01*
X100284097Y-83046537D01*
X100399806Y-83219707D01*
X100452072Y-83297929D01*
X100515528Y-83340329D01*
X101565000Y-84389802D01*
X101565000Y-84435983D01*
X101707345Y-84779635D01*
X101970365Y-85042655D01*
X102314017Y-85185000D01*
X102685983Y-85185000D01*
X103029635Y-85042655D01*
X103292655Y-84779635D01*
X103435000Y-84435983D01*
X103435000Y-84064017D01*
X103292655Y-83720365D01*
X103029635Y-83457345D01*
X102685983Y-83315000D01*
X102639802Y-83315000D01*
X101760000Y-82435199D01*
X101760000Y-76997440D01*
X101850000Y-76997440D01*
X102097765Y-76948157D01*
X102307809Y-76807809D01*
X102448157Y-76597765D01*
X102457184Y-76552381D01*
X102469375Y-76570625D01*
X102780000Y-76778178D01*
X102780001Y-82215148D01*
X102765112Y-82290000D01*
X102824097Y-82586537D01*
X102933320Y-82750000D01*
X102992072Y-82837929D01*
X103055528Y-82880329D01*
X103565000Y-83389802D01*
X103565000Y-83435983D01*
X103707345Y-83779635D01*
X103970365Y-84042655D01*
X104314017Y-84185000D01*
X104685983Y-84185000D01*
X105029635Y-84042655D01*
X105292655Y-83779635D01*
X105435000Y-83435983D01*
X105435000Y-83064017D01*
X105292655Y-82720365D01*
X105029635Y-82457345D01*
X104685983Y-82315000D01*
X104639802Y-82315000D01*
X104300000Y-81975199D01*
X104300000Y-79685000D01*
X104395053Y-79685000D01*
X104738705Y-79542655D01*
X105001725Y-79279635D01*
X105144070Y-78935983D01*
X105144070Y-78889801D01*
X106564473Y-77469399D01*
X106627929Y-77426999D01*
X106684999Y-77341588D01*
X106685000Y-92490198D01*
X103610199Y-95565000D01*
X103564017Y-95565000D01*
X103220365Y-95707345D01*
X102957345Y-95970365D01*
X102815000Y-96314017D01*
X102815000Y-96685983D01*
X102957345Y-97029635D01*
X103220365Y-97292655D01*
X103564017Y-97435000D01*
X103935983Y-97435000D01*
X104279635Y-97292655D01*
X104542655Y-97029635D01*
X104685000Y-96685983D01*
X104685000Y-96639801D01*
X107751256Y-93573546D01*
X107970365Y-93792655D01*
X108314017Y-93935000D01*
X108685983Y-93935000D01*
X109029635Y-93792655D01*
X109292655Y-93529635D01*
X109435000Y-93185983D01*
X109435000Y-93139801D01*
X110279474Y-92295328D01*
X110342930Y-92252928D01*
X110510905Y-92001536D01*
X110555001Y-91779851D01*
X110555001Y-91779846D01*
X110569889Y-91704999D01*
X110555001Y-91630152D01*
X110555001Y-91629802D01*
X111439250Y-92514051D01*
X111315000Y-92814017D01*
X111315000Y-93185983D01*
X111457345Y-93529635D01*
X111720365Y-93792655D01*
X112064017Y-93935000D01*
X112435983Y-93935000D01*
X112779635Y-93792655D01*
X112909108Y-93663182D01*
X112957345Y-93779635D01*
X113220365Y-94042655D01*
X113564017Y-94185000D01*
X113935983Y-94185000D01*
X114279635Y-94042655D01*
X114312290Y-94010000D01*
X117415153Y-94010000D01*
X117490000Y-94024888D01*
X117564847Y-94010000D01*
X117564852Y-94010000D01*
X117786537Y-93965904D01*
X118037929Y-93797929D01*
X118080331Y-93734470D01*
X118590890Y-93223912D01*
X118605000Y-93294847D01*
X118605001Y-96689359D01*
X118420000Y-96652560D01*
X117770000Y-96652560D01*
X117522235Y-96701843D01*
X117312191Y-96842191D01*
X117171843Y-97052235D01*
X117122560Y-97300000D01*
X117122560Y-99000000D01*
X117170298Y-99240000D01*
X100564802Y-99240000D01*
X97935000Y-96610199D01*
X97935000Y-96564017D01*
X97792655Y-96220365D01*
X97529635Y-95957345D01*
X97185983Y-95815000D01*
X96814017Y-95815000D01*
X96470365Y-95957345D01*
X96207345Y-96220365D01*
X96065000Y-96564017D01*
X96065000Y-96935983D01*
X96207345Y-97279635D01*
X96470365Y-97542655D01*
X96814017Y-97685000D01*
X96860199Y-97685000D01*
X99659671Y-100484473D01*
X99702071Y-100547929D01*
X99953463Y-100715904D01*
X100074601Y-100740000D01*
X98062290Y-100740000D01*
X98029635Y-100707345D01*
X97685983Y-100565000D01*
X97314017Y-100565000D01*
X96970365Y-100707345D01*
X96707345Y-100970365D01*
X96659844Y-101085043D01*
X95510000Y-99935199D01*
X95510000Y-93812290D01*
X95542655Y-93779635D01*
X95685000Y-93435983D01*
X95685000Y-93064017D01*
X95542655Y-92720365D01*
X95279635Y-92457345D01*
X94935983Y-92315000D01*
X94884999Y-92315000D01*
X94884999Y-91937291D01*
X94917654Y-91904636D01*
X95059999Y-91560984D01*
X95059999Y-91189018D01*
X94917654Y-90845366D01*
X94654634Y-90582346D01*
X94310982Y-90440001D01*
X93939016Y-90440001D01*
X93595364Y-90582346D01*
X93332344Y-90845366D01*
X93189999Y-91189018D01*
X93189999Y-91560984D01*
X93332344Y-91904636D01*
X93365000Y-91937292D01*
X93364999Y-100186562D01*
X93350111Y-100261409D01*
X93364999Y-100336256D01*
X93364999Y-100336260D01*
X93409095Y-100557945D01*
X93577070Y-100809338D01*
X93640529Y-100851740D01*
X98053787Y-105265000D01*
X97785750Y-105265000D01*
X97627000Y-105423750D01*
X97627000Y-106623000D01*
X97647000Y-106623000D01*
X97647000Y-106877000D01*
X97627000Y-106877000D01*
X97627000Y-108076250D01*
X97785750Y-108235000D01*
X98476310Y-108235000D01*
X98709699Y-108138327D01*
X98888327Y-107959698D01*
X98954904Y-107798967D01*
X98969375Y-107820625D01*
X99460582Y-108148839D01*
X99893744Y-108235000D01*
X100186256Y-108235000D01*
X100619418Y-108148839D01*
X101110625Y-107820625D01*
X101438839Y-107329418D01*
X101554092Y-106750000D01*
X101438839Y-106170582D01*
X101131089Y-105710001D01*
X115678502Y-105710001D01*
X115707345Y-105779635D01*
X115970365Y-106042655D01*
X116314017Y-106185000D01*
X116685983Y-106185000D01*
X117029635Y-106042655D01*
X117292655Y-105779635D01*
X117435000Y-105435983D01*
X117435000Y-105064017D01*
X117325953Y-104800755D01*
X117957296Y-105432098D01*
X117942191Y-105442191D01*
X117801843Y-105652235D01*
X117752560Y-105900000D01*
X117752560Y-107600000D01*
X117801843Y-107847765D01*
X117942191Y-108057809D01*
X118152235Y-108198157D01*
X118400000Y-108247440D01*
X120100000Y-108247440D01*
X120347765Y-108198157D01*
X120557809Y-108057809D01*
X120698157Y-107847765D01*
X120718739Y-107744292D01*
X121023076Y-108021645D01*
X121433110Y-108191476D01*
X121663000Y-108070155D01*
X121663000Y-106877000D01*
X121917000Y-106877000D01*
X121917000Y-108070155D01*
X122146890Y-108191476D01*
X122556924Y-108021645D01*
X122985183Y-107631358D01*
X123231486Y-107106892D01*
X123110819Y-106877000D01*
X121917000Y-106877000D01*
X121663000Y-106877000D01*
X121643000Y-106877000D01*
X121643000Y-106623000D01*
X121663000Y-106623000D01*
X121663000Y-105429845D01*
X121917000Y-105429845D01*
X121917000Y-106623000D01*
X123110819Y-106623000D01*
X123231486Y-106393108D01*
X122985183Y-105868642D01*
X122556924Y-105478355D01*
X122146890Y-105308524D01*
X121917000Y-105429845D01*
X121663000Y-105429845D01*
X121433110Y-105308524D01*
X121023076Y-105478355D01*
X120718739Y-105755708D01*
X120698157Y-105652235D01*
X120557809Y-105442191D01*
X120347765Y-105301843D01*
X120100000Y-105252560D01*
X119898483Y-105252560D01*
X119797929Y-105102071D01*
X119734473Y-105059671D01*
X117690331Y-103015530D01*
X117647929Y-102952071D01*
X117396537Y-102784096D01*
X117174852Y-102740000D01*
X117174847Y-102740000D01*
X117100000Y-102725112D01*
X117025153Y-102740000D01*
X103412625Y-102740000D01*
X103435000Y-102685983D01*
X103435000Y-102314017D01*
X103412625Y-102260000D01*
X119580153Y-102260000D01*
X119655000Y-102274888D01*
X119729847Y-102260000D01*
X119729852Y-102260000D01*
X119951537Y-102215904D01*
X120202929Y-102047929D01*
X120245331Y-101984470D01*
X122389473Y-99840329D01*
X122452929Y-99797929D01*
X122620904Y-99546537D01*
X122631003Y-99495766D01*
X122687809Y-99457809D01*
X122828157Y-99247765D01*
X122877440Y-99000000D01*
X122877440Y-97300000D01*
X122828157Y-97052235D01*
X122687809Y-96842191D01*
X122477765Y-96701843D01*
X122230000Y-96652560D01*
X121580000Y-96652560D01*
X121332235Y-96701843D01*
X121270000Y-96743427D01*
X121207765Y-96701843D01*
X120960000Y-96652560D01*
X120310000Y-96652560D01*
X120125000Y-96689358D01*
X120125000Y-93534801D01*
X121119473Y-92540329D01*
X121182929Y-92497929D01*
X121326889Y-92282477D01*
X121453690Y-92335000D01*
X121619250Y-92335000D01*
X121778000Y-92176250D01*
X121778000Y-90977000D01*
X122032000Y-90977000D01*
X122032000Y-92176250D01*
X122190750Y-92335000D01*
X122356310Y-92335000D01*
X122589699Y-92238327D01*
X122768327Y-92059698D01*
X122865000Y-91826309D01*
X122865000Y-91135750D01*
X122706250Y-90977000D01*
X122032000Y-90977000D01*
X121778000Y-90977000D01*
X121758000Y-90977000D01*
X121758000Y-90723000D01*
X121778000Y-90723000D01*
X121778000Y-89523750D01*
X122032000Y-89523750D01*
X122032000Y-90723000D01*
X122706250Y-90723000D01*
X122865000Y-90564250D01*
X122865000Y-89873691D01*
X122768327Y-89640302D01*
X122589699Y-89461673D01*
X122356310Y-89365000D01*
X122190750Y-89365000D01*
X122032000Y-89523750D01*
X121778000Y-89523750D01*
X121619250Y-89365000D01*
X121520000Y-89365000D01*
X121520000Y-88599702D01*
X121527765Y-88598157D01*
X121737809Y-88457809D01*
X121754622Y-88432647D01*
X121860302Y-88538327D01*
X122093691Y-88635000D01*
X122506750Y-88635000D01*
X122665500Y-88476250D01*
X122665500Y-87377000D01*
X122919500Y-87377000D01*
X122919500Y-88476250D01*
X123078250Y-88635000D01*
X123491309Y-88635000D01*
X123724698Y-88538327D01*
X123903327Y-88359699D01*
X124000000Y-88126310D01*
X124000000Y-87535750D01*
X123841250Y-87377000D01*
X122919500Y-87377000D01*
X122665500Y-87377000D01*
X122645500Y-87377000D01*
X122645500Y-87123000D01*
X122665500Y-87123000D01*
X122665500Y-86023750D01*
X122919500Y-86023750D01*
X122919500Y-87123000D01*
X123841250Y-87123000D01*
X124000000Y-86964250D01*
X124000000Y-86373690D01*
X123903327Y-86140301D01*
X123724698Y-85961673D01*
X123491309Y-85865000D01*
X123078250Y-85865000D01*
X122919500Y-86023750D01*
X122665500Y-86023750D01*
X122506750Y-85865000D01*
X122093691Y-85865000D01*
X121860302Y-85961673D01*
X121754622Y-86067353D01*
X121737809Y-86042191D01*
X121592500Y-85945098D01*
X121592500Y-78044659D01*
X121609837Y-77957499D01*
X121592500Y-77870339D01*
X121592500Y-77870335D01*
X121541152Y-77612190D01*
X121417411Y-77426999D01*
X121394924Y-77393345D01*
X121394923Y-77393344D01*
X121345549Y-77319451D01*
X121271656Y-77270077D01*
X120335000Y-76333422D01*
X120335000Y-76284180D01*
X120169818Y-75885397D01*
X120159421Y-75875000D01*
X120169818Y-75864603D01*
X120335000Y-75465820D01*
X120335000Y-75034180D01*
X120169818Y-74635397D01*
X119864603Y-74330182D01*
X119465820Y-74165000D01*
X119034180Y-74165000D01*
X118635397Y-74330182D01*
X118330182Y-74635397D01*
X118165000Y-75034180D01*
X118165000Y-75465820D01*
X118330182Y-75864603D01*
X118340579Y-75875000D01*
X118330182Y-75885397D01*
X118165000Y-76284180D01*
X118165000Y-76715820D01*
X118330182Y-77114603D01*
X118635397Y-77419818D01*
X119034180Y-77585000D01*
X119083422Y-77585000D01*
X119822501Y-78324080D01*
X119822500Y-85945098D01*
X119677191Y-86042191D01*
X119536843Y-86252235D01*
X119487560Y-86500000D01*
X119487560Y-88000000D01*
X119536843Y-88247765D01*
X119677191Y-88457809D01*
X119750001Y-88506459D01*
X119750000Y-89364495D01*
X119690000Y-89352560D01*
X119040000Y-89352560D01*
X118980000Y-89364495D01*
X118980000Y-88466691D01*
X118997765Y-88463157D01*
X119207809Y-88322809D01*
X119348157Y-88112765D01*
X119397440Y-87865000D01*
X119397440Y-86720000D01*
X119348157Y-86472235D01*
X119207809Y-86262191D01*
X119182647Y-86245378D01*
X119288327Y-86139698D01*
X119385000Y-85906309D01*
X119385000Y-85493250D01*
X119226250Y-85334500D01*
X118127000Y-85334500D01*
X118127000Y-85354500D01*
X117873000Y-85354500D01*
X117873000Y-85334500D01*
X116773750Y-85334500D01*
X116615000Y-85493250D01*
X116615000Y-85906309D01*
X116711673Y-86139698D01*
X116817353Y-86245378D01*
X116792191Y-86262191D01*
X116651843Y-86472235D01*
X116602560Y-86720000D01*
X116602560Y-87865000D01*
X116651843Y-88112765D01*
X116792191Y-88322809D01*
X117002235Y-88463157D01*
X117210001Y-88504484D01*
X117210000Y-89695129D01*
X117171843Y-89752235D01*
X117122560Y-90000000D01*
X117122560Y-91272638D01*
X116905199Y-91490000D01*
X113562290Y-91490000D01*
X113529635Y-91457345D01*
X113185983Y-91315000D01*
X112814017Y-91315000D01*
X112514051Y-91439250D01*
X111005011Y-89930210D01*
X111005011Y-84508691D01*
X116615000Y-84508691D01*
X116615000Y-84921750D01*
X116773750Y-85080500D01*
X117873000Y-85080500D01*
X117873000Y-84158750D01*
X118127000Y-84158750D01*
X118127000Y-85080500D01*
X119226250Y-85080500D01*
X119385000Y-84921750D01*
X119385000Y-84508691D01*
X119288327Y-84275302D01*
X119109699Y-84096673D01*
X118876310Y-84000000D01*
X118285750Y-84000000D01*
X118127000Y-84158750D01*
X117873000Y-84158750D01*
X117714250Y-84000000D01*
X117123690Y-84000000D01*
X116890301Y-84096673D01*
X116711673Y-84275302D01*
X116615000Y-84508691D01*
X111005011Y-84508691D01*
X111005011Y-84057006D01*
X111314017Y-84185000D01*
X111685983Y-84185000D01*
X112029635Y-84042655D01*
X112292655Y-83779635D01*
X112435000Y-83435983D01*
X112435000Y-83367618D01*
X112488346Y-83287780D01*
X112515903Y-83246539D01*
X112538703Y-83131915D01*
X112559999Y-83024853D01*
X112559999Y-83024849D01*
X112574887Y-82950001D01*
X112559999Y-82875153D01*
X112559999Y-82539801D01*
X113009472Y-82090329D01*
X113072928Y-82047929D01*
X113170210Y-81902337D01*
X113240903Y-81796538D01*
X113259416Y-81703464D01*
X113284999Y-81574852D01*
X113284999Y-81574848D01*
X113299887Y-81500000D01*
X113284999Y-81425152D01*
X113284999Y-76931543D01*
X113553744Y-76985000D01*
X113846256Y-76985000D01*
X114279418Y-76898839D01*
X114770625Y-76570625D01*
X114983843Y-76251522D01*
X115044817Y-76381358D01*
X115473076Y-76771645D01*
X115883110Y-76941476D01*
X116113000Y-76820155D01*
X116113000Y-75627000D01*
X116367000Y-75627000D01*
X116367000Y-76820155D01*
X116596890Y-76941476D01*
X117006924Y-76771645D01*
X117435183Y-76381358D01*
X117681486Y-75856892D01*
X117560819Y-75627000D01*
X116367000Y-75627000D01*
X116113000Y-75627000D01*
X116093000Y-75627000D01*
X116093000Y-75373000D01*
X116113000Y-75373000D01*
X116113000Y-73087000D01*
X116367000Y-73087000D01*
X116367000Y-75373000D01*
X117560819Y-75373000D01*
X117681486Y-75143108D01*
X117435183Y-74618642D01*
X117008729Y-74230000D01*
X117435183Y-73841358D01*
X117681486Y-73316892D01*
X117560819Y-73087000D01*
X116367000Y-73087000D01*
X116113000Y-73087000D01*
X116093000Y-73087000D01*
X116093000Y-72833000D01*
X116113000Y-72833000D01*
X116113000Y-71639845D01*
X116367000Y-71639845D01*
X116367000Y-72833000D01*
X117560819Y-72833000D01*
X117681486Y-72603108D01*
X117435183Y-72078642D01*
X117006924Y-71688355D01*
X116596890Y-71518524D01*
X116367000Y-71639845D01*
X116113000Y-71639845D01*
X115883110Y-71518524D01*
X115473076Y-71688355D01*
X115044817Y-72078642D01*
X114983843Y-72208478D01*
X114770625Y-71889375D01*
X114598999Y-71774698D01*
X114602337Y-71757919D01*
X114585000Y-71670758D01*
X114585000Y-71670754D01*
X114533652Y-71412609D01*
X114338049Y-71119870D01*
X114264153Y-71070494D01*
X113879506Y-70685847D01*
X113830130Y-70611951D01*
X113537391Y-70416348D01*
X113279246Y-70365000D01*
X113279242Y-70365000D01*
X113192081Y-70347663D01*
X113104920Y-70365000D01*
X111893251Y-70365000D01*
X112415606Y-70075212D01*
X112789554Y-69604752D01*
X112955000Y-69027000D01*
X112955000Y-68127000D01*
X111547000Y-68127000D01*
X111547000Y-68147000D01*
X111293000Y-68147000D01*
X111293000Y-68127000D01*
X109885000Y-68127000D01*
X109885000Y-69027000D01*
X110050446Y-69604752D01*
X110424394Y-70075212D01*
X110946749Y-70365000D01*
X106843095Y-70365000D01*
X106938926Y-70345938D01*
X107446673Y-70006673D01*
X107785938Y-69498927D01*
X107875000Y-69051182D01*
X107875000Y-66973000D01*
X109885000Y-66973000D01*
X109885000Y-67873000D01*
X111293000Y-67873000D01*
X111293000Y-65729622D01*
X111547000Y-65729622D01*
X111547000Y-67873000D01*
X112955000Y-67873000D01*
X112955000Y-66973000D01*
X112789554Y-66395248D01*
X112415606Y-65924788D01*
X111890086Y-65633244D01*
X111784740Y-65608964D01*
X111547000Y-65729622D01*
X111293000Y-65729622D01*
X111055260Y-65608964D01*
X110949914Y-65633244D01*
X110424394Y-65924788D01*
X110050446Y-66395248D01*
X109885000Y-66973000D01*
X107875000Y-66973000D01*
X107875000Y-66948818D01*
X107785938Y-66501073D01*
X107446673Y-65993327D01*
X106938927Y-65654062D01*
X106340000Y-65534928D01*
X105927500Y-65616979D01*
X105927500Y-65551129D01*
X105963157Y-65497765D01*
X105985587Y-65385000D01*
X110272839Y-65385000D01*
X110360000Y-65402337D01*
X110447161Y-65385000D01*
X110447165Y-65385000D01*
X110705310Y-65333652D01*
X110998049Y-65138049D01*
X111047425Y-65064153D01*
X113449156Y-62662423D01*
X113523049Y-62613049D01*
X113572425Y-62539154D01*
X113718651Y-62320311D01*
X113718652Y-62320310D01*
X113760485Y-62110000D01*
X113869250Y-62110000D01*
X114028000Y-61951250D01*
X114028000Y-60827000D01*
X114282000Y-60827000D01*
X114282000Y-61951250D01*
X114440750Y-62110000D01*
X114581310Y-62110000D01*
X114814699Y-62013327D01*
X114993327Y-61834698D01*
X115090000Y-61601309D01*
X115090000Y-61078250D01*
X115865000Y-61078250D01*
X115865000Y-61491309D01*
X115961673Y-61724698D01*
X116140301Y-61903327D01*
X116373690Y-62000000D01*
X116964250Y-62000000D01*
X117123000Y-61841250D01*
X117123000Y-60919500D01*
X117377000Y-60919500D01*
X117377000Y-61841250D01*
X117535750Y-62000000D01*
X118126310Y-62000000D01*
X118359699Y-61903327D01*
X118538327Y-61724698D01*
X118635000Y-61491309D01*
X118635000Y-61078250D01*
X118476250Y-60919500D01*
X117377000Y-60919500D01*
X117123000Y-60919500D01*
X116023750Y-60919500D01*
X115865000Y-61078250D01*
X115090000Y-61078250D01*
X115090000Y-60985750D01*
X114931250Y-60827000D01*
X114282000Y-60827000D01*
X114028000Y-60827000D01*
X114008000Y-60827000D01*
X114008000Y-60573000D01*
X114028000Y-60573000D01*
X114028000Y-60553000D01*
X114282000Y-60553000D01*
X114282000Y-60573000D01*
X114931250Y-60573000D01*
X115090000Y-60414250D01*
X115090000Y-59798691D01*
X115004593Y-59592500D01*
X115945098Y-59592500D01*
X116042191Y-59737809D01*
X116067353Y-59754622D01*
X115961673Y-59860302D01*
X115865000Y-60093691D01*
X115865000Y-60506750D01*
X116023750Y-60665500D01*
X117123000Y-60665500D01*
X117123000Y-60645500D01*
X117377000Y-60645500D01*
X117377000Y-60665500D01*
X118476250Y-60665500D01*
X118635000Y-60506750D01*
X118635000Y-60169421D01*
X118635397Y-60169818D01*
X119034180Y-60335000D01*
X119365000Y-60335000D01*
X119365000Y-61583421D01*
X115935845Y-65012577D01*
X115861952Y-65061951D01*
X115812578Y-65135844D01*
X115812576Y-65135846D01*
X115666348Y-65354691D01*
X115626990Y-65552560D01*
X115600000Y-65552560D01*
X115352235Y-65601843D01*
X115142191Y-65742191D01*
X115001843Y-65952235D01*
X114952560Y-66200000D01*
X114952560Y-69800000D01*
X115001843Y-70047765D01*
X115142191Y-70257809D01*
X115352235Y-70398157D01*
X115600000Y-70447440D01*
X117400000Y-70447440D01*
X117647765Y-70398157D01*
X117857809Y-70257809D01*
X117998157Y-70047765D01*
X118047440Y-69800000D01*
X118047440Y-66200000D01*
X117998157Y-65952235D01*
X117857809Y-65742191D01*
X117768837Y-65682741D01*
X120814156Y-62637423D01*
X120888049Y-62588049D01*
X120982169Y-62447190D01*
X121083652Y-62295310D01*
X121096972Y-62228346D01*
X121135000Y-62037165D01*
X121135000Y-62037161D01*
X121152337Y-61950000D01*
X121135000Y-61862839D01*
X121135000Y-55087159D01*
X121152337Y-54999999D01*
X121135000Y-54912839D01*
X121135000Y-54912835D01*
X121083652Y-54654690D01*
X121011615Y-54546880D01*
X120937424Y-54435845D01*
X120937423Y-54435844D01*
X120888049Y-54361951D01*
X120814156Y-54312577D01*
X118187425Y-51685847D01*
X118138049Y-51611951D01*
X117845310Y-51416348D01*
X117587165Y-51365000D01*
X117587161Y-51365000D01*
X117500000Y-51347663D01*
X117412839Y-51365000D01*
X95899421Y-51365000D01*
X95864603Y-51330182D01*
X95465820Y-51165000D01*
X95034180Y-51165000D01*
X94635397Y-51330182D01*
X94625000Y-51340579D01*
X94614603Y-51330182D01*
X94215820Y-51165000D01*
X93784180Y-51165000D01*
X93500000Y-51282712D01*
X93215820Y-51165000D01*
X92784180Y-51165000D01*
X92385397Y-51330182D01*
X92350579Y-51365000D01*
X92337159Y-51365000D01*
X92249999Y-51347663D01*
X92162839Y-51365000D01*
X92162835Y-51365000D01*
X91904690Y-51416348D01*
X91904688Y-51416349D01*
X91904689Y-51416349D01*
X91685845Y-51562576D01*
X91685844Y-51562577D01*
X91611951Y-51611951D01*
X91562577Y-51685844D01*
X88935847Y-54312575D01*
X88861951Y-54361951D01*
X88666348Y-54654691D01*
X88615000Y-54912836D01*
X88615000Y-54912839D01*
X88597663Y-55000000D01*
X88615000Y-55087161D01*
X88615000Y-55600579D01*
X88580182Y-55635397D01*
X88415000Y-56034180D01*
X88415000Y-56465820D01*
X88580182Y-56864603D01*
X88590579Y-56875000D01*
X88580182Y-56885397D01*
X88415000Y-57284180D01*
X88415000Y-57715820D01*
X88580182Y-58114603D01*
X88885397Y-58419818D01*
X89284180Y-58585000D01*
X89715820Y-58585000D01*
X90114603Y-58419818D01*
X90419818Y-58114603D01*
X90585000Y-57715820D01*
X90585000Y-57284180D01*
X90419818Y-56885397D01*
X90409421Y-56875000D01*
X90419818Y-56864603D01*
X90585000Y-56465820D01*
X90585000Y-56034180D01*
X90419818Y-55635397D01*
X90385000Y-55600579D01*
X90385000Y-55366578D01*
X92524247Y-53227332D01*
X92784180Y-53335000D01*
X93215820Y-53335000D01*
X93500000Y-53217288D01*
X93784180Y-53335000D01*
X94215820Y-53335000D01*
X94614603Y-53169818D01*
X94625000Y-53159421D01*
X94635397Y-53169818D01*
X95034180Y-53335000D01*
X95465820Y-53335000D01*
X95864603Y-53169818D01*
X95899421Y-53135000D01*
X101645022Y-53135000D01*
X101470365Y-53207345D01*
X101207345Y-53470365D01*
X101065000Y-53814017D01*
X101065000Y-54185983D01*
X101207345Y-54529635D01*
X101470365Y-54792655D01*
X101814017Y-54935000D01*
X102185983Y-54935000D01*
X102529635Y-54792655D01*
X102562290Y-54760000D01*
X109205199Y-54760000D01*
X109397560Y-54952362D01*
X109397560Y-56075000D01*
X109446843Y-56322765D01*
X109587191Y-56532809D01*
X109797235Y-56673157D01*
X110045000Y-56722440D01*
X110645000Y-56722440D01*
X110892765Y-56673157D01*
X110980000Y-56614868D01*
X111067235Y-56673157D01*
X111226447Y-56704826D01*
X111220365Y-56707345D01*
X110957345Y-56970365D01*
X110815000Y-57314017D01*
X110815000Y-57685983D01*
X110879447Y-57841573D01*
X110717190Y-57873848D01*
X110717188Y-57873849D01*
X110717189Y-57873849D01*
X110498345Y-58020076D01*
X110498344Y-58020077D01*
X110424451Y-58069451D01*
X110375077Y-58143344D01*
X109780845Y-58737577D01*
X109706952Y-58786951D01*
X109657578Y-58860844D01*
X109657576Y-58860846D01*
X109511348Y-59079691D01*
X109442663Y-59425000D01*
X109460001Y-59512165D01*
X109460001Y-59657543D01*
X109446843Y-59677235D01*
X109397560Y-59925000D01*
X109397560Y-61475000D01*
X109425407Y-61615000D01*
X103087159Y-61615000D01*
X102999999Y-61597663D01*
X102912840Y-61615000D01*
X102912835Y-61615000D01*
X102654690Y-61666348D01*
X102361951Y-61861951D01*
X102312576Y-61935846D01*
X102143347Y-62105075D01*
X102069451Y-62154451D01*
X101873848Y-62447191D01*
X101822500Y-62705336D01*
X101822500Y-62705339D01*
X101805163Y-62792500D01*
X101822500Y-62879661D01*
X101822500Y-63195098D01*
X101677191Y-63292191D01*
X101536843Y-63502235D01*
X101487560Y-63750000D01*
X101487560Y-65250000D01*
X101536843Y-65497765D01*
X101572501Y-65551130D01*
X101572501Y-65597088D01*
X101260000Y-65534928D01*
X100661074Y-65654062D01*
X100153328Y-65993327D01*
X99814063Y-66501073D01*
X99725001Y-66948818D01*
X99725000Y-69051181D01*
X99814062Y-69498926D01*
X100153327Y-70006673D01*
X100661073Y-70345938D01*
X100756904Y-70365000D01*
X98587161Y-70365000D01*
X98500000Y-70347663D01*
X98412839Y-70365000D01*
X98412835Y-70365000D01*
X98154690Y-70416348D01*
X97935845Y-70562576D01*
X97935844Y-70562577D01*
X97861951Y-70611951D01*
X97812577Y-70685844D01*
X96185847Y-72312575D01*
X96111951Y-72361951D01*
X95916348Y-72654691D01*
X95865000Y-72912836D01*
X95865000Y-72912839D01*
X95847663Y-73000000D01*
X95865000Y-73087161D01*
X95865001Y-75883420D01*
X94383422Y-77365000D01*
X86047159Y-77365000D01*
X85959999Y-77347663D01*
X85872839Y-77365000D01*
X85872835Y-77365000D01*
X85614690Y-77416348D01*
X85614688Y-77416349D01*
X85614689Y-77416349D01*
X85395845Y-77562576D01*
X85395844Y-77562577D01*
X85321951Y-77611951D01*
X85272577Y-77685844D01*
X83428960Y-79529462D01*
X83356256Y-79515000D01*
X83063744Y-79515000D01*
X82630582Y-79601161D01*
X82139375Y-79929375D01*
X81940000Y-80227761D01*
X81740625Y-79929375D01*
X81249418Y-79601161D01*
X80816256Y-79515000D01*
X80523744Y-79515000D01*
X80090582Y-79601161D01*
X79599375Y-79929375D01*
X79271161Y-80420582D01*
X79155908Y-81000000D01*
X78324802Y-81000000D01*
X69720000Y-72395199D01*
X69720000Y-53470196D01*
X70051727Y-53138469D01*
X70199780Y-52781037D01*
X70199780Y-53061780D01*
X70249063Y-53309545D01*
X70389411Y-53519589D01*
X70599455Y-53659937D01*
X70847220Y-53709220D01*
X72152780Y-53709220D01*
X72400545Y-53659937D01*
X72610589Y-53519589D01*
X72750937Y-53309545D01*
X72800220Y-53061780D01*
X72800220Y-51756220D01*
X72750937Y-51508455D01*
X72610589Y-51298411D01*
X72400545Y-51158063D01*
X72152780Y-51108780D01*
X70847220Y-51108780D01*
X70599455Y-51158063D01*
X70389411Y-51298411D01*
X70249063Y-51508455D01*
X70199780Y-51756220D01*
X70199780Y-52036963D01*
X70051727Y-51679531D01*
X69689469Y-51317273D01*
X69216155Y-51121220D01*
X68703845Y-51121220D01*
X68230531Y-51317273D01*
X67868273Y-51679531D01*
X67690000Y-52109920D01*
X67511727Y-51679531D01*
X67149469Y-51317273D01*
X66676155Y-51121220D01*
X66163845Y-51121220D01*
X65690531Y-51317273D01*
X65328273Y-51679531D01*
X65150000Y-52109920D01*
X64971727Y-51679531D01*
X64609469Y-51317273D01*
X64136155Y-51121220D01*
X63623845Y-51121220D01*
X63150531Y-51317273D01*
X62788273Y-51679531D01*
X62610000Y-52109920D01*
X62431727Y-51679531D01*
X62069469Y-51317273D01*
X61596155Y-51121220D01*
X61083845Y-51121220D01*
X60610531Y-51317273D01*
X60248273Y-51679531D01*
X60052220Y-52152845D01*
X50710000Y-52152845D01*
X50710000Y-50710000D01*
X124290000Y-50710000D01*
X124290000Y-66134389D01*
G36*
X83240000Y-117584802D02*
X83240001Y-120425148D01*
X83225112Y-120500000D01*
X83284097Y-120796537D01*
X83400001Y-120969999D01*
X83452072Y-121047929D01*
X83515528Y-121090329D01*
X83865209Y-121440010D01*
X78764812Y-121440010D01*
X78510000Y-121185199D01*
X78510000Y-120906796D01*
X78543327Y-120956673D01*
X79051073Y-121295938D01*
X79498818Y-121385000D01*
X80501182Y-121385000D01*
X80948927Y-121295938D01*
X81456673Y-120956673D01*
X81795938Y-120448927D01*
X81915072Y-119850000D01*
X81795938Y-119251073D01*
X81456673Y-118743327D01*
X81194723Y-118568297D01*
X81525212Y-118305606D01*
X81816756Y-117780086D01*
X81841036Y-117674740D01*
X81720378Y-117437000D01*
X80127000Y-117437000D01*
X80127000Y-117457000D01*
X79873000Y-117457000D01*
X79873000Y-117437000D01*
X79853000Y-117437000D01*
X79853000Y-117183000D01*
X79873000Y-117183000D01*
X79873000Y-117163000D01*
X80127000Y-117163000D01*
X80127000Y-117183000D01*
X81720378Y-117183000D01*
X81841036Y-116945260D01*
X81816756Y-116839914D01*
X81525212Y-116314394D01*
X81194723Y-116051703D01*
X81456673Y-115876673D01*
X81486793Y-115831595D01*
X83240000Y-117584802D01*
X83240000Y-117584802D01*
G37*
X83240000Y-117584802D02*
X83240001Y-120425148D01*
X83225112Y-120500000D01*
X83284097Y-120796537D01*
X83400001Y-120969999D01*
X83452072Y-121047929D01*
X83515528Y-121090329D01*
X83865209Y-121440010D01*
X78764812Y-121440010D01*
X78510000Y-121185199D01*
X78510000Y-120906796D01*
X78543327Y-120956673D01*
X79051073Y-121295938D01*
X79498818Y-121385000D01*
X80501182Y-121385000D01*
X80948927Y-121295938D01*
X81456673Y-120956673D01*
X81795938Y-120448927D01*
X81915072Y-119850000D01*
X81795938Y-119251073D01*
X81456673Y-118743327D01*
X81194723Y-118568297D01*
X81525212Y-118305606D01*
X81816756Y-117780086D01*
X81841036Y-117674740D01*
X81720378Y-117437000D01*
X80127000Y-117437000D01*
X80127000Y-117457000D01*
X79873000Y-117457000D01*
X79873000Y-117437000D01*
X79853000Y-117437000D01*
X79853000Y-117183000D01*
X79873000Y-117183000D01*
X79873000Y-117163000D01*
X80127000Y-117163000D01*
X80127000Y-117183000D01*
X81720378Y-117183000D01*
X81841036Y-116945260D01*
X81816756Y-116839914D01*
X81525212Y-116314394D01*
X81194723Y-116051703D01*
X81456673Y-115876673D01*
X81486793Y-115831595D01*
X83240000Y-117584802D01*
M02*
