G04 #@! TF.GenerationSoftware,KiCad,Pcbnew,5.0.0-rc1-44a33f2~62~ubuntu16.04.1*
G04 #@! TF.CreationDate,2018-04-01T18:26:25+03:00*
G04 #@! TF.ProjectId,ParaboxAirQuality,50617261626F784169725175616C6974,rev?*
G04 #@! TF.SameCoordinates,Original*
G04 #@! TF.FileFunction,Legend,Top*
G04 #@! TF.FilePolarity,Positive*
%FSLAX46Y46*%
G04 Gerber Fmt 4.6, Leading zero omitted, Abs format (unit mm)*
G04 Created by KiCad (PCBNEW 5.0.0-rc1-44a33f2~62~ubuntu16.04.1) date Sun Apr  1 18:26:25 2018*
%MOMM*%
%LPD*%
G01*
G04 APERTURE LIST*
%ADD10C,0.300000*%
%ADD11C,0.127000*%
%ADD12C,0.120000*%
%ADD13C,0.150000*%
%ADD14C,0.101600*%
G04 APERTURE END LIST*
D10*
X54333333Y-86500000D02*
X54333333Y-85785714D01*
X54904761Y-86642857D02*
X52904761Y-86142857D01*
X54904761Y-85642857D01*
X54904761Y-85142857D02*
X53571428Y-85142857D01*
X52904761Y-85142857D02*
X53000000Y-85214285D01*
X53095238Y-85142857D01*
X53000000Y-85071428D01*
X52904761Y-85142857D01*
X53095238Y-85142857D01*
X54904761Y-84428571D02*
X53571428Y-84428571D01*
X53952380Y-84428571D02*
X53761904Y-84357142D01*
X53666666Y-84285714D01*
X53571428Y-84142857D01*
X53571428Y-84000000D01*
X55095238Y-81357142D02*
X55000000Y-81500000D01*
X54809523Y-81642857D01*
X54523809Y-81857142D01*
X54428571Y-82000000D01*
X54428571Y-82142857D01*
X54904761Y-82071428D02*
X54809523Y-82214285D01*
X54619047Y-82357142D01*
X54238095Y-82428571D01*
X53571428Y-82428571D01*
X53190476Y-82357142D01*
X53000000Y-82214285D01*
X52904761Y-82071428D01*
X52904761Y-81785714D01*
X53000000Y-81642857D01*
X53190476Y-81500000D01*
X53571428Y-81428571D01*
X54238095Y-81428571D01*
X54619047Y-81500000D01*
X54809523Y-81642857D01*
X54904761Y-81785714D01*
X54904761Y-82071428D01*
X53571428Y-80142857D02*
X54904761Y-80142857D01*
X53571428Y-80785714D02*
X54619047Y-80785714D01*
X54809523Y-80714285D01*
X54904761Y-80571428D01*
X54904761Y-80357142D01*
X54809523Y-80214285D01*
X54714285Y-80142857D01*
X54904761Y-78785714D02*
X53857142Y-78785714D01*
X53666666Y-78857142D01*
X53571428Y-79000000D01*
X53571428Y-79285714D01*
X53666666Y-79428571D01*
X54809523Y-78785714D02*
X54904761Y-78928571D01*
X54904761Y-79285714D01*
X54809523Y-79428571D01*
X54619047Y-79500000D01*
X54428571Y-79500000D01*
X54238095Y-79428571D01*
X54142857Y-79285714D01*
X54142857Y-78928571D01*
X54047619Y-78785714D01*
X54904761Y-77857142D02*
X54809523Y-78000000D01*
X54619047Y-78071428D01*
X52904761Y-78071428D01*
X54904761Y-77285714D02*
X53571428Y-77285714D01*
X52904761Y-77285714D02*
X53000000Y-77357142D01*
X53095238Y-77285714D01*
X53000000Y-77214285D01*
X52904761Y-77285714D01*
X53095238Y-77285714D01*
X53571428Y-76785714D02*
X53571428Y-76214285D01*
X52904761Y-76571428D02*
X54619047Y-76571428D01*
X54809523Y-76500000D01*
X54904761Y-76357142D01*
X54904761Y-76214285D01*
X53571428Y-75857142D02*
X54904761Y-75500000D01*
X53571428Y-75142857D02*
X54904761Y-75500000D01*
X55380952Y-75642857D01*
X55476190Y-75714285D01*
X55571428Y-75857142D01*
X54904761Y-72642857D02*
X54904761Y-73500000D01*
X54904761Y-73071428D02*
X52904761Y-73071428D01*
X53190476Y-73214285D01*
X53380952Y-73357142D01*
X53476190Y-73500000D01*
X54714285Y-72000000D02*
X54809523Y-71928571D01*
X54904761Y-72000000D01*
X54809523Y-72071428D01*
X54714285Y-72000000D01*
X54904761Y-72000000D01*
X52904761Y-71000000D02*
X52904761Y-70857142D01*
X53000000Y-70714285D01*
X53095238Y-70642857D01*
X53285714Y-70571428D01*
X53666666Y-70500000D01*
X54142857Y-70500000D01*
X54523809Y-70571428D01*
X54714285Y-70642857D01*
X54809523Y-70714285D01*
X54904761Y-70857142D01*
X54904761Y-71000000D01*
X54809523Y-71142857D01*
X54714285Y-71214285D01*
X54523809Y-71285714D01*
X54142857Y-71357142D01*
X53666666Y-71357142D01*
X53285714Y-71285714D01*
X53095238Y-71214285D01*
X53000000Y-71142857D01*
X52904761Y-71000000D01*
X52857142Y-119380952D02*
X55857142Y-119380952D01*
X53000000Y-119380952D02*
X52857142Y-119190476D01*
X52857142Y-118809523D01*
X53000000Y-118619047D01*
X53142857Y-118523809D01*
X53428571Y-118428571D01*
X54285714Y-118428571D01*
X54571428Y-118523809D01*
X54714285Y-118619047D01*
X54857142Y-118809523D01*
X54857142Y-119190476D01*
X54714285Y-119380952D01*
X54857142Y-116714285D02*
X53285714Y-116714285D01*
X53000000Y-116809523D01*
X52857142Y-117000000D01*
X52857142Y-117380952D01*
X53000000Y-117571428D01*
X54714285Y-116714285D02*
X54857142Y-116904761D01*
X54857142Y-117380952D01*
X54714285Y-117571428D01*
X54428571Y-117666666D01*
X54142857Y-117666666D01*
X53857142Y-117571428D01*
X53714285Y-117380952D01*
X53714285Y-116904761D01*
X53571428Y-116714285D01*
X54857142Y-115761904D02*
X52857142Y-115761904D01*
X53428571Y-115761904D02*
X53142857Y-115666666D01*
X53000000Y-115571428D01*
X52857142Y-115380952D01*
X52857142Y-115190476D01*
X54857142Y-113666666D02*
X53285714Y-113666666D01*
X53000000Y-113761904D01*
X52857142Y-113952380D01*
X52857142Y-114333333D01*
X53000000Y-114523809D01*
X54714285Y-113666666D02*
X54857142Y-113857142D01*
X54857142Y-114333333D01*
X54714285Y-114523809D01*
X54428571Y-114619047D01*
X54142857Y-114619047D01*
X53857142Y-114523809D01*
X53714285Y-114333333D01*
X53714285Y-113857142D01*
X53571428Y-113666666D01*
X54857142Y-112714285D02*
X51857142Y-112714285D01*
X53000000Y-112714285D02*
X52857142Y-112523809D01*
X52857142Y-112142857D01*
X53000000Y-111952380D01*
X53142857Y-111857142D01*
X53428571Y-111761904D01*
X54285714Y-111761904D01*
X54571428Y-111857142D01*
X54714285Y-111952380D01*
X54857142Y-112142857D01*
X54857142Y-112523809D01*
X54714285Y-112714285D01*
X54857142Y-110619047D02*
X54714285Y-110809523D01*
X54571428Y-110904761D01*
X54285714Y-111000000D01*
X53428571Y-111000000D01*
X53142857Y-110904761D01*
X53000000Y-110809523D01*
X52857142Y-110619047D01*
X52857142Y-110333333D01*
X53000000Y-110142857D01*
X53142857Y-110047619D01*
X53428571Y-109952380D01*
X54285714Y-109952380D01*
X54571428Y-110047619D01*
X54714285Y-110142857D01*
X54857142Y-110333333D01*
X54857142Y-110619047D01*
X54857142Y-109285714D02*
X52857142Y-108238095D01*
X52857142Y-109285714D02*
X54857142Y-108238095D01*
X54571428Y-107476190D02*
X54714285Y-107380952D01*
X54857142Y-107476190D01*
X54714285Y-107571428D01*
X54571428Y-107476190D01*
X54857142Y-107476190D01*
X54857142Y-106238095D02*
X54714285Y-106428571D01*
X54571428Y-106523809D01*
X54285714Y-106619047D01*
X53428571Y-106619047D01*
X53142857Y-106523809D01*
X53000000Y-106428571D01*
X52857142Y-106238095D01*
X52857142Y-105952380D01*
X53000000Y-105761904D01*
X53142857Y-105666666D01*
X53428571Y-105571428D01*
X54285714Y-105571428D01*
X54571428Y-105666666D01*
X54714285Y-105761904D01*
X54857142Y-105952380D01*
X54857142Y-106238095D01*
X54857142Y-104714285D02*
X52857142Y-104714285D01*
X53428571Y-104714285D02*
X53142857Y-104619047D01*
X53000000Y-104523809D01*
X52857142Y-104333333D01*
X52857142Y-104142857D01*
X52857142Y-102619047D02*
X55285714Y-102619047D01*
X55571428Y-102714285D01*
X55714285Y-102809523D01*
X55857142Y-103000000D01*
X55857142Y-103285714D01*
X55714285Y-103476190D01*
X54714285Y-102619047D02*
X54857142Y-102809523D01*
X54857142Y-103190476D01*
X54714285Y-103380952D01*
X54571428Y-103476190D01*
X54285714Y-103571428D01*
X53428571Y-103571428D01*
X53142857Y-103476190D01*
X53000000Y-103380952D01*
X52857142Y-103190476D01*
X52857142Y-102809523D01*
X53000000Y-102619047D01*
D11*
X56260000Y-83905000D02*
X76580000Y-83905000D01*
X76580000Y-83905000D02*
X76580000Y-50504000D01*
X76580000Y-50504000D02*
X56260000Y-50504000D01*
X56260000Y-50504000D02*
X56260000Y-83905000D01*
D12*
X81210000Y-66400000D02*
X81210000Y-66100000D01*
X79790000Y-66400000D02*
X79790000Y-66100000D01*
X85350000Y-66340000D02*
X86650000Y-66340000D01*
X85350000Y-68160000D02*
X86650000Y-68160000D01*
X91900000Y-63340000D02*
X90600000Y-63340000D01*
X91900000Y-65160000D02*
X90600000Y-65160000D01*
X66210000Y-97100000D02*
X66210000Y-97400000D01*
X64790000Y-97100000D02*
X64790000Y-97400000D01*
X65460000Y-87150000D02*
X65460000Y-86850000D01*
X64040000Y-87150000D02*
X64040000Y-86850000D01*
X73600000Y-85540000D02*
X73900000Y-85540000D01*
X73600000Y-86960000D02*
X73900000Y-86960000D01*
X83400000Y-102460000D02*
X83100000Y-102460000D01*
X83400000Y-101040000D02*
X83100000Y-101040000D01*
X79800000Y-98710000D02*
X82690000Y-98710000D01*
X88700000Y-98710000D02*
X85810000Y-98710000D01*
X89460000Y-88290000D02*
X85810000Y-88290000D01*
X79040000Y-88290000D02*
X82690000Y-88290000D01*
X89460000Y-88290000D02*
X89460000Y-97950000D01*
X89460000Y-97950000D02*
X88700000Y-98710000D01*
X79800000Y-98710000D02*
X79040000Y-97950000D01*
X79040000Y-97950000D02*
X79040000Y-88290000D01*
X50400000Y-97450000D02*
X52300000Y-97450000D01*
X55200000Y-97400000D02*
X57800000Y-97400000D01*
X59900000Y-95550000D02*
X59900000Y-96750000D01*
X59900000Y-90250000D02*
X59900000Y-91450000D01*
X55200000Y-89600000D02*
X57800000Y-89600000D01*
X50400000Y-89600000D02*
X52300000Y-89600000D01*
X61500000Y-92250000D02*
X61050000Y-91900000D01*
X61500000Y-91550000D02*
X61500000Y-92250000D01*
X61050000Y-91900000D02*
X61500000Y-91550000D01*
X119120000Y-69280000D02*
X119120000Y-59920000D01*
X119120000Y-59920000D02*
X98640000Y-59920000D01*
X98640000Y-59920000D02*
X98640000Y-69280000D01*
X119120000Y-69280000D02*
X117550000Y-69280000D01*
X98640000Y-69280000D02*
X100210000Y-69280000D01*
X115450000Y-69280000D02*
X112470000Y-69280000D01*
X110370000Y-69280000D02*
X107390000Y-69280000D01*
X105290000Y-69280000D02*
X102310000Y-69280000D01*
X119120000Y-63200000D02*
X98640000Y-63200000D01*
X116200000Y-70600000D02*
X116500000Y-70000000D01*
X116500000Y-70000000D02*
X116800000Y-70600000D01*
X116800000Y-70600000D02*
X116200000Y-70600000D01*
X85050000Y-109420000D02*
X85050000Y-112080000D01*
X92730000Y-109420000D02*
X85050000Y-109420000D01*
X92730000Y-112080000D02*
X85050000Y-112080000D01*
X92730000Y-109420000D02*
X92730000Y-112080000D01*
X94000000Y-109420000D02*
X95330000Y-109420000D01*
X95330000Y-109420000D02*
X95330000Y-110750000D01*
X79340000Y-79670000D02*
X79340000Y-82330000D01*
X84480000Y-79670000D02*
X79340000Y-79670000D01*
X84480000Y-82330000D02*
X79340000Y-82330000D01*
X84480000Y-79670000D02*
X84480000Y-82330000D01*
X85750000Y-79670000D02*
X87080000Y-79670000D01*
X87080000Y-79670000D02*
X87080000Y-81000000D01*
X96170000Y-108080000D02*
X96170000Y-106750000D01*
X97500000Y-108080000D02*
X96170000Y-108080000D01*
X98770000Y-108080000D02*
X98770000Y-105420000D01*
X98770000Y-105420000D02*
X101370000Y-105420000D01*
X98770000Y-108080000D02*
X101370000Y-108080000D01*
X101370000Y-108080000D02*
X101370000Y-105420000D01*
X98670000Y-111170000D02*
X100000000Y-111170000D01*
X98670000Y-112500000D02*
X98670000Y-111170000D01*
X98670000Y-113770000D02*
X101330000Y-113770000D01*
X101330000Y-113770000D02*
X101330000Y-121450000D01*
X98670000Y-113770000D02*
X98670000Y-121450000D01*
X98670000Y-121450000D02*
X101330000Y-121450000D01*
X123120000Y-108080000D02*
X123120000Y-105420000D01*
X120520000Y-108080000D02*
X123120000Y-108080000D01*
X120520000Y-105420000D02*
X123120000Y-105420000D01*
X120520000Y-108080000D02*
X120520000Y-105420000D01*
X119250000Y-108080000D02*
X117920000Y-108080000D01*
X117920000Y-108080000D02*
X117920000Y-106750000D01*
X117570000Y-76830000D02*
X117570000Y-71630000D01*
X102270000Y-76830000D02*
X117570000Y-76830000D01*
X99670000Y-71630000D02*
X117570000Y-71630000D01*
X102270000Y-76830000D02*
X102270000Y-74230000D01*
X102270000Y-74230000D02*
X99670000Y-74230000D01*
X99670000Y-74230000D02*
X99670000Y-71630000D01*
X101000000Y-76830000D02*
X99670000Y-76830000D01*
X99670000Y-76830000D02*
X99670000Y-75500000D01*
X92950000Y-74400000D02*
X92950000Y-76700000D01*
X92950000Y-76700000D02*
X85550000Y-76700000D01*
X85550000Y-76700000D02*
X85550000Y-74400000D01*
X85550000Y-71600000D02*
X85550000Y-69300000D01*
X85550000Y-69300000D02*
X92950000Y-69300000D01*
X92950000Y-69300000D02*
X92950000Y-71600000D01*
D11*
X124010000Y-80610000D02*
X124010000Y-99660000D01*
X124010000Y-80610000D02*
X110040000Y-80610000D01*
X124010000Y-99660000D02*
X110040000Y-99660000D01*
X123375000Y-90135000D02*
G75*
G03X123375000Y-90135000I-1270000J0D01*
G01*
D12*
X86650000Y-54960000D02*
X86350000Y-54960000D01*
X86650000Y-53540000D02*
X86350000Y-53540000D01*
X79290000Y-53100000D02*
X79290000Y-53400000D01*
X80710000Y-53100000D02*
X80710000Y-53400000D01*
X79290000Y-57350000D02*
X79290000Y-57650000D01*
X80710000Y-57350000D02*
X80710000Y-57650000D01*
X63460000Y-97400000D02*
X63460000Y-97100000D01*
X62040000Y-97400000D02*
X62040000Y-97100000D01*
X63600000Y-93960000D02*
X63900000Y-93960000D01*
X63600000Y-92540000D02*
X63900000Y-92540000D01*
X63600000Y-90040000D02*
X63900000Y-90040000D01*
X63600000Y-91460000D02*
X63900000Y-91460000D01*
X108350000Y-109040000D02*
X108650000Y-109040000D01*
X108350000Y-110460000D02*
X108650000Y-110460000D01*
X113400000Y-109040000D02*
X113100000Y-109040000D01*
X113400000Y-110460000D02*
X113100000Y-110460000D01*
X64600000Y-112960000D02*
X64900000Y-112960000D01*
X64600000Y-111540000D02*
X64900000Y-111540000D01*
X121290000Y-111650000D02*
X121290000Y-111350000D01*
X122710000Y-111650000D02*
X122710000Y-111350000D01*
D11*
X117350000Y-114420000D02*
X117350000Y-127120000D01*
X117350000Y-127120000D02*
X104650000Y-127120000D01*
X104650000Y-127120000D02*
X104650000Y-114420000D01*
D13*
X61905000Y-100840000D02*
X61905000Y-103380000D01*
X61905000Y-103380000D02*
X58095000Y-103380000D01*
X58095000Y-100840000D02*
X58095000Y-121160000D01*
X58095000Y-121160000D02*
X70160000Y-121160000D01*
X70160000Y-121160000D02*
X70160000Y-100840000D01*
X70160000Y-100840000D02*
X58095000Y-100840000D01*
X78095000Y-121120000D02*
X78095000Y-118580000D01*
X78095000Y-118580000D02*
X81905000Y-118580000D01*
X81905000Y-121120000D02*
X81905000Y-105880000D01*
X81905000Y-105880000D02*
X72380000Y-105880000D01*
X72380000Y-105880000D02*
X72380000Y-121120000D01*
X72380000Y-121120000D02*
X81905000Y-121120000D01*
D12*
X121030000Y-115910000D02*
X120800000Y-115910000D01*
X124700000Y-115390000D02*
X124700000Y-123110000D01*
X124700000Y-123110000D02*
X120800000Y-123110000D01*
X117690000Y-115390000D02*
X117690000Y-115910000D01*
X124700000Y-115390000D02*
X120800000Y-115390000D01*
X121030000Y-122590000D02*
X120800000Y-122590000D01*
X118200000Y-115910000D02*
X117690000Y-115910000D01*
X118200000Y-115390000D02*
X117690000Y-115390000D01*
X121030000Y-122050000D02*
X121030000Y-122590000D01*
X118200000Y-122590000D02*
X117690000Y-122590000D01*
X117690000Y-122590000D02*
X117690000Y-123110000D01*
X118200000Y-123110000D02*
X117690000Y-123110000D01*
X121030000Y-115910000D02*
X121030000Y-116450000D01*
X121030000Y-117550000D02*
X121030000Y-120950000D01*
D13*
X87825000Y-59175000D02*
X87625000Y-59175000D01*
X87825000Y-63325000D02*
X87625000Y-63325000D01*
X82675000Y-63325000D02*
X82875000Y-63325000D01*
X82675000Y-59175000D02*
X82875000Y-59175000D01*
X87825000Y-59175000D02*
X87825000Y-63325000D01*
X82675000Y-59175000D02*
X82675000Y-63325000D01*
X87625000Y-59175000D02*
X87625000Y-57875000D01*
D12*
X76950000Y-92780000D02*
X76950000Y-91280000D01*
X76950000Y-91280000D02*
X76680000Y-91280000D01*
X76680000Y-91280000D02*
X76680000Y-88450000D01*
X70050000Y-92780000D02*
X70050000Y-91280000D01*
X70050000Y-91280000D02*
X70320000Y-91280000D01*
X70320000Y-91280000D02*
X70320000Y-90180000D01*
D14*
X53532380Y-58014047D02*
X53713809Y-58074523D01*
X54016190Y-58074523D01*
X54137142Y-58014047D01*
X54197619Y-57953571D01*
X54258095Y-57832619D01*
X54258095Y-57711666D01*
X54197619Y-57590714D01*
X54137142Y-57530238D01*
X54016190Y-57469761D01*
X53774285Y-57409285D01*
X53653333Y-57348809D01*
X53592857Y-57288333D01*
X53532380Y-57167380D01*
X53532380Y-57046428D01*
X53592857Y-56925476D01*
X53653333Y-56865000D01*
X53774285Y-56804523D01*
X54076666Y-56804523D01*
X54258095Y-56865000D01*
X55467619Y-58074523D02*
X54741904Y-58074523D01*
X55104761Y-58074523D02*
X55104761Y-56804523D01*
X54983809Y-56985952D01*
X54862857Y-57106904D01*
X54741904Y-57167380D01*
D13*
X51666666Y-63452380D02*
X51333333Y-62976190D01*
X51095238Y-63452380D02*
X51095238Y-62452380D01*
X51476190Y-62452380D01*
X51571428Y-62500000D01*
X51619047Y-62547619D01*
X51666666Y-62642857D01*
X51666666Y-62785714D01*
X51619047Y-62880952D01*
X51571428Y-62928571D01*
X51476190Y-62976190D01*
X51095238Y-62976190D01*
X52095238Y-62928571D02*
X52428571Y-62928571D01*
X52571428Y-63452380D02*
X52095238Y-63452380D01*
X52095238Y-62452380D01*
X52571428Y-62452380D01*
X53333333Y-62928571D02*
X53000000Y-62928571D01*
X53000000Y-63452380D02*
X53000000Y-62452380D01*
X53476190Y-62452380D01*
X54000000Y-62452380D02*
X54000000Y-62690476D01*
X53761904Y-62595238D02*
X54000000Y-62690476D01*
X54238095Y-62595238D01*
X53857142Y-62880952D02*
X54000000Y-62690476D01*
X54142857Y-62880952D01*
X54761904Y-62452380D02*
X54761904Y-62690476D01*
X54523809Y-62595238D02*
X54761904Y-62690476D01*
X55000000Y-62595238D01*
X54619047Y-62880952D02*
X54761904Y-62690476D01*
X54904761Y-62880952D01*
X120666666Y-63452380D02*
X120333333Y-62976190D01*
X120095238Y-63452380D02*
X120095238Y-62452380D01*
X120476190Y-62452380D01*
X120571428Y-62500000D01*
X120619047Y-62547619D01*
X120666666Y-62642857D01*
X120666666Y-62785714D01*
X120619047Y-62880952D01*
X120571428Y-62928571D01*
X120476190Y-62976190D01*
X120095238Y-62976190D01*
X121095238Y-62928571D02*
X121428571Y-62928571D01*
X121571428Y-63452380D02*
X121095238Y-63452380D01*
X121095238Y-62452380D01*
X121571428Y-62452380D01*
X122333333Y-62928571D02*
X122000000Y-62928571D01*
X122000000Y-63452380D02*
X122000000Y-62452380D01*
X122476190Y-62452380D01*
X123000000Y-62452380D02*
X123000000Y-62690476D01*
X122761904Y-62595238D02*
X123000000Y-62690476D01*
X123238095Y-62595238D01*
X122857142Y-62880952D02*
X123000000Y-62690476D01*
X123142857Y-62880952D01*
X123761904Y-62452380D02*
X123761904Y-62690476D01*
X123523809Y-62595238D02*
X123761904Y-62690476D01*
X124000000Y-62595238D01*
X123619047Y-62880952D02*
X123761904Y-62690476D01*
X123904761Y-62880952D01*
X91666666Y-118452380D02*
X91333333Y-117976190D01*
X91095238Y-118452380D02*
X91095238Y-117452380D01*
X91476190Y-117452380D01*
X91571428Y-117500000D01*
X91619047Y-117547619D01*
X91666666Y-117642857D01*
X91666666Y-117785714D01*
X91619047Y-117880952D01*
X91571428Y-117928571D01*
X91476190Y-117976190D01*
X91095238Y-117976190D01*
X92095238Y-117928571D02*
X92428571Y-117928571D01*
X92571428Y-118452380D02*
X92095238Y-118452380D01*
X92095238Y-117452380D01*
X92571428Y-117452380D01*
X93333333Y-117928571D02*
X93000000Y-117928571D01*
X93000000Y-118452380D02*
X93000000Y-117452380D01*
X93476190Y-117452380D01*
X94000000Y-117452380D02*
X94000000Y-117690476D01*
X93761904Y-117595238D02*
X94000000Y-117690476D01*
X94238095Y-117595238D01*
X93857142Y-117880952D02*
X94000000Y-117690476D01*
X94142857Y-117880952D01*
X94761904Y-117452380D02*
X94761904Y-117690476D01*
X94523809Y-117595238D02*
X94761904Y-117690476D01*
X95000000Y-117595238D01*
X94619047Y-117880952D02*
X94761904Y-117690476D01*
X94904761Y-117880952D01*
X79007142Y-66416666D02*
X79054761Y-66464285D01*
X79102380Y-66607142D01*
X79102380Y-66702380D01*
X79054761Y-66845238D01*
X78959523Y-66940476D01*
X78864285Y-66988095D01*
X78673809Y-67035714D01*
X78530952Y-67035714D01*
X78340476Y-66988095D01*
X78245238Y-66940476D01*
X78150000Y-66845238D01*
X78102380Y-66702380D01*
X78102380Y-66607142D01*
X78150000Y-66464285D01*
X78197619Y-66416666D01*
X79102380Y-65464285D02*
X79102380Y-66035714D01*
X79102380Y-65750000D02*
X78102380Y-65750000D01*
X78245238Y-65845238D01*
X78340476Y-65940476D01*
X78388095Y-66035714D01*
X83333333Y-69857142D02*
X83285714Y-69904761D01*
X83142857Y-69952380D01*
X83047619Y-69952380D01*
X82904761Y-69904761D01*
X82809523Y-69809523D01*
X82761904Y-69714285D01*
X82714285Y-69523809D01*
X82714285Y-69380952D01*
X82761904Y-69190476D01*
X82809523Y-69095238D01*
X82904761Y-69000000D01*
X83047619Y-68952380D01*
X83142857Y-68952380D01*
X83285714Y-69000000D01*
X83333333Y-69047619D01*
X83714285Y-69047619D02*
X83761904Y-69000000D01*
X83857142Y-68952380D01*
X84095238Y-68952380D01*
X84190476Y-69000000D01*
X84238095Y-69047619D01*
X84285714Y-69142857D01*
X84285714Y-69238095D01*
X84238095Y-69380952D01*
X83666666Y-69952380D01*
X84285714Y-69952380D01*
X91083333Y-66657142D02*
X91035714Y-66704761D01*
X90892857Y-66752380D01*
X90797619Y-66752380D01*
X90654761Y-66704761D01*
X90559523Y-66609523D01*
X90511904Y-66514285D01*
X90464285Y-66323809D01*
X90464285Y-66180952D01*
X90511904Y-65990476D01*
X90559523Y-65895238D01*
X90654761Y-65800000D01*
X90797619Y-65752380D01*
X90892857Y-65752380D01*
X91035714Y-65800000D01*
X91083333Y-65847619D01*
X91416666Y-65752380D02*
X92035714Y-65752380D01*
X91702380Y-66133333D01*
X91845238Y-66133333D01*
X91940476Y-66180952D01*
X91988095Y-66228571D01*
X92035714Y-66323809D01*
X92035714Y-66561904D01*
X91988095Y-66657142D01*
X91940476Y-66704761D01*
X91845238Y-66752380D01*
X91559523Y-66752380D01*
X91464285Y-66704761D01*
X91416666Y-66657142D01*
X65333333Y-100357142D02*
X65285714Y-100404761D01*
X65142857Y-100452380D01*
X65047619Y-100452380D01*
X64904761Y-100404761D01*
X64809523Y-100309523D01*
X64761904Y-100214285D01*
X64714285Y-100023809D01*
X64714285Y-99880952D01*
X64761904Y-99690476D01*
X64809523Y-99595238D01*
X64904761Y-99500000D01*
X65047619Y-99452380D01*
X65142857Y-99452380D01*
X65285714Y-99500000D01*
X65333333Y-99547619D01*
X66238095Y-99452380D02*
X65761904Y-99452380D01*
X65714285Y-99928571D01*
X65761904Y-99880952D01*
X65857142Y-99833333D01*
X66095238Y-99833333D01*
X66190476Y-99880952D01*
X66238095Y-99928571D01*
X66285714Y-100023809D01*
X66285714Y-100261904D01*
X66238095Y-100357142D01*
X66190476Y-100404761D01*
X66095238Y-100452380D01*
X65857142Y-100452380D01*
X65761904Y-100404761D01*
X65714285Y-100357142D01*
X63257142Y-87166666D02*
X63304761Y-87214285D01*
X63352380Y-87357142D01*
X63352380Y-87452380D01*
X63304761Y-87595238D01*
X63209523Y-87690476D01*
X63114285Y-87738095D01*
X62923809Y-87785714D01*
X62780952Y-87785714D01*
X62590476Y-87738095D01*
X62495238Y-87690476D01*
X62400000Y-87595238D01*
X62352380Y-87452380D01*
X62352380Y-87357142D01*
X62400000Y-87214285D01*
X62447619Y-87166666D01*
X62352380Y-86309523D02*
X62352380Y-86500000D01*
X62400000Y-86595238D01*
X62447619Y-86642857D01*
X62590476Y-86738095D01*
X62780952Y-86785714D01*
X63161904Y-86785714D01*
X63257142Y-86738095D01*
X63304761Y-86690476D01*
X63352380Y-86595238D01*
X63352380Y-86404761D01*
X63304761Y-86309523D01*
X63257142Y-86261904D01*
X63161904Y-86214285D01*
X62923809Y-86214285D01*
X62828571Y-86261904D01*
X62780952Y-86309523D01*
X62733333Y-86404761D01*
X62733333Y-86595238D01*
X62780952Y-86690476D01*
X62828571Y-86738095D01*
X62923809Y-86785714D01*
X70333333Y-86857142D02*
X70285714Y-86904761D01*
X70142857Y-86952380D01*
X70047619Y-86952380D01*
X69904761Y-86904761D01*
X69809523Y-86809523D01*
X69761904Y-86714285D01*
X69714285Y-86523809D01*
X69714285Y-86380952D01*
X69761904Y-86190476D01*
X69809523Y-86095238D01*
X69904761Y-86000000D01*
X70047619Y-85952380D01*
X70142857Y-85952380D01*
X70285714Y-86000000D01*
X70333333Y-86047619D01*
X70666666Y-85952380D02*
X71333333Y-85952380D01*
X70904761Y-86952380D01*
X83083333Y-103957142D02*
X83035714Y-104004761D01*
X82892857Y-104052380D01*
X82797619Y-104052380D01*
X82654761Y-104004761D01*
X82559523Y-103909523D01*
X82511904Y-103814285D01*
X82464285Y-103623809D01*
X82464285Y-103480952D01*
X82511904Y-103290476D01*
X82559523Y-103195238D01*
X82654761Y-103100000D01*
X82797619Y-103052380D01*
X82892857Y-103052380D01*
X83035714Y-103100000D01*
X83083333Y-103147619D01*
X83654761Y-103480952D02*
X83559523Y-103433333D01*
X83511904Y-103385714D01*
X83464285Y-103290476D01*
X83464285Y-103242857D01*
X83511904Y-103147619D01*
X83559523Y-103100000D01*
X83654761Y-103052380D01*
X83845238Y-103052380D01*
X83940476Y-103100000D01*
X83988095Y-103147619D01*
X84035714Y-103242857D01*
X84035714Y-103290476D01*
X83988095Y-103385714D01*
X83940476Y-103433333D01*
X83845238Y-103480952D01*
X83654761Y-103480952D01*
X83559523Y-103528571D01*
X83511904Y-103576190D01*
X83464285Y-103671428D01*
X83464285Y-103861904D01*
X83511904Y-103957142D01*
X83559523Y-104004761D01*
X83654761Y-104052380D01*
X83845238Y-104052380D01*
X83940476Y-104004761D01*
X83988095Y-103957142D01*
X84035714Y-103861904D01*
X84035714Y-103671428D01*
X83988095Y-103576190D01*
X83940476Y-103528571D01*
X83845238Y-103480952D01*
X83833333Y-86357142D02*
X83785714Y-86404761D01*
X83642857Y-86452380D01*
X83547619Y-86452380D01*
X83404761Y-86404761D01*
X83309523Y-86309523D01*
X83261904Y-86214285D01*
X83214285Y-86023809D01*
X83214285Y-85880952D01*
X83261904Y-85690476D01*
X83309523Y-85595238D01*
X83404761Y-85500000D01*
X83547619Y-85452380D01*
X83642857Y-85452380D01*
X83785714Y-85500000D01*
X83833333Y-85547619D01*
X84309523Y-86452380D02*
X84500000Y-86452380D01*
X84595238Y-86404761D01*
X84642857Y-86357142D01*
X84738095Y-86214285D01*
X84785714Y-86023809D01*
X84785714Y-85642857D01*
X84738095Y-85547619D01*
X84690476Y-85500000D01*
X84595238Y-85452380D01*
X84404761Y-85452380D01*
X84309523Y-85500000D01*
X84261904Y-85547619D01*
X84214285Y-85642857D01*
X84214285Y-85880952D01*
X84261904Y-85976190D01*
X84309523Y-86023809D01*
X84404761Y-86071428D01*
X84595238Y-86071428D01*
X84690476Y-86023809D01*
X84738095Y-85976190D01*
X84785714Y-85880952D01*
X89291428Y-99660952D02*
X89291428Y-98899047D01*
X89672380Y-99280000D02*
X88910476Y-99280000D01*
X58166666Y-85952380D02*
X58166666Y-86666666D01*
X58119047Y-86809523D01*
X58023809Y-86904761D01*
X57880952Y-86952380D01*
X57785714Y-86952380D01*
X59166666Y-86952380D02*
X58595238Y-86952380D01*
X58880952Y-86952380D02*
X58880952Y-85952380D01*
X58785714Y-86095238D01*
X58690476Y-86190476D01*
X58595238Y-86238095D01*
X96952380Y-64833333D02*
X97666666Y-64833333D01*
X97809523Y-64880952D01*
X97904761Y-64976190D01*
X97952380Y-65119047D01*
X97952380Y-65214285D01*
X97047619Y-64404761D02*
X97000000Y-64357142D01*
X96952380Y-64261904D01*
X96952380Y-64023809D01*
X97000000Y-63928571D01*
X97047619Y-63880952D01*
X97142857Y-63833333D01*
X97238095Y-63833333D01*
X97380952Y-63880952D01*
X97952380Y-64452380D01*
X97952380Y-63833333D01*
X95782380Y-111083333D02*
X96496666Y-111083333D01*
X96639523Y-111130952D01*
X96734761Y-111226190D01*
X96782380Y-111369047D01*
X96782380Y-111464285D01*
X95782380Y-110702380D02*
X95782380Y-110083333D01*
X96163333Y-110416666D01*
X96163333Y-110273809D01*
X96210952Y-110178571D01*
X96258571Y-110130952D01*
X96353809Y-110083333D01*
X96591904Y-110083333D01*
X96687142Y-110130952D01*
X96734761Y-110178571D01*
X96782380Y-110273809D01*
X96782380Y-110559523D01*
X96734761Y-110654761D01*
X96687142Y-110702380D01*
X87532380Y-81333333D02*
X88246666Y-81333333D01*
X88389523Y-81380952D01*
X88484761Y-81476190D01*
X88532380Y-81619047D01*
X88532380Y-81714285D01*
X87865714Y-80428571D02*
X88532380Y-80428571D01*
X87484761Y-80666666D02*
X88199047Y-80904761D01*
X88199047Y-80285714D01*
X94622380Y-107083333D02*
X95336666Y-107083333D01*
X95479523Y-107130952D01*
X95574761Y-107226190D01*
X95622380Y-107369047D01*
X95622380Y-107464285D01*
X94622380Y-106130952D02*
X94622380Y-106607142D01*
X95098571Y-106654761D01*
X95050952Y-106607142D01*
X95003333Y-106511904D01*
X95003333Y-106273809D01*
X95050952Y-106178571D01*
X95098571Y-106130952D01*
X95193809Y-106083333D01*
X95431904Y-106083333D01*
X95527142Y-106130952D01*
X95574761Y-106178571D01*
X95622380Y-106273809D01*
X95622380Y-106511904D01*
X95574761Y-106607142D01*
X95527142Y-106654761D01*
X99666666Y-109622380D02*
X99666666Y-110336666D01*
X99619047Y-110479523D01*
X99523809Y-110574761D01*
X99380952Y-110622380D01*
X99285714Y-110622380D01*
X100571428Y-109622380D02*
X100380952Y-109622380D01*
X100285714Y-109670000D01*
X100238095Y-109717619D01*
X100142857Y-109860476D01*
X100095238Y-110050952D01*
X100095238Y-110431904D01*
X100142857Y-110527142D01*
X100190476Y-110574761D01*
X100285714Y-110622380D01*
X100476190Y-110622380D01*
X100571428Y-110574761D01*
X100619047Y-110527142D01*
X100666666Y-110431904D01*
X100666666Y-110193809D01*
X100619047Y-110098571D01*
X100571428Y-110050952D01*
X100476190Y-110003333D01*
X100285714Y-110003333D01*
X100190476Y-110050952D01*
X100142857Y-110098571D01*
X100095238Y-110193809D01*
X116372380Y-107083333D02*
X117086666Y-107083333D01*
X117229523Y-107130952D01*
X117324761Y-107226190D01*
X117372380Y-107369047D01*
X117372380Y-107464285D01*
X116372380Y-106702380D02*
X116372380Y-106035714D01*
X117372380Y-106464285D01*
X98122380Y-74563333D02*
X98836666Y-74563333D01*
X98979523Y-74610952D01*
X99074761Y-74706190D01*
X99122380Y-74849047D01*
X99122380Y-74944285D01*
X98550952Y-73944285D02*
X98503333Y-74039523D01*
X98455714Y-74087142D01*
X98360476Y-74134761D01*
X98312857Y-74134761D01*
X98217619Y-74087142D01*
X98170000Y-74039523D01*
X98122380Y-73944285D01*
X98122380Y-73753809D01*
X98170000Y-73658571D01*
X98217619Y-73610952D01*
X98312857Y-73563333D01*
X98360476Y-73563333D01*
X98455714Y-73610952D01*
X98503333Y-73658571D01*
X98550952Y-73753809D01*
X98550952Y-73944285D01*
X98598571Y-74039523D01*
X98646190Y-74087142D01*
X98741428Y-74134761D01*
X98931904Y-74134761D01*
X99027142Y-74087142D01*
X99074761Y-74039523D01*
X99122380Y-73944285D01*
X99122380Y-73753809D01*
X99074761Y-73658571D01*
X99027142Y-73610952D01*
X98931904Y-73563333D01*
X98741428Y-73563333D01*
X98646190Y-73610952D01*
X98598571Y-73658571D01*
X98550952Y-73753809D01*
X89333333Y-78452380D02*
X88857142Y-78452380D01*
X88857142Y-77452380D01*
X90190476Y-78452380D02*
X89619047Y-78452380D01*
X89904761Y-78452380D02*
X89904761Y-77452380D01*
X89809523Y-77595238D01*
X89714285Y-77690476D01*
X89619047Y-77738095D01*
X111766285Y-79689428D02*
X111766285Y-78165428D01*
X112274285Y-79254000D01*
X112782285Y-78165428D01*
X112782285Y-79689428D01*
X114306285Y-79689428D02*
X113435428Y-79689428D01*
X113870857Y-79689428D02*
X113870857Y-78165428D01*
X113725714Y-78383142D01*
X113580571Y-78528285D01*
X113435428Y-78600857D01*
X96771142Y-85544285D02*
X96698571Y-85616857D01*
X96480857Y-85689428D01*
X96335714Y-85689428D01*
X96118000Y-85616857D01*
X95972857Y-85471714D01*
X95900285Y-85326571D01*
X95827714Y-85036285D01*
X95827714Y-84818571D01*
X95900285Y-84528285D01*
X95972857Y-84383142D01*
X96118000Y-84238000D01*
X96335714Y-84165428D01*
X96480857Y-84165428D01*
X96698571Y-84238000D01*
X96771142Y-84310571D01*
X98295142Y-85544285D02*
X98222571Y-85616857D01*
X98004857Y-85689428D01*
X97859714Y-85689428D01*
X97642000Y-85616857D01*
X97496857Y-85471714D01*
X97424285Y-85326571D01*
X97351714Y-85036285D01*
X97351714Y-84818571D01*
X97424285Y-84528285D01*
X97496857Y-84383142D01*
X97642000Y-84238000D01*
X97859714Y-84165428D01*
X98004857Y-84165428D01*
X98222571Y-84238000D01*
X98295142Y-84310571D01*
X98875714Y-84310571D02*
X98948285Y-84238000D01*
X99093428Y-84165428D01*
X99456285Y-84165428D01*
X99601428Y-84238000D01*
X99674000Y-84310571D01*
X99746571Y-84455714D01*
X99746571Y-84600857D01*
X99674000Y-84818571D01*
X98803142Y-85689428D01*
X99746571Y-85689428D01*
X101125428Y-84165428D02*
X100399714Y-84165428D01*
X100327142Y-84891142D01*
X100399714Y-84818571D01*
X100544857Y-84746000D01*
X100907714Y-84746000D01*
X101052857Y-84818571D01*
X101125428Y-84891142D01*
X101198000Y-85036285D01*
X101198000Y-85399142D01*
X101125428Y-85544285D01*
X101052857Y-85616857D01*
X100907714Y-85689428D01*
X100544857Y-85689428D01*
X100399714Y-85616857D01*
X100327142Y-85544285D01*
X101706000Y-84165428D02*
X102649428Y-84165428D01*
X102141428Y-84746000D01*
X102359142Y-84746000D01*
X102504285Y-84818571D01*
X102576857Y-84891142D01*
X102649428Y-85036285D01*
X102649428Y-85399142D01*
X102576857Y-85544285D01*
X102504285Y-85616857D01*
X102359142Y-85689428D01*
X101923714Y-85689428D01*
X101778571Y-85616857D01*
X101706000Y-85544285D01*
X103520285Y-84818571D02*
X103375142Y-84746000D01*
X103302571Y-84673428D01*
X103230000Y-84528285D01*
X103230000Y-84455714D01*
X103302571Y-84310571D01*
X103375142Y-84238000D01*
X103520285Y-84165428D01*
X103810571Y-84165428D01*
X103955714Y-84238000D01*
X104028285Y-84310571D01*
X104100857Y-84455714D01*
X104100857Y-84528285D01*
X104028285Y-84673428D01*
X103955714Y-84746000D01*
X103810571Y-84818571D01*
X103520285Y-84818571D01*
X103375142Y-84891142D01*
X103302571Y-84963714D01*
X103230000Y-85108857D01*
X103230000Y-85399142D01*
X103302571Y-85544285D01*
X103375142Y-85616857D01*
X103520285Y-85689428D01*
X103810571Y-85689428D01*
X103955714Y-85616857D01*
X104028285Y-85544285D01*
X104100857Y-85399142D01*
X104100857Y-85108857D01*
X104028285Y-84963714D01*
X103955714Y-84891142D01*
X103810571Y-84818571D01*
X104754000Y-85689428D02*
X104754000Y-84165428D01*
X105262000Y-85254000D01*
X105770000Y-84165428D01*
X105770000Y-85689428D01*
X106786000Y-84165428D02*
X107076285Y-84165428D01*
X107221428Y-84238000D01*
X107366571Y-84383142D01*
X107439142Y-84673428D01*
X107439142Y-85181428D01*
X107366571Y-85471714D01*
X107221428Y-85616857D01*
X107076285Y-85689428D01*
X106786000Y-85689428D01*
X106640857Y-85616857D01*
X106495714Y-85471714D01*
X106423142Y-85181428D01*
X106423142Y-84673428D01*
X106495714Y-84383142D01*
X106640857Y-84238000D01*
X106786000Y-84165428D01*
X108092285Y-85689428D02*
X108092285Y-84165428D01*
X108455142Y-84165428D01*
X108672857Y-84238000D01*
X108818000Y-84383142D01*
X108890571Y-84528285D01*
X108963142Y-84818571D01*
X108963142Y-85036285D01*
X108890571Y-85326571D01*
X108818000Y-85471714D01*
X108672857Y-85616857D01*
X108455142Y-85689428D01*
X108092285Y-85689428D01*
X109616285Y-84165428D02*
X109616285Y-85399142D01*
X109688857Y-85544285D01*
X109761428Y-85616857D01*
X109906571Y-85689428D01*
X110196857Y-85689428D01*
X110342000Y-85616857D01*
X110414571Y-85544285D01*
X110487142Y-85399142D01*
X110487142Y-84165428D01*
X111938571Y-85689428D02*
X111212857Y-85689428D01*
X111212857Y-84165428D01*
X112446571Y-84891142D02*
X112954571Y-84891142D01*
X113172285Y-85689428D02*
X112446571Y-85689428D01*
X112446571Y-84165428D01*
X113172285Y-84165428D01*
X86333333Y-56552380D02*
X86000000Y-56076190D01*
X85761904Y-56552380D02*
X85761904Y-55552380D01*
X86142857Y-55552380D01*
X86238095Y-55600000D01*
X86285714Y-55647619D01*
X86333333Y-55742857D01*
X86333333Y-55885714D01*
X86285714Y-55980952D01*
X86238095Y-56028571D01*
X86142857Y-56076190D01*
X85761904Y-56076190D01*
X87285714Y-56552380D02*
X86714285Y-56552380D01*
X87000000Y-56552380D02*
X87000000Y-55552380D01*
X86904761Y-55695238D01*
X86809523Y-55790476D01*
X86714285Y-55838095D01*
X82302380Y-53416666D02*
X81826190Y-53750000D01*
X82302380Y-53988095D02*
X81302380Y-53988095D01*
X81302380Y-53607142D01*
X81350000Y-53511904D01*
X81397619Y-53464285D01*
X81492857Y-53416666D01*
X81635714Y-53416666D01*
X81730952Y-53464285D01*
X81778571Y-53511904D01*
X81826190Y-53607142D01*
X81826190Y-53988095D01*
X81397619Y-53035714D02*
X81350000Y-52988095D01*
X81302380Y-52892857D01*
X81302380Y-52654761D01*
X81350000Y-52559523D01*
X81397619Y-52511904D01*
X81492857Y-52464285D01*
X81588095Y-52464285D01*
X81730952Y-52511904D01*
X82302380Y-53083333D01*
X82302380Y-52464285D01*
X82302380Y-57666666D02*
X81826190Y-58000000D01*
X82302380Y-58238095D02*
X81302380Y-58238095D01*
X81302380Y-57857142D01*
X81350000Y-57761904D01*
X81397619Y-57714285D01*
X81492857Y-57666666D01*
X81635714Y-57666666D01*
X81730952Y-57714285D01*
X81778571Y-57761904D01*
X81826190Y-57857142D01*
X81826190Y-58238095D01*
X81302380Y-57333333D02*
X81302380Y-56714285D01*
X81683333Y-57047619D01*
X81683333Y-56904761D01*
X81730952Y-56809523D01*
X81778571Y-56761904D01*
X81873809Y-56714285D01*
X82111904Y-56714285D01*
X82207142Y-56761904D01*
X82254761Y-56809523D01*
X82302380Y-56904761D01*
X82302380Y-57190476D01*
X82254761Y-57285714D01*
X82207142Y-57333333D01*
X63333333Y-100452380D02*
X63000000Y-99976190D01*
X62761904Y-100452380D02*
X62761904Y-99452380D01*
X63142857Y-99452380D01*
X63238095Y-99500000D01*
X63285714Y-99547619D01*
X63333333Y-99642857D01*
X63333333Y-99785714D01*
X63285714Y-99880952D01*
X63238095Y-99928571D01*
X63142857Y-99976190D01*
X62761904Y-99976190D01*
X64190476Y-99785714D02*
X64190476Y-100452380D01*
X63952380Y-99404761D02*
X63714285Y-100119047D01*
X64333333Y-100119047D01*
X66833333Y-93452380D02*
X66500000Y-92976190D01*
X66261904Y-93452380D02*
X66261904Y-92452380D01*
X66642857Y-92452380D01*
X66738095Y-92500000D01*
X66785714Y-92547619D01*
X66833333Y-92642857D01*
X66833333Y-92785714D01*
X66785714Y-92880952D01*
X66738095Y-92928571D01*
X66642857Y-92976190D01*
X66261904Y-92976190D01*
X67738095Y-92452380D02*
X67261904Y-92452380D01*
X67214285Y-92928571D01*
X67261904Y-92880952D01*
X67357142Y-92833333D01*
X67595238Y-92833333D01*
X67690476Y-92880952D01*
X67738095Y-92928571D01*
X67785714Y-93023809D01*
X67785714Y-93261904D01*
X67738095Y-93357142D01*
X67690476Y-93404761D01*
X67595238Y-93452380D01*
X67357142Y-93452380D01*
X67261904Y-93404761D01*
X67214285Y-93357142D01*
X66833333Y-90452380D02*
X66500000Y-89976190D01*
X66261904Y-90452380D02*
X66261904Y-89452380D01*
X66642857Y-89452380D01*
X66738095Y-89500000D01*
X66785714Y-89547619D01*
X66833333Y-89642857D01*
X66833333Y-89785714D01*
X66785714Y-89880952D01*
X66738095Y-89928571D01*
X66642857Y-89976190D01*
X66261904Y-89976190D01*
X67690476Y-89452380D02*
X67500000Y-89452380D01*
X67404761Y-89500000D01*
X67357142Y-89547619D01*
X67261904Y-89690476D01*
X67214285Y-89880952D01*
X67214285Y-90261904D01*
X67261904Y-90357142D01*
X67309523Y-90404761D01*
X67404761Y-90452380D01*
X67595238Y-90452380D01*
X67690476Y-90404761D01*
X67738095Y-90357142D01*
X67785714Y-90261904D01*
X67785714Y-90023809D01*
X67738095Y-89928571D01*
X67690476Y-89880952D01*
X67595238Y-89833333D01*
X67404761Y-89833333D01*
X67309523Y-89880952D01*
X67261904Y-89928571D01*
X67214285Y-90023809D01*
X108333333Y-108352380D02*
X108000000Y-107876190D01*
X107761904Y-108352380D02*
X107761904Y-107352380D01*
X108142857Y-107352380D01*
X108238095Y-107400000D01*
X108285714Y-107447619D01*
X108333333Y-107542857D01*
X108333333Y-107685714D01*
X108285714Y-107780952D01*
X108238095Y-107828571D01*
X108142857Y-107876190D01*
X107761904Y-107876190D01*
X108904761Y-107780952D02*
X108809523Y-107733333D01*
X108761904Y-107685714D01*
X108714285Y-107590476D01*
X108714285Y-107542857D01*
X108761904Y-107447619D01*
X108809523Y-107400000D01*
X108904761Y-107352380D01*
X109095238Y-107352380D01*
X109190476Y-107400000D01*
X109238095Y-107447619D01*
X109285714Y-107542857D01*
X109285714Y-107590476D01*
X109238095Y-107685714D01*
X109190476Y-107733333D01*
X109095238Y-107780952D01*
X108904761Y-107780952D01*
X108809523Y-107828571D01*
X108761904Y-107876190D01*
X108714285Y-107971428D01*
X108714285Y-108161904D01*
X108761904Y-108257142D01*
X108809523Y-108304761D01*
X108904761Y-108352380D01*
X109095238Y-108352380D01*
X109190476Y-108304761D01*
X109238095Y-108257142D01*
X109285714Y-108161904D01*
X109285714Y-107971428D01*
X109238095Y-107876190D01*
X109190476Y-107828571D01*
X109095238Y-107780952D01*
X113083333Y-112052380D02*
X112750000Y-111576190D01*
X112511904Y-112052380D02*
X112511904Y-111052380D01*
X112892857Y-111052380D01*
X112988095Y-111100000D01*
X113035714Y-111147619D01*
X113083333Y-111242857D01*
X113083333Y-111385714D01*
X113035714Y-111480952D01*
X112988095Y-111528571D01*
X112892857Y-111576190D01*
X112511904Y-111576190D01*
X113559523Y-112052380D02*
X113750000Y-112052380D01*
X113845238Y-112004761D01*
X113892857Y-111957142D01*
X113988095Y-111814285D01*
X114035714Y-111623809D01*
X114035714Y-111242857D01*
X113988095Y-111147619D01*
X113940476Y-111100000D01*
X113845238Y-111052380D01*
X113654761Y-111052380D01*
X113559523Y-111100000D01*
X113511904Y-111147619D01*
X113464285Y-111242857D01*
X113464285Y-111480952D01*
X113511904Y-111576190D01*
X113559523Y-111623809D01*
X113654761Y-111671428D01*
X113845238Y-111671428D01*
X113940476Y-111623809D01*
X113988095Y-111576190D01*
X114035714Y-111480952D01*
X64107142Y-110852380D02*
X63773809Y-110376190D01*
X63535714Y-110852380D02*
X63535714Y-109852380D01*
X63916666Y-109852380D01*
X64011904Y-109900000D01*
X64059523Y-109947619D01*
X64107142Y-110042857D01*
X64107142Y-110185714D01*
X64059523Y-110280952D01*
X64011904Y-110328571D01*
X63916666Y-110376190D01*
X63535714Y-110376190D01*
X65059523Y-110852380D02*
X64488095Y-110852380D01*
X64773809Y-110852380D02*
X64773809Y-109852380D01*
X64678571Y-109995238D01*
X64583333Y-110090476D01*
X64488095Y-110138095D01*
X65678571Y-109852380D02*
X65773809Y-109852380D01*
X65869047Y-109900000D01*
X65916666Y-109947619D01*
X65964285Y-110042857D01*
X66011904Y-110233333D01*
X66011904Y-110471428D01*
X65964285Y-110661904D01*
X65916666Y-110757142D01*
X65869047Y-110804761D01*
X65773809Y-110852380D01*
X65678571Y-110852380D01*
X65583333Y-110804761D01*
X65535714Y-110757142D01*
X65488095Y-110661904D01*
X65440476Y-110471428D01*
X65440476Y-110233333D01*
X65488095Y-110042857D01*
X65535714Y-109947619D01*
X65583333Y-109900000D01*
X65678571Y-109852380D01*
X120602380Y-112142857D02*
X120126190Y-112476190D01*
X120602380Y-112714285D02*
X119602380Y-112714285D01*
X119602380Y-112333333D01*
X119650000Y-112238095D01*
X119697619Y-112190476D01*
X119792857Y-112142857D01*
X119935714Y-112142857D01*
X120030952Y-112190476D01*
X120078571Y-112238095D01*
X120126190Y-112333333D01*
X120126190Y-112714285D01*
X120602380Y-111190476D02*
X120602380Y-111761904D01*
X120602380Y-111476190D02*
X119602380Y-111476190D01*
X119745238Y-111571428D01*
X119840476Y-111666666D01*
X119888095Y-111761904D01*
X119697619Y-110809523D02*
X119650000Y-110761904D01*
X119602380Y-110666666D01*
X119602380Y-110428571D01*
X119650000Y-110333333D01*
X119697619Y-110285714D01*
X119792857Y-110238095D01*
X119888095Y-110238095D01*
X120030952Y-110285714D01*
X120602380Y-110857142D01*
X120602380Y-110238095D01*
X114116857Y-120661142D02*
X114189428Y-120443428D01*
X114189428Y-120080571D01*
X114116857Y-119935428D01*
X114044285Y-119862857D01*
X113899142Y-119790285D01*
X113754000Y-119790285D01*
X113608857Y-119862857D01*
X113536285Y-119935428D01*
X113463714Y-120080571D01*
X113391142Y-120370857D01*
X113318571Y-120516000D01*
X113246000Y-120588571D01*
X113100857Y-120661142D01*
X112955714Y-120661142D01*
X112810571Y-120588571D01*
X112738000Y-120516000D01*
X112665428Y-120370857D01*
X112665428Y-120008000D01*
X112738000Y-119790285D01*
X112810571Y-119209714D02*
X112738000Y-119137142D01*
X112665428Y-118992000D01*
X112665428Y-118629142D01*
X112738000Y-118484000D01*
X112810571Y-118411428D01*
X112955714Y-118338857D01*
X113100857Y-118338857D01*
X113318571Y-118411428D01*
X114189428Y-119282285D01*
X114189428Y-118338857D01*
X107665428Y-122685142D02*
X107665428Y-121814285D01*
X109189428Y-122249714D02*
X107665428Y-122249714D01*
X109189428Y-121306285D02*
X107665428Y-121306285D01*
X108391142Y-121306285D02*
X108391142Y-120435428D01*
X109189428Y-120435428D02*
X107665428Y-120435428D01*
X107665428Y-119419428D02*
X107665428Y-119274285D01*
X107738000Y-119129142D01*
X107810571Y-119056571D01*
X107955714Y-118984000D01*
X108246000Y-118911428D01*
X108608857Y-118911428D01*
X108899142Y-118984000D01*
X109044285Y-119056571D01*
X109116857Y-119129142D01*
X109189428Y-119274285D01*
X109189428Y-119419428D01*
X109116857Y-119564571D01*
X109044285Y-119637142D01*
X108899142Y-119709714D01*
X108608857Y-119782285D01*
X108246000Y-119782285D01*
X107955714Y-119709714D01*
X107810571Y-119637142D01*
X107738000Y-119564571D01*
X107665428Y-119419428D01*
X107810571Y-118330857D02*
X107738000Y-118258285D01*
X107665428Y-118113142D01*
X107665428Y-117750285D01*
X107738000Y-117605142D01*
X107810571Y-117532571D01*
X107955714Y-117460000D01*
X108100857Y-117460000D01*
X108318571Y-117532571D01*
X109189428Y-118403428D01*
X109189428Y-117460000D01*
X57535714Y-111914285D02*
X57592857Y-111742857D01*
X57592857Y-111457142D01*
X57535714Y-111342857D01*
X57478571Y-111285714D01*
X57364285Y-111228571D01*
X57250000Y-111228571D01*
X57135714Y-111285714D01*
X57078571Y-111342857D01*
X57021428Y-111457142D01*
X56964285Y-111685714D01*
X56907142Y-111800000D01*
X56850000Y-111857142D01*
X56735714Y-111914285D01*
X56621428Y-111914285D01*
X56507142Y-111857142D01*
X56450000Y-111800000D01*
X56392857Y-111685714D01*
X56392857Y-111400000D01*
X56450000Y-111228571D01*
X56392857Y-110828571D02*
X56392857Y-110085714D01*
X56850000Y-110485714D01*
X56850000Y-110314285D01*
X56907142Y-110200000D01*
X56964285Y-110142857D01*
X57078571Y-110085714D01*
X57364285Y-110085714D01*
X57478571Y-110142857D01*
X57535714Y-110200000D01*
X57592857Y-110314285D01*
X57592857Y-110657142D01*
X57535714Y-110771428D01*
X57478571Y-110828571D01*
X83435714Y-114414285D02*
X83492857Y-114242857D01*
X83492857Y-113957142D01*
X83435714Y-113842857D01*
X83378571Y-113785714D01*
X83264285Y-113728571D01*
X83150000Y-113728571D01*
X83035714Y-113785714D01*
X82978571Y-113842857D01*
X82921428Y-113957142D01*
X82864285Y-114185714D01*
X82807142Y-114300000D01*
X82750000Y-114357142D01*
X82635714Y-114414285D01*
X82521428Y-114414285D01*
X82407142Y-114357142D01*
X82350000Y-114300000D01*
X82292857Y-114185714D01*
X82292857Y-113900000D01*
X82350000Y-113728571D01*
X82692857Y-112700000D02*
X83492857Y-112700000D01*
X82235714Y-112985714D02*
X83092857Y-113271428D01*
X83092857Y-112528571D01*
X120724761Y-120583333D02*
X120772380Y-120440476D01*
X120772380Y-120202380D01*
X120724761Y-120107142D01*
X120677142Y-120059523D01*
X120581904Y-120011904D01*
X120486666Y-120011904D01*
X120391428Y-120059523D01*
X120343809Y-120107142D01*
X120296190Y-120202380D01*
X120248571Y-120392857D01*
X120200952Y-120488095D01*
X120153333Y-120535714D01*
X120058095Y-120583333D01*
X119962857Y-120583333D01*
X119867619Y-120535714D01*
X119820000Y-120488095D01*
X119772380Y-120392857D01*
X119772380Y-120154761D01*
X119820000Y-120011904D01*
X119772380Y-119678571D02*
X120772380Y-119440476D01*
X120058095Y-119250000D01*
X120772380Y-119059523D01*
X119772380Y-118821428D01*
X120772380Y-117916666D02*
X120772380Y-118488095D01*
X120772380Y-118202380D02*
X119772380Y-118202380D01*
X119915238Y-118297619D01*
X120010476Y-118392857D01*
X120058095Y-118488095D01*
X88452380Y-62011904D02*
X89261904Y-62011904D01*
X89357142Y-61964285D01*
X89404761Y-61916666D01*
X89452380Y-61821428D01*
X89452380Y-61630952D01*
X89404761Y-61535714D01*
X89357142Y-61488095D01*
X89261904Y-61440476D01*
X88452380Y-61440476D01*
X89452380Y-60440476D02*
X89452380Y-61011904D01*
X89452380Y-60726190D02*
X88452380Y-60726190D01*
X88595238Y-60821428D01*
X88690476Y-60916666D01*
X88738095Y-61011904D01*
X77452380Y-94511904D02*
X78261904Y-94511904D01*
X78357142Y-94464285D01*
X78404761Y-94416666D01*
X78452380Y-94321428D01*
X78452380Y-94130952D01*
X78404761Y-94035714D01*
X78357142Y-93988095D01*
X78261904Y-93940476D01*
X77452380Y-93940476D01*
X77452380Y-93559523D02*
X77452380Y-92940476D01*
X77833333Y-93273809D01*
X77833333Y-93130952D01*
X77880952Y-93035714D01*
X77928571Y-92988095D01*
X78023809Y-92940476D01*
X78261904Y-92940476D01*
X78357142Y-92988095D01*
X78404761Y-93035714D01*
X78452380Y-93130952D01*
X78452380Y-93416666D01*
X78404761Y-93511904D01*
X78357142Y-93559523D01*
M02*
